<svg width="454" height="82" viewBox="0 0 454 12" fill="none" xmlns="http://www.w3.org/2000/svg">
<path d="M287.604 67.8329C286.575 67.8329 285.782 68.1248 285.226 68.7086C284.671 69.2715 284.248 70.2098 283.96 71.5233C283.96 71.565 283.899 71.5858 283.775 71.5858C283.672 71.5858 283.621 71.565 283.621 71.5233C283.703 70.8769 283.785 70.043 283.868 69.0214C283.95 67.9997 283.991 67.2179 283.991 66.6758C283.991 66.5716 284.043 66.5194 284.146 66.5194C284.269 66.5194 284.331 66.5716 284.331 66.6758C284.331 66.9469 284.485 67.1241 284.794 67.2075C285.103 67.27 285.494 67.3013 285.967 67.3013C287.738 67.343 289.292 67.3638 290.63 67.3638L293.317 67.3326C293.667 67.3117 294.141 67.3013 294.738 67.3013C295.52 67.3013 296.086 67.2596 296.436 67.1762C296.807 67.0719 297.043 66.8635 297.146 66.5507C297.187 66.4882 297.26 66.4569 297.362 66.4569C297.465 66.4569 297.517 66.4882 297.517 66.5507C297.373 69.2403 297.301 70.8978 297.301 71.5233C297.301 71.565 297.239 71.5858 297.115 71.5858C297.012 71.5858 296.961 71.565 296.961 71.5233C296.879 70.2515 296.57 69.3237 296.035 68.7399C295.499 68.1353 294.707 67.8329 293.657 67.8329C292.895 67.8329 292.391 67.9789 292.144 68.2708C291.897 68.5418 291.773 69.0839 291.773 69.897V79.4668C291.773 80.1131 291.825 80.5823 291.927 80.8741C292.051 81.166 292.288 81.3641 292.638 81.4683C292.988 81.5726 293.544 81.6247 294.305 81.6247C294.346 81.6247 294.367 81.6873 294.367 81.8123C294.367 81.9374 294.346 82 294.305 82C293.626 82 293.101 81.9896 292.73 81.9687L290.569 81.9374L288.438 81.9687C288.047 81.9896 287.512 82 286.832 82C286.791 82 286.77 81.9374 286.77 81.8123C286.77 81.6873 286.791 81.6247 286.832 81.6247C287.594 81.6247 288.15 81.5726 288.5 81.4683C288.85 81.3641 289.086 81.166 289.21 80.8741C289.354 80.5614 289.426 80.0923 289.426 79.4668V69.8345C289.426 69.2507 289.385 68.8233 289.303 68.5522C289.22 68.2812 289.056 68.0936 288.809 67.9893C288.561 67.8851 288.16 67.8329 287.604 67.8329Z" fill="white"/><path d="M80.2831 82C80.2419 82 80.2213 81.9374 80.2213 81.8123C80.2213 81.6873 80.2419 81.6247 80.2831 81.6247C81.0448 81.6247 81.6007 81.5726 81.9506 81.4683C82.3212 81.3641 82.5683 81.166 82.6918 80.8741C82.8153 80.5614 82.8771 80.0923 82.8771 79.4668V64.987C82.8771 64.3616 82.8153 63.9029 82.6918 63.611C82.5683 63.3191 82.3315 63.121 81.9815 63.0168C81.6521 62.8917 81.1272 62.8291 80.4066 62.8291C80.3448 62.8291 80.314 62.7666 80.314 62.6415C80.314 62.5164 80.3448 62.4539 80.4066 62.4539H93.5617C93.7676 62.4539 93.8706 62.5477 93.8706 62.7353L93.9323 67.1762C93.9323 67.2387 93.8706 67.2804 93.747 67.3013C93.6441 67.3013 93.5823 67.27 93.5617 67.2075C93.4176 65.894 92.9956 64.9036 92.2956 64.2365C91.6163 63.5484 90.7104 63.2044 89.5781 63.2044H87.6327C86.7474 63.2044 86.1401 63.3295 85.8107 63.5797C85.5019 63.8299 85.3475 64.3094 85.3475 65.0183V79.3417C85.3475 80.0089 85.4298 80.4989 85.5945 80.8116C85.7798 81.1035 86.1195 81.312 86.6136 81.4371C87.1077 81.5622 87.89 81.6247 88.9605 81.6247C89.0017 81.6247 89.0223 81.6873 89.0223 81.8123C89.0223 81.9374 89.0017 82 88.9605 82C88.1165 82 87.4577 81.9896 86.9842 81.9687L84.0814 81.9374L81.9198 81.9687C81.5286 81.9896 80.983 82 80.2831 82Z" fill="white"/>
<path d="M99.4428 79.3417C99.4428 79.988 99.5149 80.4676 99.659 80.7803C99.8031 81.093 100.071 81.312 100.462 81.4371C100.874 81.5622 101.512 81.6247 102.376 81.6247C102.438 81.6247 102.469 81.6873 102.469 81.8123C102.469 81.9374 102.438 82 102.376 82C101.635 82 101.049 81.9896 100.616 81.9687L98.3311 81.9374L96.4165 81.9687C96.0665 81.9896 95.5827 82 94.9651 82C94.924 82 94.9034 81.9374 94.9034 81.8123C94.9034 81.6873 94.924 81.6247 94.9651 81.6247C95.6033 81.6247 96.0768 81.5726 96.3856 81.4683C96.6944 81.3641 96.9003 81.166 97.0032 80.8741C97.1268 80.5614 97.1885 80.0923 97.1885 79.4668V69.897C97.1885 69.2715 97.1268 68.8129 97.0032 68.521C96.9003 68.2291 96.6944 68.031 96.3856 67.9268C96.0768 67.8017 95.6033 67.7391 94.9651 67.7391C94.924 67.7391 94.9034 67.6766 94.9034 67.5515C94.9034 67.4264 94.924 67.3638 94.9651 67.3638L96.3856 67.3951C97.2091 67.4368 97.8473 67.4577 98.3002 67.4577C98.8149 67.4577 99.4016 67.4264 100.06 67.3638C100.287 67.343 100.555 67.3221 100.863 67.3013C101.193 67.2804 101.553 67.27 101.944 67.27C105.403 67.27 107.132 68.5106 107.132 70.9916C107.132 71.9924 106.875 72.8472 106.36 73.5561C105.866 74.2441 105.228 74.7653 104.445 75.1198C103.663 75.4533 102.85 75.6201 102.006 75.6201C101.512 75.6201 101.131 75.5889 100.863 75.5263C100.802 75.4846 100.771 75.4116 100.771 75.3074C100.771 75.1823 100.822 75.1198 100.925 75.1198C101.049 75.1198 101.172 75.1302 101.296 75.151C101.44 75.1719 101.594 75.1823 101.759 75.1823C102.582 75.1823 103.262 74.88 103.797 74.2754C104.332 73.6707 104.6 72.7951 104.6 71.6484C104.6 70.3349 104.301 69.3549 103.704 68.7086C103.107 68.0623 102.274 67.7391 101.203 67.7391C100.75 67.7391 100.4 67.7913 100.153 67.8955C99.9266 67.9789 99.7516 68.177 99.6281 68.4897C99.5046 68.8024 99.4428 69.2924 99.4428 69.9596V79.3417Z" fill="white"/>
<path d="M124.204 81.6247C124.307 81.6247 124.358 81.6873 124.358 81.8123C124.358 81.9374 124.307 82 124.204 82C123.813 82 123.205 81.9791 122.382 81.9374C121.517 81.8958 120.9 81.8749 120.529 81.8749C120.22 81.8749 119.757 81.8958 119.139 81.9374C118.563 81.9791 118.12 82 117.811 82C117.729 82 117.688 81.9374 117.688 81.8123C117.688 81.6873 117.729 81.6247 117.811 81.6247C118.326 81.6247 118.697 81.5622 118.923 81.4371C119.17 81.2911 119.294 81.0722 119.294 80.7803C119.294 80.405 119.16 79.9359 118.892 79.373L116.885 74.9947H112.778L111.512 78.1533C111.162 79.029 110.987 79.6962 110.987 80.1548C110.987 80.6761 111.162 81.0514 111.512 81.2807C111.882 81.51 112.449 81.6247 113.21 81.6247C113.313 81.6247 113.365 81.6873 113.365 81.8123C113.365 81.9374 113.313 82 113.21 82C112.901 82 112.479 81.9791 111.944 81.9374C111.368 81.8958 110.832 81.8749 110.338 81.8749C109.824 81.8749 109.216 81.8958 108.516 81.9374C107.899 81.9791 107.405 82 107.034 82C106.931 82 106.88 81.9374 106.88 81.8123C106.88 81.6873 106.931 81.6247 107.034 81.6247C107.672 81.6247 108.177 81.5309 108.547 81.3432C108.938 81.1556 109.288 80.8116 109.597 80.3112C109.927 79.79 110.318 78.9769 110.771 77.8719L115.279 66.8947C115.32 66.8113 115.382 66.7696 115.465 66.7696C115.547 66.7696 115.609 66.8113 115.65 66.8947L120.591 77.7155C121.126 78.8622 121.558 79.7066 121.888 80.2487C122.217 80.7699 122.547 81.1348 122.876 81.3432C123.226 81.5309 123.669 81.6247 124.204 81.6247ZM113.056 74.3379H116.576L114.693 70.241L113.056 74.3379Z" fill="white"/>
<path d="M142.535 81.6247C142.576 81.6247 142.597 81.6873 142.597 81.8123C142.597 81.9374 142.576 82 142.535 82C141.917 82 141.434 81.9896 141.084 81.9687L139.2 81.9374L137.224 81.9687C136.894 81.9896 136.431 82 135.834 82C135.772 82 135.741 81.9374 135.741 81.8123C135.741 81.6873 135.772 81.6247 135.834 81.6247C136.493 81.6247 136.966 81.5726 137.254 81.4683C137.563 81.3641 137.769 81.166 137.872 80.8741C137.975 80.5614 138.026 80.0923 138.026 79.4668V74.9321H129.781V79.4668C129.781 80.0923 129.833 80.5614 129.936 80.8741C130.039 81.166 130.234 81.3641 130.522 81.4683C130.831 81.5726 131.315 81.6247 131.974 81.6247C132.036 81.6247 132.066 81.6873 132.066 81.8123C132.066 81.9374 132.036 82 131.974 82C131.377 82 130.914 81.9896 130.584 81.9687L128.639 81.9374L126.724 81.9687C126.374 81.9896 125.89 82 125.273 82C125.232 82 125.211 81.9374 125.211 81.8123C125.211 81.6873 125.232 81.6247 125.273 81.6247C125.932 81.6247 126.415 81.5726 126.724 81.4683C127.033 81.3641 127.239 81.166 127.342 80.8741C127.465 80.5614 127.527 80.0923 127.527 79.4668V69.897C127.527 69.2715 127.465 68.8129 127.342 68.521C127.239 68.2291 127.033 68.031 126.724 67.9268C126.436 67.8017 125.973 67.7391 125.335 67.7391C125.273 67.7391 125.242 67.6766 125.242 67.5515C125.242 67.4264 125.273 67.3638 125.335 67.3638L126.724 67.3951C127.506 67.4368 128.145 67.4577 128.639 67.4577C129.133 67.4577 129.792 67.4368 130.615 67.3951L131.974 67.3638C132.036 67.3638 132.066 67.4264 132.066 67.5515C132.066 67.6766 132.036 67.7391 131.974 67.7391C131.336 67.7391 130.862 67.8017 130.553 67.9268C130.265 68.0519 130.059 68.2708 129.936 68.5835C129.833 68.8754 129.781 69.3341 129.781 69.9596V74.3066H138.026V69.9596C138.026 69.3341 137.975 68.8754 137.872 68.5835C137.769 68.2708 137.563 68.0519 137.254 67.9268C136.946 67.8017 136.472 67.7391 135.834 67.7391C135.772 67.7391 135.741 67.6766 135.741 67.5515C135.741 67.4264 135.772 67.3638 135.834 67.3638L137.224 67.3951C138.006 67.4368 138.665 67.4577 139.2 67.4577C139.673 67.4577 140.301 67.4368 141.084 67.3951L142.535 67.3638C142.576 67.3638 142.597 67.4264 142.597 67.5515C142.597 67.6766 142.576 67.7391 142.535 67.7391C141.876 67.7391 141.392 67.8017 141.084 67.9268C140.775 68.031 140.559 68.2291 140.435 68.521C140.332 68.8129 140.281 69.2715 140.281 69.897V79.4668C140.281 80.0923 140.332 80.5614 140.435 80.8741C140.559 81.166 140.775 81.3641 141.084 81.4683C141.392 81.5726 141.876 81.6247 142.535 81.6247Z" fill="white"/>
<path d="M149.298 79.4668C149.298 80.0923 149.349 80.5614 149.452 80.8741C149.555 81.166 149.751 81.3641 150.039 81.4683C150.348 81.5726 150.832 81.6247 151.49 81.6247C151.552 81.6247 151.583 81.6873 151.583 81.8123C151.583 81.9374 151.552 82 151.49 82C150.893 82 150.43 81.9896 150.101 81.9687L148.124 81.9374L146.21 81.9687C145.86 81.9896 145.376 82 144.758 82C144.717 82 144.697 81.9374 144.697 81.8123C144.697 81.6873 144.717 81.6247 144.758 81.6247C145.417 81.6247 145.901 81.5726 146.21 81.4683C146.519 81.3641 146.724 81.166 146.827 80.8741C146.951 80.5614 147.013 80.0923 147.013 79.4668V69.897C147.013 69.2715 146.951 68.8129 146.827 68.521C146.724 68.2291 146.519 68.031 146.21 67.9268C145.901 67.8017 145.417 67.7391 144.758 67.7391C144.717 67.7391 144.697 67.6766 144.697 67.5515C144.697 67.4264 144.717 67.3638 144.758 67.3638L146.21 67.3951C146.992 67.4368 147.63 67.4577 148.124 67.4577C148.639 67.4577 149.308 67.4368 150.132 67.3951L151.49 67.3638C151.552 67.3638 151.583 67.4264 151.583 67.5515C151.583 67.6766 151.552 67.7391 151.49 67.7391C150.852 67.7391 150.379 67.8017 150.07 67.9268C149.782 68.0519 149.576 68.2708 149.452 68.5835C149.349 68.8754 149.298 69.3341 149.298 69.9596V79.4668Z" fill="white"/>
<path d="M157.447 67.8329C156.418 67.8329 155.625 68.1248 155.069 68.7086C154.514 69.2715 154.092 70.2098 153.803 71.5233C153.803 71.565 153.742 71.5858 153.618 71.5858C153.515 71.5858 153.464 71.565 153.464 71.5233C153.546 70.8769 153.628 70.043 153.711 69.0214C153.793 67.9997 153.834 67.2179 153.834 66.6758C153.834 66.5716 153.886 66.5194 153.989 66.5194C154.112 66.5194 154.174 66.5716 154.174 66.6758C154.174 66.9469 154.328 67.1241 154.637 67.2075C154.946 67.27 155.337 67.3013 155.811 67.3013C157.581 67.343 159.135 67.3638 160.474 67.3638L163.16 67.3326C163.51 67.3117 163.984 67.3013 164.581 67.3013C165.363 67.3013 165.929 67.2596 166.279 67.1762C166.65 67.0719 166.886 66.8635 166.989 66.5507C167.031 66.4882 167.103 66.4569 167.205 66.4569C167.308 66.4569 167.36 66.4882 167.36 66.5507C167.216 69.2403 167.144 70.8978 167.144 71.5233C167.144 71.565 167.082 71.5858 166.958 71.5858C166.856 71.5858 166.804 71.565 166.804 71.5233C166.722 70.2515 166.413 69.3237 165.878 68.7399C165.342 68.1353 164.55 67.8329 163.5 67.8329C162.738 67.8329 162.234 67.9789 161.987 68.2708C161.74 68.5418 161.616 69.0839 161.616 69.897V79.4668C161.616 80.1131 161.668 80.5823 161.771 80.8741C161.894 81.166 162.131 81.3641 162.481 81.4683C162.831 81.5726 163.387 81.6247 164.148 81.6247C164.189 81.6247 164.21 81.6873 164.21 81.8123C164.21 81.9374 164.189 82 164.148 82C163.469 82 162.944 81.9896 162.573 81.9687L160.412 81.9374L158.281 81.9687C157.89 81.9896 157.355 82 156.675 82C156.634 82 156.613 81.9374 156.613 81.8123C156.613 81.6873 156.634 81.6247 156.675 81.6247C157.437 81.6247 157.993 81.5726 158.343 81.4683C158.693 81.3641 158.93 81.166 159.053 80.8741C159.197 80.5614 159.269 80.0923 159.269 79.4668V69.8345C159.269 69.2507 159.228 68.8233 159.146 68.5522C159.063 68.2812 158.899 68.0936 158.652 67.9893C158.405 67.8851 158.003 67.8329 157.447 67.8329Z" fill="white"/>
<path d="M186.353 81.6247C186.394 81.6247 186.415 81.6873 186.415 81.8123C186.415 81.9374 186.394 82 186.353 82C185.735 82 185.252 81.9896 184.902 81.9687L183.018 81.9374L181.041 81.9687C180.712 81.9896 180.249 82 179.652 82C179.59 82 179.559 81.9374 179.559 81.8123C179.559 81.6873 179.59 81.6247 179.652 81.6247C180.311 81.6247 180.784 81.5726 181.072 81.4683C181.381 81.3641 181.587 81.166 181.69 80.8741C181.793 80.5614 181.844 80.0923 181.844 79.4668V74.9321H173.599V79.4668C173.599 80.0923 173.651 80.5614 173.754 80.8741C173.857 81.166 174.052 81.3641 174.34 81.4683C174.649 81.5726 175.133 81.6247 175.792 81.6247C175.854 81.6247 175.884 81.6873 175.884 81.8123C175.884 81.9374 175.854 82 175.792 82C175.195 82 174.732 81.9896 174.402 81.9687L172.457 81.9374L170.542 81.9687C170.192 81.9896 169.708 82 169.091 82C169.049 82 169.029 81.9374 169.029 81.8123C169.029 81.6873 169.049 81.6247 169.091 81.6247C169.749 81.6247 170.233 81.5726 170.542 81.4683C170.851 81.3641 171.057 81.166 171.16 80.8741C171.283 80.5614 171.345 80.0923 171.345 79.4668V69.897C171.345 69.2715 171.283 68.8129 171.16 68.521C171.057 68.2291 170.851 68.031 170.542 67.9268C170.254 67.8017 169.791 67.7391 169.152 67.7391C169.091 67.7391 169.06 67.6766 169.06 67.5515C169.06 67.4264 169.091 67.3638 169.152 67.3638L170.542 67.3951C171.324 67.4368 171.963 67.4577 172.457 67.4577C172.951 67.4577 173.61 67.4368 174.433 67.3951L175.792 67.3638C175.854 67.3638 175.884 67.4264 175.884 67.5515C175.884 67.6766 175.854 67.7391 175.792 67.7391C175.154 67.7391 174.68 67.8017 174.371 67.9268C174.083 68.0519 173.877 68.2708 173.754 68.5835C173.651 68.8754 173.599 69.3341 173.599 69.9596V74.3066H181.844V69.9596C181.844 69.3341 181.793 68.8754 181.69 68.5835C181.587 68.2708 181.381 68.0519 181.072 67.9268C180.764 67.8017 180.29 67.7391 179.652 67.7391C179.59 67.7391 179.559 67.6766 179.559 67.5515C179.559 67.4264 179.59 67.3638 179.652 67.3638L181.041 67.3951C181.824 67.4368 182.483 67.4577 183.018 67.4577C183.491 67.4577 184.119 67.4368 184.902 67.3951L186.353 67.3638C186.394 67.3638 186.415 67.4264 186.415 67.5515C186.415 67.6766 186.394 67.7391 186.353 67.7391C185.694 67.7391 185.21 67.8017 184.902 67.9268C184.593 68.031 184.377 68.2291 184.253 68.521C184.15 68.8129 184.099 69.2715 184.099 69.897V79.4668C184.099 80.0923 184.15 80.5614 184.253 80.8741C184.377 81.166 184.593 81.3641 184.902 81.4683C185.21 81.5726 185.694 81.6247 186.353 81.6247Z" fill="white"/>
<path d="M193.116 79.4668C193.116 80.0923 193.167 80.5614 193.27 80.8741C193.373 81.166 193.569 81.3641 193.857 81.4683C194.166 81.5726 194.65 81.6247 195.308 81.6247C195.37 81.6247 195.401 81.6873 195.401 81.8123C195.401 81.9374 195.37 82 195.308 82C194.711 82 194.248 81.9896 193.919 81.9687L191.942 81.9374L190.028 81.9687C189.678 81.9896 189.194 82 188.576 82C188.535 82 188.515 81.9374 188.515 81.8123C188.515 81.6873 188.535 81.6247 188.576 81.6247C189.235 81.6247 189.719 81.5726 190.028 81.4683C190.337 81.3641 190.542 81.166 190.645 80.8741C190.769 80.5614 190.831 80.0923 190.831 79.4668V69.897C190.831 69.2715 190.769 68.8129 190.645 68.521C190.542 68.2291 190.337 68.031 190.028 67.9268C189.719 67.8017 189.235 67.7391 188.576 67.7391C188.535 67.7391 188.515 67.6766 188.515 67.5515C188.515 67.4264 188.535 67.3638 188.576 67.3638L190.028 67.3951C190.81 67.4368 191.448 67.4577 191.942 67.4577C192.457 67.4577 193.126 67.4368 193.95 67.3951L195.308 67.3638C195.37 67.3638 195.401 67.4264 195.401 67.5515C195.401 67.6766 195.37 67.7391 195.308 67.7391C194.67 67.7391 194.197 67.8017 193.888 67.9268C193.6 68.0519 193.394 68.2708 193.27 68.5835C193.167 68.8754 193.116 69.3341 193.116 69.9596V79.4668Z" fill="white"/>
<path d="M204.766 82C204.725 82 204.704 81.9374 204.704 81.8123C204.704 81.6873 204.725 81.6247 204.766 81.6247C205.425 81.6247 205.909 81.5726 206.218 81.4683C206.526 81.3641 206.732 81.166 206.835 80.8741C206.959 80.5614 207.021 80.0923 207.021 79.4668V69.897C207.021 69.2715 206.959 68.8129 206.835 68.521C206.732 68.2291 206.526 68.031 206.218 67.9268C205.929 67.8017 205.466 67.7391 204.828 67.7391C204.766 67.7391 204.735 67.6766 204.735 67.5515C204.735 67.4264 204.766 67.3638 204.828 67.3638H221.936C221.977 67.3638 221.998 67.4264 221.998 67.5515C221.998 67.6766 221.977 67.7391 221.936 67.7391C221.277 67.7391 220.793 67.8017 220.484 67.9268C220.176 68.031 219.959 68.2291 219.836 68.521C219.733 68.8129 219.682 69.2715 219.682 69.897V79.4668C219.682 80.0923 219.733 80.5614 219.836 80.8741C219.959 81.166 220.176 81.3641 220.484 81.4683C220.793 81.5726 221.277 81.6247 221.936 81.6247C221.977 81.6247 221.998 81.6873 221.998 81.8123C221.998 81.9374 221.977 82 221.936 82C221.339 82 220.865 81.9896 220.515 81.9687L218.601 81.9374L216.624 81.9687C216.295 81.9896 215.842 82 215.266 82C215.204 82 215.173 81.9374 215.173 81.8123C215.173 81.6873 215.204 81.6247 215.266 81.6247C215.904 81.6247 216.367 81.5726 216.655 81.4683C216.964 81.3641 217.17 81.166 217.273 80.8741C217.396 80.5614 217.458 80.0923 217.458 79.4668V69.9596C217.458 69.4175 217.396 69.0109 217.273 68.7399C217.17 68.4688 216.964 68.2812 216.655 68.177C216.367 68.0727 215.904 68.0206 215.266 68.0206H211.467C210.829 68.0206 210.356 68.0727 210.047 68.177C209.759 68.2812 209.553 68.4688 209.429 68.7399C209.326 69.0109 209.275 69.4175 209.275 69.9596V79.4668C209.275 80.0923 209.326 80.5614 209.429 80.8741C209.532 81.166 209.728 81.3641 210.016 81.4683C210.325 81.5726 210.809 81.6247 211.467 81.6247C211.529 81.6247 211.56 81.6873 211.56 81.8123C211.56 81.9374 211.529 82 211.467 82C210.87 82 210.407 81.9896 210.078 81.9687L208.132 81.9374L206.218 81.9687C205.868 81.9896 205.384 82 204.766 82Z" fill="white"/>
<path d="M240.157 81.6247C240.26 81.6247 240.311 81.6873 240.311 81.8123C240.311 81.9374 240.26 82 240.157 82C239.766 82 239.158 81.9791 238.335 81.9374C237.47 81.8958 236.853 81.8749 236.482 81.8749C236.173 81.8749 235.71 81.8958 235.092 81.9374C234.516 81.9791 234.073 82 233.765 82C233.682 82 233.641 81.9374 233.641 81.8123C233.641 81.6873 233.682 81.6247 233.765 81.6247C234.279 81.6247 234.65 81.5622 234.876 81.4371C235.123 81.2911 235.247 81.0722 235.247 80.7803C235.247 80.405 235.113 79.9359 234.845 79.373L232.838 74.9947H228.731L227.465 78.1533C227.115 79.029 226.94 79.6962 226.94 80.1548C226.94 80.6761 227.115 81.0514 227.465 81.2807C227.835 81.51 228.402 81.6247 229.163 81.6247C229.266 81.6247 229.318 81.6873 229.318 81.8123C229.318 81.9374 229.266 82 229.163 82C228.855 82 228.432 81.9791 227.897 81.9374C227.321 81.8958 226.786 81.8749 226.291 81.8749C225.777 81.8749 225.169 81.8958 224.469 81.9374C223.852 81.9791 223.358 82 222.987 82C222.884 82 222.833 81.9374 222.833 81.8123C222.833 81.6873 222.884 81.6247 222.987 81.6247C223.625 81.6247 224.13 81.5309 224.5 81.3432C224.892 81.1556 225.242 80.8116 225.55 80.3112C225.88 79.79 226.271 78.9769 226.724 77.8719L231.232 66.8947C231.274 66.8113 231.335 66.7696 231.418 66.7696C231.5 66.7696 231.562 66.8113 231.603 66.8947L236.544 77.7155C237.079 78.8622 237.511 79.7066 237.841 80.2487C238.17 80.7699 238.5 81.1348 238.829 81.3432C239.179 81.5309 239.622 81.6247 240.157 81.6247ZM229.009 74.3379H232.529L230.646 70.241L229.009 74.3379Z" fill="white"/>
<path d="M260.526 81.6247C260.567 81.6247 260.588 81.6873 260.588 81.8123C260.588 81.9374 260.567 82 260.526 82C259.95 82 259.497 81.9896 259.167 81.9687L257.346 81.9374L255.246 81.9687C254.896 81.9896 254.412 82 253.794 82C253.753 82 253.732 81.9374 253.732 81.8123C253.732 81.6873 253.753 81.6247 253.794 81.6247C254.494 81.6247 255.009 81.5726 255.338 81.4683C255.688 81.3433 255.915 81.1348 256.018 80.8429C256.141 80.551 256.182 80.0923 256.141 79.4668L255.74 69.1777L250.583 81.7811C250.541 81.8645 250.469 81.9062 250.367 81.9062C250.243 81.9062 250.161 81.8645 250.119 81.7811L244.19 70.0534L243.974 78.4035C243.954 79.5502 244.098 80.3738 244.407 80.8741C244.736 81.3745 245.292 81.6247 246.074 81.6247C246.136 81.6247 246.167 81.6873 246.167 81.8123C246.167 81.9374 246.136 82 246.074 82C245.621 82 245.271 81.9896 245.024 81.9687L243.635 81.9374L242.276 81.9687C242.008 81.9896 241.627 82 241.133 82C241.092 82 241.071 81.9374 241.071 81.8123C241.071 81.6873 241.092 81.6247 241.133 81.6247C241.895 81.6247 242.44 81.3849 242.77 80.9054C243.12 80.405 243.315 79.5711 243.357 78.4035L243.604 69.0214C242.986 68.1665 242.224 67.7391 241.318 67.7391C241.257 67.7391 241.226 67.6766 241.226 67.5515C241.226 67.4264 241.257 67.3638 241.318 67.3638L243.295 67.3951L244.901 67.3638C245.168 67.3638 245.384 67.4681 245.549 67.6766C245.734 67.8642 246.002 68.3021 246.352 68.9901L251.231 78.7475L255.554 68.1457C255.637 67.9164 255.76 67.7287 255.925 67.5828C256.11 67.4368 256.296 67.3638 256.481 67.3638L258.21 67.3951L260.372 67.3638C260.413 67.3638 260.434 67.4264 260.434 67.5515C260.434 67.6766 260.413 67.7391 260.372 67.7391C259.507 67.7391 258.89 67.8851 258.519 68.177C258.148 68.448 257.994 69.0005 258.056 69.8345L258.488 79.4668C258.529 80.1131 258.591 80.5823 258.673 80.8741C258.776 81.166 258.962 81.3641 259.229 81.4683C259.497 81.5726 259.929 81.6247 260.526 81.6247Z" fill="white"/>
<path d="M263.63 62.2975C264.269 62.2975 264.773 62.5477 265.144 63.048C265.514 63.5484 265.699 64.2573 265.699 65.1747C265.699 66.0503 265.504 66.8635 265.113 67.614C264.742 68.3438 264.176 69.0839 263.414 69.8345C263.394 69.8553 263.363 69.8657 263.322 69.8657C263.26 69.8657 263.208 69.8345 263.167 69.7719C263.126 69.7094 263.126 69.6573 263.167 69.6156C264.176 68.5731 264.68 67.343 264.68 65.9252C264.68 65.3415 264.577 64.9141 264.372 64.643C264.186 64.9557 263.847 65.1121 263.353 65.1121C262.941 65.1121 262.611 64.987 262.364 64.7368C262.138 64.4658 262.025 64.1218 262.025 63.7048C262.025 63.2461 262.158 62.9021 262.426 62.6728C262.714 62.4226 263.116 62.2975 263.63 62.2975Z" fill="white"/>
<path d="M281.825 81.6247C281.866 81.6247 281.886 81.6873 281.886 81.8123C281.886 81.9374 281.866 82 281.825 82C281.207 82 280.723 81.9896 280.373 81.9687L278.49 81.9374L276.513 81.9687C276.184 81.9896 275.721 82 275.124 82C275.082 82 275.062 81.9374 275.062 81.8123C275.062 81.6873 275.082 81.6247 275.124 81.6247C275.782 81.6247 276.256 81.5726 276.544 81.4683C276.853 81.3641 277.059 81.166 277.162 80.8741C277.265 80.5614 277.316 80.0923 277.316 79.4668V75.0259C276.41 75.0468 275.669 75.1719 275.093 75.4012C274.516 75.6306 273.991 76.0371 273.518 76.6209C273.065 77.1838 272.602 77.9969 272.128 79.0603C271.716 79.9568 271.397 80.6135 271.171 81.0305C270.944 81.4266 270.759 81.6873 270.615 81.8123C270.491 81.9374 270.347 82 270.183 82H266.662C266.621 82 266.601 81.9374 266.601 81.8123C266.601 81.6873 266.621 81.6247 266.662 81.6247C267.465 81.6247 268.103 81.3745 268.577 80.8741C269.071 80.3529 269.555 79.5919 270.028 78.5911C270.564 77.4027 271.212 76.5271 271.974 75.9641C272.735 75.4012 273.693 75.0676 274.846 74.9634C273.137 74.8383 271.912 74.4526 271.171 73.8063C270.45 73.1391 270.09 72.253 270.09 71.148C270.09 69.9804 270.564 69.0422 271.511 68.3333C272.478 67.6245 273.765 67.27 275.371 67.27C275.741 67.27 276.194 67.3013 276.729 67.3638C276.935 67.3847 277.182 67.4055 277.471 67.4264C277.779 67.4472 278.119 67.4577 278.49 67.4577C278.963 67.4577 279.591 67.4368 280.373 67.3951L281.825 67.3638C281.866 67.3638 281.886 67.4264 281.886 67.5515C281.886 67.6766 281.866 67.7391 281.825 67.7391C281.166 67.7391 280.682 67.8017 280.373 67.9268C280.064 68.031 279.848 68.2291 279.725 68.521C279.622 68.8129 279.57 69.2715 279.57 69.897V79.4668C279.57 80.0923 279.622 80.5614 279.725 80.8741C279.848 81.166 280.064 81.3641 280.373 81.4683C280.682 81.5726 281.166 81.6247 281.825 81.6247ZM276.05 74.5568C276.503 74.5568 276.925 74.5256 277.316 74.463V69.9596C277.316 69.1048 277.162 68.5106 276.853 68.177C276.544 67.8434 276.04 67.6766 275.34 67.6766C273.302 67.6766 272.283 68.6044 272.283 70.46C272.283 71.6901 272.612 72.6804 273.271 73.431C273.93 74.1815 274.856 74.5568 276.05 74.5568Z" fill="white"/>
<path d="M287.604 67.8329C286.575 67.8329 285.782 68.1248 285.226 68.7086C284.671 69.2715 284.248 70.2098 283.96 71.5233C283.96 71.565 283.899 71.5858 283.775 71.5858C283.672 71.5858 283.621 71.565 283.621 71.5233C283.703 70.8769 283.785 70.043 283.868 69.0214C283.95 67.9997 283.991 67.2179 283.991 66.6758C283.991 66.5716 284.043 66.5194 284.146 66.5194C284.269 66.5194 284.331 66.5716 284.331 66.6758C284.331 66.9469 284.485 67.1241 284.794 67.2075C285.103 67.27 285.494 67.3013 285.967 67.3013C287.738 67.343 289.292 67.3638 290.63 67.3638L293.317 67.3326C293.667 67.3117 294.141 67.3013 294.738 67.3013C295.52 67.3013 296.086 67.2596 296.436 67.1762C296.807 67.0719 297.043 66.8635 297.146 66.5507C297.187 66.4882 297.26 66.4569 297.362 66.4569C297.465 66.4569 297.517 66.4882 297.517 66.5507C297.373 69.2403 297.301 70.8978 297.301 71.5233C297.301 71.565 297.239 71.5858 297.115 71.5858C297.012 71.5858 296.961 71.565 296.961 71.5233C296.879 70.2515 296.57 69.3237 296.035 68.7399C295.499 68.1353 294.707 67.8329 293.657 67.8329C292.895 67.8329 292.391 67.9789 292.144 68.2708C291.897 68.5418 291.773 69.0839 291.773 69.897V79.4668C291.773 80.1131 291.825 80.5823 291.927 80.8741C292.051 81.166 292.288 81.3641 292.638 81.4683C292.988 81.5726 293.544 81.6247 294.305 81.6247C294.346 81.6247 294.367 81.6873 294.367 81.8123C294.367 81.9374 294.346 82 294.305 82C293.626 82 293.101 81.9896 292.73 81.9687L290.569 81.9374L288.438 81.9687C288.047 81.9896 287.512 82 286.832 82C286.791 82 286.77 81.9374 286.77 81.8123C286.77 81.6873 286.791 81.6247 286.832 81.6247C287.594 81.6247 288.15 81.5726 288.5 81.4683C288.85 81.3641 289.086 81.166 289.21 80.8741C289.354 80.5614 289.426 80.0923 289.426 79.4668V69.8345C289.426 69.2507 289.385 68.8233 289.303 68.5522C289.22 68.2812 289.056 68.0936 288.809 67.9893C288.561 67.8851 288.16 67.8329 287.604 67.8329Z" fill="white"/> -->
<path d="M316.51 81.6247C316.551 81.6247 316.572 81.6873 316.572 81.8123C316.572 81.9374 316.551 82 316.51 82C315.892 82 315.408 81.9896 315.059 81.9687L313.175 81.9374L311.198 81.9687C310.869 81.9896 310.406 82 309.809 82C309.747 82 309.716 81.9374 309.716 81.8123C309.716 81.6873 309.747 81.6247 309.809 81.6247C310.468 81.6247 310.941 81.5726 311.229 81.4683C311.538 81.3641 311.744 81.166 311.847 80.8741C311.95 80.5614 312.001 80.0923 312.001 79.4668V74.9321H303.756V79.4668C303.756 80.0923 303.808 80.5614 303.911 80.8741C304.014 81.166 304.209 81.3641 304.497 81.4683C304.806 81.5726 305.29 81.6247 305.949 81.6247C306.01 81.6247 306.041 81.6873 306.041 81.8123C306.041 81.9374 306.01 82 305.949 82C305.352 82 304.888 81.9896 304.559 81.9687L302.614 81.9374L300.699 81.9687C300.349 81.9896 299.865 82 299.248 82C299.206 82 299.186 81.9374 299.186 81.8123C299.186 81.6873 299.206 81.6247 299.248 81.6247C299.906 81.6247 300.39 81.5726 300.699 81.4683C301.008 81.3641 301.214 81.166 301.317 80.8741C301.44 80.5614 301.502 80.0923 301.502 79.4668V69.897C301.502 69.2715 301.44 68.8129 301.317 68.521C301.214 68.2291 301.008 68.031 300.699 67.9268C300.411 67.8017 299.948 67.7391 299.309 67.7391C299.248 67.7391 299.217 67.6766 299.217 67.5515C299.217 67.4264 299.248 67.3638 299.309 67.3638L300.699 67.3951C301.481 67.4368 302.12 67.4577 302.614 67.4577C303.108 67.4577 303.766 67.4368 304.59 67.3951L305.949 67.3638C306.01 67.3638 306.041 67.4264 306.041 67.5515C306.041 67.6766 306.01 67.7391 305.949 67.7391C305.31 67.7391 304.837 67.8017 304.528 67.9268C304.24 68.0519 304.034 68.2708 303.911 68.5835C303.808 68.8754 303.756 69.3341 303.756 69.9596V74.3066H312.001V69.9596C312.001 69.3341 311.95 68.8754 311.847 68.5835C311.744 68.2708 311.538 68.0519 311.229 67.9268C310.921 67.8017 310.447 67.7391 309.809 67.7391C309.747 67.7391 309.716 67.6766 309.716 67.5515C309.716 67.4264 309.747 67.3638 309.809 67.3638L311.198 67.3951C311.981 67.4368 312.639 67.4577 313.175 67.4577C313.648 67.4577 314.276 67.4368 315.059 67.3951L316.51 67.3638C316.551 67.3638 316.572 67.4264 316.572 67.5515C316.572 67.6766 316.551 67.7391 316.51 67.7391C315.851 67.7391 315.367 67.8017 315.059 67.9268C314.75 68.031 314.534 68.2291 314.41 68.521C314.307 68.8129 314.256 69.2715 314.256 69.897V79.4668C314.256 80.0923 314.307 80.5614 314.41 80.8741C314.534 81.166 314.75 81.3641 315.059 81.4683C315.367 81.5726 315.851 81.6247 316.51 81.6247Z" fill="white"/>
<path d="M335.81 81.6247C335.851 81.6247 335.872 81.6873 335.872 81.8123C335.872 81.9374 335.851 82 335.81 82C335.193 82 334.709 81.9896 334.359 81.9687L332.475 81.9374L330.499 81.9687C330.169 81.9896 329.706 82 329.109 82C329.047 82 329.017 81.9374 329.017 81.8123C329.017 81.6873 329.047 81.6247 329.109 81.6247C329.768 81.6247 330.241 81.5726 330.53 81.4683C330.839 81.3641 331.044 81.166 331.147 80.8741C331.25 80.5614 331.302 80.0923 331.302 79.4668V71.0229L323.057 79.3417V79.4668C323.057 80.0923 323.108 80.5614 323.211 80.8741C323.314 81.166 323.51 81.3641 323.798 81.4683C324.107 81.5726 324.59 81.6247 325.249 81.6247C325.311 81.6247 325.342 81.6873 325.342 81.8123C325.342 81.9374 325.311 82 325.249 82C324.652 82 324.189 81.9896 323.859 81.9687L321.914 81.9374L319.999 81.9687C319.649 81.9896 319.166 82 318.548 82C318.507 82 318.486 81.9374 318.486 81.8123C318.486 81.6873 318.507 81.6247 318.548 81.6247C319.207 81.6247 319.691 81.5726 319.999 81.4683C320.308 81.3641 320.514 81.166 320.617 80.8741C320.741 80.5614 320.802 80.0923 320.802 79.4668V69.897C320.802 69.2715 320.741 68.8129 320.617 68.521C320.514 68.2291 320.308 68.031 319.999 67.9268C319.711 67.8017 319.248 67.7391 318.61 67.7391C318.548 67.7391 318.517 67.6766 318.517 67.5515C318.517 67.4264 318.548 67.3638 318.61 67.3638L319.999 67.3951C320.782 67.4368 321.42 67.4577 321.914 67.4577C322.408 67.4577 323.067 67.4368 323.89 67.3951L325.249 67.3638C325.311 67.3638 325.342 67.4264 325.342 67.5515C325.342 67.6766 325.311 67.7391 325.249 67.7391C324.611 67.7391 324.137 67.8017 323.829 67.9268C323.54 68.0519 323.335 68.2708 323.211 68.5835C323.108 68.8754 323.057 69.3341 323.057 69.9596V78.3722L331.302 70.0221V69.9596C331.302 69.3341 331.25 68.8754 331.147 68.5835C331.044 68.2708 330.839 68.0519 330.53 67.9268C330.221 67.8017 329.747 67.7391 329.109 67.7391C329.047 67.7391 329.017 67.6766 329.017 67.5515C329.017 67.4264 329.047 67.3638 329.109 67.3638L330.499 67.3951C331.281 67.4368 331.94 67.4577 332.475 67.4577C332.949 67.4577 333.577 67.4368 334.359 67.3951L335.81 67.3638C335.851 67.3638 335.872 67.4264 335.872 67.5515C335.872 67.6766 335.851 67.7391 335.81 67.7391C335.151 67.7391 334.668 67.8017 334.359 67.9268C334.05 68.031 333.834 68.2291 333.71 68.521C333.607 68.8129 333.556 69.2715 333.556 69.897V79.4668C333.556 80.0923 333.607 80.5614 333.71 80.8741C333.834 81.166 334.05 81.3641 334.359 81.4683C334.668 81.5726 335.151 81.6247 335.81 81.6247Z" fill="white"/>
<path d="M353.721 81.6247C353.762 81.6247 353.783 81.6873 353.783 81.8123C353.783 81.9374 353.762 82 353.721 82H350.201C349.871 82 349.614 81.9479 349.429 81.8436C349.264 81.7394 349.058 81.51 348.811 81.1556C348.585 80.7803 348.132 80.0193 347.452 78.8726L347.051 78.2159C346.371 77.0275 345.877 76.2143 345.569 75.7765C345.28 75.3387 344.951 75.0364 344.58 74.8696C344.23 74.6819 343.736 74.5881 343.098 74.5881L342.357 74.6194V79.4668C342.357 80.0923 342.408 80.5614 342.511 80.8741C342.614 81.166 342.81 81.3641 343.098 81.4683C343.407 81.5726 343.891 81.6247 344.549 81.6247C344.611 81.6247 344.642 81.6873 344.642 81.8123C344.642 81.9374 344.611 82 344.549 82C343.952 82 343.489 81.9896 343.16 81.9687L341.214 81.9374L339.3 81.9687C338.95 81.9896 338.466 82 337.848 82C337.807 82 337.787 81.9374 337.787 81.8123C337.787 81.6873 337.807 81.6247 337.848 81.6247C338.507 81.6247 338.991 81.5726 339.3 81.4683C339.609 81.3641 339.814 81.166 339.917 80.8741C340.041 80.5614 340.103 80.0923 340.103 79.4668V69.897C340.103 69.2715 340.041 68.8129 339.917 68.521C339.814 68.2291 339.609 68.031 339.3 67.9268C339.012 67.8017 338.548 67.7391 337.91 67.7391C337.848 67.7391 337.818 67.6766 337.818 67.5515C337.818 67.4264 337.848 67.3638 337.91 67.3638L339.3 67.3951C340.082 67.4368 340.72 67.4577 341.214 67.4577C341.708 67.4577 342.367 67.4368 343.191 67.3951L344.549 67.3638C344.611 67.3638 344.642 67.4264 344.642 67.5515C344.642 67.6766 344.611 67.7391 344.549 67.7391C343.911 67.7391 343.438 67.8017 343.129 67.9268C342.841 68.0519 342.635 68.2708 342.511 68.5835C342.408 68.8754 342.357 69.3341 342.357 69.9596V74.0252L343.469 73.9626C344.21 73.9001 344.776 73.8792 345.167 73.9001L347.143 71.0229C347.885 69.897 348.255 69.0839 348.255 68.5835C348.255 68.0206 347.802 67.7391 346.896 67.7391C346.835 67.7391 346.804 67.6766 346.804 67.5515C346.804 67.4264 346.835 67.3638 346.896 67.3638L348.163 67.3951C348.904 67.4368 349.624 67.4577 350.324 67.4577C350.839 67.4577 351.405 67.4368 352.023 67.3951L352.98 67.3638C353.042 67.3638 353.073 67.4264 353.073 67.5515C353.073 67.6766 353.042 67.7391 352.98 67.7391C352.074 67.7391 351.209 68.0206 350.386 68.5835C349.562 69.1464 348.749 69.9804 347.946 71.0854L345.877 73.9626C346.474 74.0669 346.968 74.3588 347.36 74.8383C347.771 75.297 348.389 76.2248 349.212 77.6217C350.139 79.1437 350.911 80.1861 351.529 80.749C352.167 81.2911 352.898 81.583 353.721 81.6247Z" fill="white"/>
<path d="M372.029 81.6247C372.07 81.6247 372.09 81.6873 372.09 81.8123C372.09 81.9374 372.07 82 372.029 82C371.411 82 370.927 81.9896 370.577 81.9687L368.694 81.9374L366.717 81.9687C366.388 81.9896 365.925 82 365.328 82C365.266 82 365.235 81.9374 365.235 81.8123C365.235 81.6873 365.266 81.6247 365.328 81.6247C365.986 81.6247 366.46 81.5726 366.748 81.4683C367.057 81.3641 367.263 81.166 367.366 80.8741C367.469 80.5614 367.52 80.0923 367.52 79.4668V71.0229L359.275 79.3417V79.4668C359.275 80.0923 359.326 80.5614 359.429 80.8741C359.532 81.166 359.728 81.3641 360.016 81.4683C360.325 81.5726 360.809 81.6247 361.467 81.6247C361.529 81.6247 361.56 81.6873 361.56 81.8123C361.56 81.9374 361.529 82 361.467 82C360.87 82 360.407 81.9896 360.078 81.9687L358.132 81.9374L356.218 81.9687C355.868 81.9896 355.384 82 354.766 82C354.725 82 354.705 81.9374 354.705 81.8123C354.705 81.6873 354.725 81.6247 354.766 81.6247C355.425 81.6247 355.909 81.5726 356.218 81.4683C356.527 81.3641 356.732 81.166 356.835 80.8741C356.959 80.5614 357.021 80.0923 357.021 79.4668V69.897C357.021 69.2715 356.959 68.8129 356.835 68.521C356.732 68.2291 356.527 68.031 356.218 67.9268C355.93 67.8017 355.466 67.7391 354.828 67.7391C354.766 67.7391 354.735 67.6766 354.735 67.5515C354.735 67.4264 354.766 67.3638 354.828 67.3638L356.218 67.3951C357 67.4368 357.638 67.4577 358.132 67.4577C358.626 67.4577 359.285 67.4368 360.109 67.3951L361.467 67.3638C361.529 67.3638 361.56 67.4264 361.56 67.5515C361.56 67.6766 361.529 67.7391 361.467 67.7391C360.829 67.7391 360.356 67.8017 360.047 67.9268C359.759 68.0519 359.553 68.2708 359.429 68.5835C359.326 68.8754 359.275 69.3341 359.275 69.9596V78.3722L367.52 70.0221V69.9596C367.52 69.3341 367.469 68.8754 367.366 68.5835C367.263 68.2708 367.057 68.0519 366.748 67.9268C366.439 67.8017 365.966 67.7391 365.328 67.7391C365.266 67.7391 365.235 67.6766 365.235 67.5515C365.235 67.4264 365.266 67.3638 365.328 67.3638L366.717 67.3951C367.5 67.4368 368.158 67.4577 368.694 67.4577C369.167 67.4577 369.795 67.4368 370.577 67.3951L372.029 67.3638C372.07 67.3638 372.09 67.4264 372.09 67.5515C372.09 67.6766 372.07 67.7391 372.029 67.7391C371.37 67.7391 370.886 67.8017 370.577 67.9268C370.268 68.031 370.052 68.2291 369.929 68.521C369.826 68.8129 369.774 69.2715 369.774 69.897V79.4668C369.774 80.0923 369.826 80.5614 369.929 80.8741C370.052 81.166 370.268 81.3641 370.577 81.4683C370.886 81.5726 371.37 81.6247 372.029 81.6247Z" fill="white"/>
</svg>