<svg width="20" height="20" viewBox="0 0 20 20" fill="none" xmlns="http://www.w3.org/2000/svg">
<path d="M19.7734 3.19105L12.9401 10.0469L19.7891 16.8142C20.0703 17.0953 20.0703 17.5534 19.7891 17.8345L17.8411 19.7918C17.7057 19.9271 17.5234 20 17.3307 20C17.138 20 16.9557 19.9219 16.8203 19.7918L10.0026 13.0453L3.17448 19.7866C3.03906 19.9219 2.85677 19.9948 2.66406 19.9948C2.47135 19.9948 2.28906 19.9167 2.15365 19.7866L0.210938 17.8293C-0.0703125 17.5482 -0.0703125 17.0901 0.210938 16.809L7.0599 10.0416L0.231771 3.19105C0.0963543 3.0557 0.0182293 2.8735 0.0182293 2.68089C0.0182293 2.48829 0.0911459 2.30609 0.231771 2.17074L2.17969 0.213432C2.32031 0.0728798 2.5026 0 2.6901 0C2.8724 0 3.0599 0.0676746 3.20052 0.213432L10.0026 7.04321L16.8099 0.218637C16.9505 0.0780849 17.1328 0.00520706 17.3203 0.00520706C17.5026 0.00520706 17.6901 0.0728798 17.8307 0.218637L19.7786 2.17595C19.9141 2.31129 19.9922 2.49349 19.9922 2.6861C19.987 2.8735 19.9089 3.0557 19.7734 3.19105Z" fill="#AB0000"/>
</svg>
