<svg width="454" height="82" viewBox="0 0 454 82" fill="none" xmlns="http://www.w3.org/2000/svg">
<path d="M80.2831 82C80.2419 82 80.2213 81.9374 80.2213 81.8123C80.2213 81.6873 80.2419 81.6247 80.2831 81.6247C81.0448 81.6247 81.6007 81.5726 81.9506 81.4683C82.3212 81.3641 82.5683 81.166 82.6918 80.8741C82.8153 80.5614 82.8771 80.0923 82.8771 79.4668V64.987C82.8771 64.3616 82.8153 63.9029 82.6918 63.611C82.5683 63.3191 82.3315 63.121 81.9815 63.0168C81.6521 62.8917 81.1272 62.8291 80.4066 62.8291C80.3448 62.8291 80.314 62.7666 80.314 62.6415C80.314 62.5164 80.3448 62.4539 80.4066 62.4539H93.5617C93.7676 62.4539 93.8706 62.5477 93.8706 62.7353L93.9323 67.1762C93.9323 67.2387 93.8706 67.2804 93.747 67.3013C93.6441 67.3013 93.5823 67.27 93.5617 67.2075C93.4176 65.894 92.9956 64.9036 92.2956 64.2365C91.6163 63.5484 90.7104 63.2044 89.5781 63.2044H87.6327C86.7474 63.2044 86.1401 63.3295 85.8107 63.5797C85.5019 63.8299 85.3475 64.3094 85.3475 65.0183V79.3417C85.3475 80.0089 85.4298 80.4989 85.5945 80.8116C85.7798 81.1035 86.1195 81.312 86.6136 81.4371C87.1077 81.5622 87.89 81.6247 88.9605 81.6247C89.0017 81.6247 89.0223 81.6873 89.0223 81.8123C89.0223 81.9374 89.0017 82 88.9605 82C88.1165 82 87.4577 81.9896 86.9842 81.9687L84.0814 81.9374L81.9198 81.9687C81.5286 81.9896 80.983 82 80.2831 82Z" fill="white"/>
<path d="M99.4428 79.3417C99.4428 79.988 99.5149 80.4676 99.659 80.7803C99.8031 81.093 100.071 81.312 100.462 81.4371C100.874 81.5622 101.512 81.6247 102.376 81.6247C102.438 81.6247 102.469 81.6873 102.469 81.8123C102.469 81.9374 102.438 82 102.376 82C101.635 82 101.049 81.9896 100.616 81.9687L98.3311 81.9374L96.4165 81.9687C96.0665 81.9896 95.5827 82 94.9651 82C94.924 82 94.9034 81.9374 94.9034 81.8123C94.9034 81.6873 94.924 81.6247 94.9651 81.6247C95.6033 81.6247 96.0768 81.5726 96.3856 81.4683C96.6944 81.3641 96.9003 81.166 97.0032 80.8741C97.1268 80.5614 97.1885 80.0923 97.1885 79.4668V69.897C97.1885 69.2715 97.1268 68.8129 97.0032 68.521C96.9003 68.2291 96.6944 68.031 96.3856 67.9268C96.0768 67.8017 95.6033 67.7391 94.9651 67.7391C94.924 67.7391 94.9034 67.6766 94.9034 67.5515C94.9034 67.4264 94.924 67.3638 94.9651 67.3638L96.3856 67.3951C97.2091 67.4368 97.8473 67.4577 98.3002 67.4577C98.8149 67.4577 99.4016 67.4264 100.06 67.3638C100.287 67.343 100.555 67.3221 100.863 67.3013C101.193 67.2804 101.553 67.27 101.944 67.27C105.403 67.27 107.132 68.5106 107.132 70.9916C107.132 71.9924 106.875 72.8472 106.36 73.5561C105.866 74.2441 105.228 74.7653 104.445 75.1198C103.663 75.4533 102.85 75.6201 102.006 75.6201C101.512 75.6201 101.131 75.5889 100.863 75.5263C100.802 75.4846 100.771 75.4116 100.771 75.3074C100.771 75.1823 100.822 75.1198 100.925 75.1198C101.049 75.1198 101.172 75.1302 101.296 75.151C101.44 75.1719 101.594 75.1823 101.759 75.1823C102.582 75.1823 103.262 74.88 103.797 74.2754C104.332 73.6707 104.6 72.7951 104.6 71.6484C104.6 70.3349 104.301 69.3549 103.704 68.7086C103.107 68.0623 102.274 67.7391 101.203 67.7391C100.75 67.7391 100.4 67.7913 100.153 67.8955C99.9266 67.9789 99.7516 68.177 99.6281 68.4897C99.5046 68.8024 99.4428 69.2924 99.4428 69.9596V79.3417Z" fill="white"/>
<path d="M124.204 81.6247C124.307 81.6247 124.358 81.6873 124.358 81.8123C124.358 81.9374 124.307 82 124.204 82C123.813 82 123.205 81.9791 122.382 81.9374C121.517 81.8958 120.9 81.8749 120.529 81.8749C120.22 81.8749 119.757 81.8958 119.139 81.9374C118.563 81.9791 118.12 82 117.811 82C117.729 82 117.688 81.9374 117.688 81.8123C117.688 81.6873 117.729 81.6247 117.811 81.6247C118.326 81.6247 118.697 81.5622 118.923 81.4371C119.17 81.2911 119.294 81.0722 119.294 80.7803C119.294 80.405 119.16 79.9359 118.892 79.373L116.885 74.9947H112.778L111.512 78.1533C111.162 79.029 110.987 79.6962 110.987 80.1548C110.987 80.6761 111.162 81.0514 111.512 81.2807C111.882 81.51 112.449 81.6247 113.21 81.6247C113.313 81.6247 113.365 81.6873 113.365 81.8123C113.365 81.9374 113.313 82 113.21 82C112.901 82 112.479 81.9791 111.944 81.9374C111.368 81.8958 110.832 81.8749 110.338 81.8749C109.824 81.8749 109.216 81.8958 108.516 81.9374C107.899 81.9791 107.405 82 107.034 82C106.931 82 106.88 81.9374 106.88 81.8123C106.88 81.6873 106.931 81.6247 107.034 81.6247C107.672 81.6247 108.177 81.5309 108.547 81.3432C108.938 81.1556 109.288 80.8116 109.597 80.3112C109.927 79.79 110.318 78.9769 110.771 77.8719L115.279 66.8947C115.32 66.8113 115.382 66.7696 115.465 66.7696C115.547 66.7696 115.609 66.8113 115.65 66.8947L120.591 77.7155C121.126 78.8622 121.558 79.7066 121.888 80.2487C122.217 80.7699 122.547 81.1348 122.876 81.3432C123.226 81.5309 123.669 81.6247 124.204 81.6247ZM113.056 74.3379H116.576L114.693 70.241L113.056 74.3379Z" fill="white"/>
<path d="M142.535 81.6247C142.576 81.6247 142.597 81.6873 142.597 81.8123C142.597 81.9374 142.576 82 142.535 82C141.917 82 141.434 81.9896 141.084 81.9687L139.2 81.9374L137.224 81.9687C136.894 81.9896 136.431 82 135.834 82C135.772 82 135.741 81.9374 135.741 81.8123C135.741 81.6873 135.772 81.6247 135.834 81.6247C136.493 81.6247 136.966 81.5726 137.254 81.4683C137.563 81.3641 137.769 81.166 137.872 80.8741C137.975 80.5614 138.026 80.0923 138.026 79.4668V74.9321H129.781V79.4668C129.781 80.0923 129.833 80.5614 129.936 80.8741C130.039 81.166 130.234 81.3641 130.522 81.4683C130.831 81.5726 131.315 81.6247 131.974 81.6247C132.036 81.6247 132.066 81.6873 132.066 81.8123C132.066 81.9374 132.036 82 131.974 82C131.377 82 130.914 81.9896 130.584 81.9687L128.639 81.9374L126.724 81.9687C126.374 81.9896 125.89 82 125.273 82C125.232 82 125.211 81.9374 125.211 81.8123C125.211 81.6873 125.232 81.6247 125.273 81.6247C125.932 81.6247 126.415 81.5726 126.724 81.4683C127.033 81.3641 127.239 81.166 127.342 80.8741C127.465 80.5614 127.527 80.0923 127.527 79.4668V69.897C127.527 69.2715 127.465 68.8129 127.342 68.521C127.239 68.2291 127.033 68.031 126.724 67.9268C126.436 67.8017 125.973 67.7391 125.335 67.7391C125.273 67.7391 125.242 67.6766 125.242 67.5515C125.242 67.4264 125.273 67.3638 125.335 67.3638L126.724 67.3951C127.506 67.4368 128.145 67.4577 128.639 67.4577C129.133 67.4577 129.792 67.4368 130.615 67.3951L131.974 67.3638C132.036 67.3638 132.066 67.4264 132.066 67.5515C132.066 67.6766 132.036 67.7391 131.974 67.7391C131.336 67.7391 130.862 67.8017 130.553 67.9268C130.265 68.0519 130.059 68.2708 129.936 68.5835C129.833 68.8754 129.781 69.3341 129.781 69.9596V74.3066H138.026V69.9596C138.026 69.3341 137.975 68.8754 137.872 68.5835C137.769 68.2708 137.563 68.0519 137.254 67.9268C136.946 67.8017 136.472 67.7391 135.834 67.7391C135.772 67.7391 135.741 67.6766 135.741 67.5515C135.741 67.4264 135.772 67.3638 135.834 67.3638L137.224 67.3951C138.006 67.4368 138.665 67.4577 139.2 67.4577C139.673 67.4577 140.301 67.4368 141.084 67.3951L142.535 67.3638C142.576 67.3638 142.597 67.4264 142.597 67.5515C142.597 67.6766 142.576 67.7391 142.535 67.7391C141.876 67.7391 141.392 67.8017 141.084 67.9268C140.775 68.031 140.559 68.2291 140.435 68.521C140.332 68.8129 140.281 69.2715 140.281 69.897V79.4668C140.281 80.0923 140.332 80.5614 140.435 80.8741C140.559 81.166 140.775 81.3641 141.084 81.4683C141.392 81.5726 141.876 81.6247 142.535 81.6247Z" fill="white"/>
<path d="M149.298 79.4668C149.298 80.0923 149.349 80.5614 149.452 80.8741C149.555 81.166 149.751 81.3641 150.039 81.4683C150.348 81.5726 150.832 81.6247 151.49 81.6247C151.552 81.6247 151.583 81.6873 151.583 81.8123C151.583 81.9374 151.552 82 151.49 82C150.893 82 150.43 81.9896 150.101 81.9687L148.124 81.9374L146.21 81.9687C145.86 81.9896 145.376 82 144.758 82C144.717 82 144.697 81.9374 144.697 81.8123C144.697 81.6873 144.717 81.6247 144.758 81.6247C145.417 81.6247 145.901 81.5726 146.21 81.4683C146.519 81.3641 146.724 81.166 146.827 80.8741C146.951 80.5614 147.013 80.0923 147.013 79.4668V69.897C147.013 69.2715 146.951 68.8129 146.827 68.521C146.724 68.2291 146.519 68.031 146.21 67.9268C145.901 67.8017 145.417 67.7391 144.758 67.7391C144.717 67.7391 144.697 67.6766 144.697 67.5515C144.697 67.4264 144.717 67.3638 144.758 67.3638L146.21 67.3951C146.992 67.4368 147.63 67.4577 148.124 67.4577C148.639 67.4577 149.308 67.4368 150.132 67.3951L151.49 67.3638C151.552 67.3638 151.583 67.4264 151.583 67.5515C151.583 67.6766 151.552 67.7391 151.49 67.7391C150.852 67.7391 150.379 67.8017 150.07 67.9268C149.782 68.0519 149.576 68.2708 149.452 68.5835C149.349 68.8754 149.298 69.3341 149.298 69.9596V79.4668Z" fill="white"/>
<path d="M157.447 67.8329C156.418 67.8329 155.625 68.1248 155.069 68.7086C154.514 69.2715 154.092 70.2098 153.803 71.5233C153.803 71.565 153.742 71.5858 153.618 71.5858C153.515 71.5858 153.464 71.565 153.464 71.5233C153.546 70.8769 153.628 70.043 153.711 69.0214C153.793 67.9997 153.834 67.2179 153.834 66.6758C153.834 66.5716 153.886 66.5194 153.989 66.5194C154.112 66.5194 154.174 66.5716 154.174 66.6758C154.174 66.9469 154.328 67.1241 154.637 67.2075C154.946 67.27 155.337 67.3013 155.811 67.3013C157.581 67.343 159.135 67.3638 160.474 67.3638L163.16 67.3326C163.51 67.3117 163.984 67.3013 164.581 67.3013C165.363 67.3013 165.929 67.2596 166.279 67.1762C166.65 67.0719 166.886 66.8635 166.989 66.5507C167.031 66.4882 167.103 66.4569 167.205 66.4569C167.308 66.4569 167.36 66.4882 167.36 66.5507C167.216 69.2403 167.144 70.8978 167.144 71.5233C167.144 71.565 167.082 71.5858 166.958 71.5858C166.856 71.5858 166.804 71.565 166.804 71.5233C166.722 70.2515 166.413 69.3237 165.878 68.7399C165.342 68.1353 164.55 67.8329 163.5 67.8329C162.738 67.8329 162.234 67.9789 161.987 68.2708C161.74 68.5418 161.616 69.0839 161.616 69.897V79.4668C161.616 80.1131 161.668 80.5823 161.771 80.8741C161.894 81.166 162.131 81.3641 162.481 81.4683C162.831 81.5726 163.387 81.6247 164.148 81.6247C164.189 81.6247 164.21 81.6873 164.21 81.8123C164.21 81.9374 164.189 82 164.148 82C163.469 82 162.944 81.9896 162.573 81.9687L160.412 81.9374L158.281 81.9687C157.89 81.9896 157.355 82 156.675 82C156.634 82 156.613 81.9374 156.613 81.8123C156.613 81.6873 156.634 81.6247 156.675 81.6247C157.437 81.6247 157.993 81.5726 158.343 81.4683C158.693 81.3641 158.93 81.166 159.053 80.8741C159.197 80.5614 159.269 80.0923 159.269 79.4668V69.8345C159.269 69.2507 159.228 68.8233 159.146 68.5522C159.063 68.2812 158.899 68.0936 158.652 67.9893C158.405 67.8851 158.003 67.8329 157.447 67.8329Z" fill="white"/>
<path d="M186.353 81.6247C186.394 81.6247 186.415 81.6873 186.415 81.8123C186.415 81.9374 186.394 82 186.353 82C185.735 82 185.252 81.9896 184.902 81.9687L183.018 81.9374L181.041 81.9687C180.712 81.9896 180.249 82 179.652 82C179.59 82 179.559 81.9374 179.559 81.8123C179.559 81.6873 179.59 81.6247 179.652 81.6247C180.311 81.6247 180.784 81.5726 181.072 81.4683C181.381 81.3641 181.587 81.166 181.69 80.8741C181.793 80.5614 181.844 80.0923 181.844 79.4668V74.9321H173.599V79.4668C173.599 80.0923 173.651 80.5614 173.754 80.8741C173.857 81.166 174.052 81.3641 174.34 81.4683C174.649 81.5726 175.133 81.6247 175.792 81.6247C175.854 81.6247 175.884 81.6873 175.884 81.8123C175.884 81.9374 175.854 82 175.792 82C175.195 82 174.732 81.9896 174.402 81.9687L172.457 81.9374L170.542 81.9687C170.192 81.9896 169.708 82 169.091 82C169.049 82 169.029 81.9374 169.029 81.8123C169.029 81.6873 169.049 81.6247 169.091 81.6247C169.749 81.6247 170.233 81.5726 170.542 81.4683C170.851 81.3641 171.057 81.166 171.16 80.8741C171.283 80.5614 171.345 80.0923 171.345 79.4668V69.897C171.345 69.2715 171.283 68.8129 171.16 68.521C171.057 68.2291 170.851 68.031 170.542 67.9268C170.254 67.8017 169.791 67.7391 169.152 67.7391C169.091 67.7391 169.06 67.6766 169.06 67.5515C169.06 67.4264 169.091 67.3638 169.152 67.3638L170.542 67.3951C171.324 67.4368 171.963 67.4577 172.457 67.4577C172.951 67.4577 173.61 67.4368 174.433 67.3951L175.792 67.3638C175.854 67.3638 175.884 67.4264 175.884 67.5515C175.884 67.6766 175.854 67.7391 175.792 67.7391C175.154 67.7391 174.68 67.8017 174.371 67.9268C174.083 68.0519 173.877 68.2708 173.754 68.5835C173.651 68.8754 173.599 69.3341 173.599 69.9596V74.3066H181.844V69.9596C181.844 69.3341 181.793 68.8754 181.69 68.5835C181.587 68.2708 181.381 68.0519 181.072 67.9268C180.764 67.8017 180.29 67.7391 179.652 67.7391C179.59 67.7391 179.559 67.6766 179.559 67.5515C179.559 67.4264 179.59 67.3638 179.652 67.3638L181.041 67.3951C181.824 67.4368 182.483 67.4577 183.018 67.4577C183.491 67.4577 184.119 67.4368 184.902 67.3951L186.353 67.3638C186.394 67.3638 186.415 67.4264 186.415 67.5515C186.415 67.6766 186.394 67.7391 186.353 67.7391C185.694 67.7391 185.21 67.8017 184.902 67.9268C184.593 68.031 184.377 68.2291 184.253 68.521C184.15 68.8129 184.099 69.2715 184.099 69.897V79.4668C184.099 80.0923 184.15 80.5614 184.253 80.8741C184.377 81.166 184.593 81.3641 184.902 81.4683C185.21 81.5726 185.694 81.6247 186.353 81.6247Z" fill="white"/>
<path d="M193.116 79.4668C193.116 80.0923 193.167 80.5614 193.27 80.8741C193.373 81.166 193.569 81.3641 193.857 81.4683C194.166 81.5726 194.65 81.6247 195.308 81.6247C195.37 81.6247 195.401 81.6873 195.401 81.8123C195.401 81.9374 195.37 82 195.308 82C194.711 82 194.248 81.9896 193.919 81.9687L191.942 81.9374L190.028 81.9687C189.678 81.9896 189.194 82 188.576 82C188.535 82 188.515 81.9374 188.515 81.8123C188.515 81.6873 188.535 81.6247 188.576 81.6247C189.235 81.6247 189.719 81.5726 190.028 81.4683C190.337 81.3641 190.542 81.166 190.645 80.8741C190.769 80.5614 190.831 80.0923 190.831 79.4668V69.897C190.831 69.2715 190.769 68.8129 190.645 68.521C190.542 68.2291 190.337 68.031 190.028 67.9268C189.719 67.8017 189.235 67.7391 188.576 67.7391C188.535 67.7391 188.515 67.6766 188.515 67.5515C188.515 67.4264 188.535 67.3638 188.576 67.3638L190.028 67.3951C190.81 67.4368 191.448 67.4577 191.942 67.4577C192.457 67.4577 193.126 67.4368 193.95 67.3951L195.308 67.3638C195.37 67.3638 195.401 67.4264 195.401 67.5515C195.401 67.6766 195.37 67.7391 195.308 67.7391C194.67 67.7391 194.197 67.8017 193.888 67.9268C193.6 68.0519 193.394 68.2708 193.27 68.5835C193.167 68.8754 193.116 69.3341 193.116 69.9596V79.4668Z" fill="white"/>
<path d="M204.766 82C204.725 82 204.704 81.9374 204.704 81.8123C204.704 81.6873 204.725 81.6247 204.766 81.6247C205.425 81.6247 205.909 81.5726 206.218 81.4683C206.526 81.3641 206.732 81.166 206.835 80.8741C206.959 80.5614 207.021 80.0923 207.021 79.4668V69.897C207.021 69.2715 206.959 68.8129 206.835 68.521C206.732 68.2291 206.526 68.031 206.218 67.9268C205.929 67.8017 205.466 67.7391 204.828 67.7391C204.766 67.7391 204.735 67.6766 204.735 67.5515C204.735 67.4264 204.766 67.3638 204.828 67.3638H221.936C221.977 67.3638 221.998 67.4264 221.998 67.5515C221.998 67.6766 221.977 67.7391 221.936 67.7391C221.277 67.7391 220.793 67.8017 220.484 67.9268C220.176 68.031 219.959 68.2291 219.836 68.521C219.733 68.8129 219.682 69.2715 219.682 69.897V79.4668C219.682 80.0923 219.733 80.5614 219.836 80.8741C219.959 81.166 220.176 81.3641 220.484 81.4683C220.793 81.5726 221.277 81.6247 221.936 81.6247C221.977 81.6247 221.998 81.6873 221.998 81.8123C221.998 81.9374 221.977 82 221.936 82C221.339 82 220.865 81.9896 220.515 81.9687L218.601 81.9374L216.624 81.9687C216.295 81.9896 215.842 82 215.266 82C215.204 82 215.173 81.9374 215.173 81.8123C215.173 81.6873 215.204 81.6247 215.266 81.6247C215.904 81.6247 216.367 81.5726 216.655 81.4683C216.964 81.3641 217.17 81.166 217.273 80.8741C217.396 80.5614 217.458 80.0923 217.458 79.4668V69.9596C217.458 69.4175 217.396 69.0109 217.273 68.7399C217.17 68.4688 216.964 68.2812 216.655 68.177C216.367 68.0727 215.904 68.0206 215.266 68.0206H211.467C210.829 68.0206 210.356 68.0727 210.047 68.177C209.759 68.2812 209.553 68.4688 209.429 68.7399C209.326 69.0109 209.275 69.4175 209.275 69.9596V79.4668C209.275 80.0923 209.326 80.5614 209.429 80.8741C209.532 81.166 209.728 81.3641 210.016 81.4683C210.325 81.5726 210.809 81.6247 211.467 81.6247C211.529 81.6247 211.56 81.6873 211.56 81.8123C211.56 81.9374 211.529 82 211.467 82C210.87 82 210.407 81.9896 210.078 81.9687L208.132 81.9374L206.218 81.9687C205.868 81.9896 205.384 82 204.766 82Z" fill="white"/>
<path d="M240.157 81.6247C240.26 81.6247 240.311 81.6873 240.311 81.8123C240.311 81.9374 240.26 82 240.157 82C239.766 82 239.158 81.9791 238.335 81.9374C237.47 81.8958 236.853 81.8749 236.482 81.8749C236.173 81.8749 235.71 81.8958 235.092 81.9374C234.516 81.9791 234.073 82 233.765 82C233.682 82 233.641 81.9374 233.641 81.8123C233.641 81.6873 233.682 81.6247 233.765 81.6247C234.279 81.6247 234.65 81.5622 234.876 81.4371C235.123 81.2911 235.247 81.0722 235.247 80.7803C235.247 80.405 235.113 79.9359 234.845 79.373L232.838 74.9947H228.731L227.465 78.1533C227.115 79.029 226.94 79.6962 226.94 80.1548C226.94 80.6761 227.115 81.0514 227.465 81.2807C227.835 81.51 228.402 81.6247 229.163 81.6247C229.266 81.6247 229.318 81.6873 229.318 81.8123C229.318 81.9374 229.266 82 229.163 82C228.855 82 228.432 81.9791 227.897 81.9374C227.321 81.8958 226.786 81.8749 226.291 81.8749C225.777 81.8749 225.169 81.8958 224.469 81.9374C223.852 81.9791 223.358 82 222.987 82C222.884 82 222.833 81.9374 222.833 81.8123C222.833 81.6873 222.884 81.6247 222.987 81.6247C223.625 81.6247 224.13 81.5309 224.5 81.3432C224.892 81.1556 225.242 80.8116 225.55 80.3112C225.88 79.79 226.271 78.9769 226.724 77.8719L231.232 66.8947C231.274 66.8113 231.335 66.7696 231.418 66.7696C231.5 66.7696 231.562 66.8113 231.603 66.8947L236.544 77.7155C237.079 78.8622 237.511 79.7066 237.841 80.2487C238.17 80.7699 238.5 81.1348 238.829 81.3432C239.179 81.5309 239.622 81.6247 240.157 81.6247ZM229.009 74.3379H232.529L230.646 70.241L229.009 74.3379Z" fill="white"/>
<path d="M260.526 81.6247C260.567 81.6247 260.588 81.6873 260.588 81.8123C260.588 81.9374 260.567 82 260.526 82C259.95 82 259.497 81.9896 259.167 81.9687L257.346 81.9374L255.246 81.9687C254.896 81.9896 254.412 82 253.794 82C253.753 82 253.732 81.9374 253.732 81.8123C253.732 81.6873 253.753 81.6247 253.794 81.6247C254.494 81.6247 255.009 81.5726 255.338 81.4683C255.688 81.3433 255.915 81.1348 256.018 80.8429C256.141 80.551 256.182 80.0923 256.141 79.4668L255.74 69.1777L250.583 81.7811C250.541 81.8645 250.469 81.9062 250.367 81.9062C250.243 81.9062 250.161 81.8645 250.119 81.7811L244.19 70.0534L243.974 78.4035C243.954 79.5502 244.098 80.3738 244.407 80.8741C244.736 81.3745 245.292 81.6247 246.074 81.6247C246.136 81.6247 246.167 81.6873 246.167 81.8123C246.167 81.9374 246.136 82 246.074 82C245.621 82 245.271 81.9896 245.024 81.9687L243.635 81.9374L242.276 81.9687C242.008 81.9896 241.627 82 241.133 82C241.092 82 241.071 81.9374 241.071 81.8123C241.071 81.6873 241.092 81.6247 241.133 81.6247C241.895 81.6247 242.44 81.3849 242.77 80.9054C243.12 80.405 243.315 79.5711 243.357 78.4035L243.604 69.0214C242.986 68.1665 242.224 67.7391 241.318 67.7391C241.257 67.7391 241.226 67.6766 241.226 67.5515C241.226 67.4264 241.257 67.3638 241.318 67.3638L243.295 67.3951L244.901 67.3638C245.168 67.3638 245.384 67.4681 245.549 67.6766C245.734 67.8642 246.002 68.3021 246.352 68.9901L251.231 78.7475L255.554 68.1457C255.637 67.9164 255.76 67.7287 255.925 67.5828C256.11 67.4368 256.296 67.3638 256.481 67.3638L258.21 67.3951L260.372 67.3638C260.413 67.3638 260.434 67.4264 260.434 67.5515C260.434 67.6766 260.413 67.7391 260.372 67.7391C259.507 67.7391 258.89 67.8851 258.519 68.177C258.148 68.448 257.994 69.0005 258.056 69.8345L258.488 79.4668C258.529 80.1131 258.591 80.5823 258.673 80.8741C258.776 81.166 258.962 81.3641 259.229 81.4683C259.497 81.5726 259.929 81.6247 260.526 81.6247Z" fill="white"/>
<path d="M263.63 62.2975C264.269 62.2975 264.773 62.5477 265.144 63.048C265.514 63.5484 265.699 64.2573 265.699 65.1747C265.699 66.0503 265.504 66.8635 265.113 67.614C264.742 68.3438 264.176 69.0839 263.414 69.8345C263.394 69.8553 263.363 69.8657 263.322 69.8657C263.26 69.8657 263.208 69.8345 263.167 69.7719C263.126 69.7094 263.126 69.6573 263.167 69.6156C264.176 68.5731 264.68 67.343 264.68 65.9252C264.68 65.3415 264.577 64.9141 264.372 64.643C264.186 64.9557 263.847 65.1121 263.353 65.1121C262.941 65.1121 262.611 64.987 262.364 64.7368C262.138 64.4658 262.025 64.1218 262.025 63.7048C262.025 63.2461 262.158 62.9021 262.426 62.6728C262.714 62.4226 263.116 62.2975 263.63 62.2975Z" fill="white"/>
<path d="M281.825 81.6247C281.866 81.6247 281.886 81.6873 281.886 81.8123C281.886 81.9374 281.866 82 281.825 82C281.207 82 280.723 81.9896 280.373 81.9687L278.49 81.9374L276.513 81.9687C276.184 81.9896 275.721 82 275.124 82C275.082 82 275.062 81.9374 275.062 81.8123C275.062 81.6873 275.082 81.6247 275.124 81.6247C275.782 81.6247 276.256 81.5726 276.544 81.4683C276.853 81.3641 277.059 81.166 277.162 80.8741C277.265 80.5614 277.316 80.0923 277.316 79.4668V75.0259C276.41 75.0468 275.669 75.1719 275.093 75.4012C274.516 75.6306 273.991 76.0371 273.518 76.6209C273.065 77.1838 272.602 77.9969 272.128 79.0603C271.716 79.9568 271.397 80.6135 271.171 81.0305C270.944 81.4266 270.759 81.6873 270.615 81.8123C270.491 81.9374 270.347 82 270.183 82H266.662C266.621 82 266.601 81.9374 266.601 81.8123C266.601 81.6873 266.621 81.6247 266.662 81.6247C267.465 81.6247 268.103 81.3745 268.577 80.8741C269.071 80.3529 269.555 79.5919 270.028 78.5911C270.564 77.4027 271.212 76.5271 271.974 75.9641C272.735 75.4012 273.693 75.0676 274.846 74.9634C273.137 74.8383 271.912 74.4526 271.171 73.8063C270.45 73.1391 270.09 72.253 270.09 71.148C270.09 69.9804 270.564 69.0422 271.511 68.3333C272.478 67.6245 273.765 67.27 275.371 67.27C275.741 67.27 276.194 67.3013 276.729 67.3638C276.935 67.3847 277.182 67.4055 277.471 67.4264C277.779 67.4472 278.119 67.4577 278.49 67.4577C278.963 67.4577 279.591 67.4368 280.373 67.3951L281.825 67.3638C281.866 67.3638 281.886 67.4264 281.886 67.5515C281.886 67.6766 281.866 67.7391 281.825 67.7391C281.166 67.7391 280.682 67.8017 280.373 67.9268C280.064 68.031 279.848 68.2291 279.725 68.521C279.622 68.8129 279.57 69.2715 279.57 69.897V79.4668C279.57 80.0923 279.622 80.5614 279.725 80.8741C279.848 81.166 280.064 81.3641 280.373 81.4683C280.682 81.5726 281.166 81.6247 281.825 81.6247ZM276.05 74.5568C276.503 74.5568 276.925 74.5256 277.316 74.463V69.9596C277.316 69.1048 277.162 68.5106 276.853 68.177C276.544 67.8434 276.04 67.6766 275.34 67.6766C273.302 67.6766 272.283 68.6044 272.283 70.46C272.283 71.6901 272.612 72.6804 273.271 73.431C273.93 74.1815 274.856 74.5568 276.05 74.5568Z" fill="white"/>
<path d="M287.604 67.8329C286.575 67.8329 285.782 68.1248 285.226 68.7086C284.671 69.2715 284.248 70.2098 283.96 71.5233C283.96 71.565 283.899 71.5858 283.775 71.5858C283.672 71.5858 283.621 71.565 283.621 71.5233C283.703 70.8769 283.785 70.043 283.868 69.0214C283.95 67.9997 283.991 67.2179 283.991 66.6758C283.991 66.5716 284.043 66.5194 284.146 66.5194C284.269 66.5194 284.331 66.5716 284.331 66.6758C284.331 66.9469 284.485 67.1241 284.794 67.2075C285.103 67.27 285.494 67.3013 285.967 67.3013C287.738 67.343 289.292 67.3638 290.63 67.3638L293.317 67.3326C293.667 67.3117 294.141 67.3013 294.738 67.3013C295.52 67.3013 296.086 67.2596 296.436 67.1762C296.807 67.0719 297.043 66.8635 297.146 66.5507C297.187 66.4882 297.26 66.4569 297.362 66.4569C297.465 66.4569 297.517 66.4882 297.517 66.5507C297.373 69.2403 297.301 70.8978 297.301 71.5233C297.301 71.565 297.239 71.5858 297.115 71.5858C297.012 71.5858 296.961 71.565 296.961 71.5233C296.879 70.2515 296.57 69.3237 296.035 68.7399C295.499 68.1353 294.707 67.8329 293.657 67.8329C292.895 67.8329 292.391 67.9789 292.144 68.2708C291.897 68.5418 291.773 69.0839 291.773 69.897V79.4668C291.773 80.1131 291.825 80.5823 291.927 80.8741C292.051 81.166 292.288 81.3641 292.638 81.4683C292.988 81.5726 293.544 81.6247 294.305 81.6247C294.346 81.6247 294.367 81.6873 294.367 81.8123C294.367 81.9374 294.346 82 294.305 82C293.626 82 293.101 81.9896 292.73 81.9687L290.569 81.9374L288.438 81.9687C288.047 81.9896 287.512 82 286.832 82C286.791 82 286.77 81.9374 286.77 81.8123C286.77 81.6873 286.791 81.6247 286.832 81.6247C287.594 81.6247 288.15 81.5726 288.5 81.4683C288.85 81.3641 289.086 81.166 289.21 80.8741C289.354 80.5614 289.426 80.0923 289.426 79.4668V69.8345C289.426 69.2507 289.385 68.8233 289.303 68.5522C289.22 68.2812 289.056 68.0936 288.809 67.9893C288.561 67.8851 288.16 67.8329 287.604 67.8329Z" fill="white"/>
<path d="M316.51 81.6247C316.551 81.6247 316.572 81.6873 316.572 81.8123C316.572 81.9374 316.551 82 316.51 82C315.892 82 315.408 81.9896 315.059 81.9687L313.175 81.9374L311.198 81.9687C310.869 81.9896 310.406 82 309.809 82C309.747 82 309.716 81.9374 309.716 81.8123C309.716 81.6873 309.747 81.6247 309.809 81.6247C310.468 81.6247 310.941 81.5726 311.229 81.4683C311.538 81.3641 311.744 81.166 311.847 80.8741C311.95 80.5614 312.001 80.0923 312.001 79.4668V74.9321H303.756V79.4668C303.756 80.0923 303.808 80.5614 303.911 80.8741C304.014 81.166 304.209 81.3641 304.497 81.4683C304.806 81.5726 305.29 81.6247 305.949 81.6247C306.01 81.6247 306.041 81.6873 306.041 81.8123C306.041 81.9374 306.01 82 305.949 82C305.352 82 304.888 81.9896 304.559 81.9687L302.614 81.9374L300.699 81.9687C300.349 81.9896 299.865 82 299.248 82C299.206 82 299.186 81.9374 299.186 81.8123C299.186 81.6873 299.206 81.6247 299.248 81.6247C299.906 81.6247 300.39 81.5726 300.699 81.4683C301.008 81.3641 301.214 81.166 301.317 80.8741C301.44 80.5614 301.502 80.0923 301.502 79.4668V69.897C301.502 69.2715 301.44 68.8129 301.317 68.521C301.214 68.2291 301.008 68.031 300.699 67.9268C300.411 67.8017 299.948 67.7391 299.309 67.7391C299.248 67.7391 299.217 67.6766 299.217 67.5515C299.217 67.4264 299.248 67.3638 299.309 67.3638L300.699 67.3951C301.481 67.4368 302.12 67.4577 302.614 67.4577C303.108 67.4577 303.766 67.4368 304.59 67.3951L305.949 67.3638C306.01 67.3638 306.041 67.4264 306.041 67.5515C306.041 67.6766 306.01 67.7391 305.949 67.7391C305.31 67.7391 304.837 67.8017 304.528 67.9268C304.24 68.0519 304.034 68.2708 303.911 68.5835C303.808 68.8754 303.756 69.3341 303.756 69.9596V74.3066H312.001V69.9596C312.001 69.3341 311.95 68.8754 311.847 68.5835C311.744 68.2708 311.538 68.0519 311.229 67.9268C310.921 67.8017 310.447 67.7391 309.809 67.7391C309.747 67.7391 309.716 67.6766 309.716 67.5515C309.716 67.4264 309.747 67.3638 309.809 67.3638L311.198 67.3951C311.981 67.4368 312.639 67.4577 313.175 67.4577C313.648 67.4577 314.276 67.4368 315.059 67.3951L316.51 67.3638C316.551 67.3638 316.572 67.4264 316.572 67.5515C316.572 67.6766 316.551 67.7391 316.51 67.7391C315.851 67.7391 315.367 67.8017 315.059 67.9268C314.75 68.031 314.534 68.2291 314.41 68.521C314.307 68.8129 314.256 69.2715 314.256 69.897V79.4668C314.256 80.0923 314.307 80.5614 314.41 80.8741C314.534 81.166 314.75 81.3641 315.059 81.4683C315.367 81.5726 315.851 81.6247 316.51 81.6247Z" fill="white"/>
<path d="M335.81 81.6247C335.851 81.6247 335.872 81.6873 335.872 81.8123C335.872 81.9374 335.851 82 335.81 82C335.193 82 334.709 81.9896 334.359 81.9687L332.475 81.9374L330.499 81.9687C330.169 81.9896 329.706 82 329.109 82C329.047 82 329.017 81.9374 329.017 81.8123C329.017 81.6873 329.047 81.6247 329.109 81.6247C329.768 81.6247 330.241 81.5726 330.53 81.4683C330.839 81.3641 331.044 81.166 331.147 80.8741C331.25 80.5614 331.302 80.0923 331.302 79.4668V71.0229L323.057 79.3417V79.4668C323.057 80.0923 323.108 80.5614 323.211 80.8741C323.314 81.166 323.51 81.3641 323.798 81.4683C324.107 81.5726 324.59 81.6247 325.249 81.6247C325.311 81.6247 325.342 81.6873 325.342 81.8123C325.342 81.9374 325.311 82 325.249 82C324.652 82 324.189 81.9896 323.859 81.9687L321.914 81.9374L319.999 81.9687C319.649 81.9896 319.166 82 318.548 82C318.507 82 318.486 81.9374 318.486 81.8123C318.486 81.6873 318.507 81.6247 318.548 81.6247C319.207 81.6247 319.691 81.5726 319.999 81.4683C320.308 81.3641 320.514 81.166 320.617 80.8741C320.741 80.5614 320.802 80.0923 320.802 79.4668V69.897C320.802 69.2715 320.741 68.8129 320.617 68.521C320.514 68.2291 320.308 68.031 319.999 67.9268C319.711 67.8017 319.248 67.7391 318.61 67.7391C318.548 67.7391 318.517 67.6766 318.517 67.5515C318.517 67.4264 318.548 67.3638 318.61 67.3638L319.999 67.3951C320.782 67.4368 321.42 67.4577 321.914 67.4577C322.408 67.4577 323.067 67.4368 323.89 67.3951L325.249 67.3638C325.311 67.3638 325.342 67.4264 325.342 67.5515C325.342 67.6766 325.311 67.7391 325.249 67.7391C324.611 67.7391 324.137 67.8017 323.829 67.9268C323.54 68.0519 323.335 68.2708 323.211 68.5835C323.108 68.8754 323.057 69.3341 323.057 69.9596V78.3722L331.302 70.0221V69.9596C331.302 69.3341 331.25 68.8754 331.147 68.5835C331.044 68.2708 330.839 68.0519 330.53 67.9268C330.221 67.8017 329.747 67.7391 329.109 67.7391C329.047 67.7391 329.017 67.6766 329.017 67.5515C329.017 67.4264 329.047 67.3638 329.109 67.3638L330.499 67.3951C331.281 67.4368 331.94 67.4577 332.475 67.4577C332.949 67.4577 333.577 67.4368 334.359 67.3951L335.81 67.3638C335.851 67.3638 335.872 67.4264 335.872 67.5515C335.872 67.6766 335.851 67.7391 335.81 67.7391C335.151 67.7391 334.668 67.8017 334.359 67.9268C334.05 68.031 333.834 68.2291 333.71 68.521C333.607 68.8129 333.556 69.2715 333.556 69.897V79.4668C333.556 80.0923 333.607 80.5614 333.71 80.8741C333.834 81.166 334.05 81.3641 334.359 81.4683C334.668 81.5726 335.151 81.6247 335.81 81.6247Z" fill="white"/>
<path d="M353.721 81.6247C353.762 81.6247 353.783 81.6873 353.783 81.8123C353.783 81.9374 353.762 82 353.721 82H350.201C349.871 82 349.614 81.9479 349.429 81.8436C349.264 81.7394 349.058 81.51 348.811 81.1556C348.585 80.7803 348.132 80.0193 347.452 78.8726L347.051 78.2159C346.371 77.0275 345.877 76.2143 345.569 75.7765C345.28 75.3387 344.951 75.0364 344.58 74.8696C344.23 74.6819 343.736 74.5881 343.098 74.5881L342.357 74.6194V79.4668C342.357 80.0923 342.408 80.5614 342.511 80.8741C342.614 81.166 342.81 81.3641 343.098 81.4683C343.407 81.5726 343.891 81.6247 344.549 81.6247C344.611 81.6247 344.642 81.6873 344.642 81.8123C344.642 81.9374 344.611 82 344.549 82C343.952 82 343.489 81.9896 343.16 81.9687L341.214 81.9374L339.3 81.9687C338.95 81.9896 338.466 82 337.848 82C337.807 82 337.787 81.9374 337.787 81.8123C337.787 81.6873 337.807 81.6247 337.848 81.6247C338.507 81.6247 338.991 81.5726 339.3 81.4683C339.609 81.3641 339.814 81.166 339.917 80.8741C340.041 80.5614 340.103 80.0923 340.103 79.4668V69.897C340.103 69.2715 340.041 68.8129 339.917 68.521C339.814 68.2291 339.609 68.031 339.3 67.9268C339.012 67.8017 338.548 67.7391 337.91 67.7391C337.848 67.7391 337.818 67.6766 337.818 67.5515C337.818 67.4264 337.848 67.3638 337.91 67.3638L339.3 67.3951C340.082 67.4368 340.72 67.4577 341.214 67.4577C341.708 67.4577 342.367 67.4368 343.191 67.3951L344.549 67.3638C344.611 67.3638 344.642 67.4264 344.642 67.5515C344.642 67.6766 344.611 67.7391 344.549 67.7391C343.911 67.7391 343.438 67.8017 343.129 67.9268C342.841 68.0519 342.635 68.2708 342.511 68.5835C342.408 68.8754 342.357 69.3341 342.357 69.9596V74.0252L343.469 73.9626C344.21 73.9001 344.776 73.8792 345.167 73.9001L347.143 71.0229C347.885 69.897 348.255 69.0839 348.255 68.5835C348.255 68.0206 347.802 67.7391 346.896 67.7391C346.835 67.7391 346.804 67.6766 346.804 67.5515C346.804 67.4264 346.835 67.3638 346.896 67.3638L348.163 67.3951C348.904 67.4368 349.624 67.4577 350.324 67.4577C350.839 67.4577 351.405 67.4368 352.023 67.3951L352.98 67.3638C353.042 67.3638 353.073 67.4264 353.073 67.5515C353.073 67.6766 353.042 67.7391 352.98 67.7391C352.074 67.7391 351.209 68.0206 350.386 68.5835C349.562 69.1464 348.749 69.9804 347.946 71.0854L345.877 73.9626C346.474 74.0669 346.968 74.3588 347.36 74.8383C347.771 75.297 348.389 76.2248 349.212 77.6217C350.139 79.1437 350.911 80.1861 351.529 80.749C352.167 81.2911 352.898 81.583 353.721 81.6247Z" fill="white"/>
<path d="M372.029 81.6247C372.07 81.6247 372.09 81.6873 372.09 81.8123C372.09 81.9374 372.07 82 372.029 82C371.411 82 370.927 81.9896 370.577 81.9687L368.694 81.9374L366.717 81.9687C366.388 81.9896 365.925 82 365.328 82C365.266 82 365.235 81.9374 365.235 81.8123C365.235 81.6873 365.266 81.6247 365.328 81.6247C365.986 81.6247 366.46 81.5726 366.748 81.4683C367.057 81.3641 367.263 81.166 367.366 80.8741C367.469 80.5614 367.52 80.0923 367.52 79.4668V71.0229L359.275 79.3417V79.4668C359.275 80.0923 359.326 80.5614 359.429 80.8741C359.532 81.166 359.728 81.3641 360.016 81.4683C360.325 81.5726 360.809 81.6247 361.467 81.6247C361.529 81.6247 361.56 81.6873 361.56 81.8123C361.56 81.9374 361.529 82 361.467 82C360.87 82 360.407 81.9896 360.078 81.9687L358.132 81.9374L356.218 81.9687C355.868 81.9896 355.384 82 354.766 82C354.725 82 354.705 81.9374 354.705 81.8123C354.705 81.6873 354.725 81.6247 354.766 81.6247C355.425 81.6247 355.909 81.5726 356.218 81.4683C356.527 81.3641 356.732 81.166 356.835 80.8741C356.959 80.5614 357.021 80.0923 357.021 79.4668V69.897C357.021 69.2715 356.959 68.8129 356.835 68.521C356.732 68.2291 356.527 68.031 356.218 67.9268C355.93 67.8017 355.466 67.7391 354.828 67.7391C354.766 67.7391 354.735 67.6766 354.735 67.5515C354.735 67.4264 354.766 67.3638 354.828 67.3638L356.218 67.3951C357 67.4368 357.638 67.4577 358.132 67.4577C358.626 67.4577 359.285 67.4368 360.109 67.3951L361.467 67.3638C361.529 67.3638 361.56 67.4264 361.56 67.5515C361.56 67.6766 361.529 67.7391 361.467 67.7391C360.829 67.7391 360.356 67.8017 360.047 67.9268C359.759 68.0519 359.553 68.2708 359.429 68.5835C359.326 68.8754 359.275 69.3341 359.275 69.9596V78.3722L367.52 70.0221V69.9596C367.52 69.3341 367.469 68.8754 367.366 68.5835C367.263 68.2708 367.057 68.0519 366.748 67.9268C366.439 67.8017 365.966 67.7391 365.328 67.7391C365.266 67.7391 365.235 67.6766 365.235 67.5515C365.235 67.4264 365.266 67.3638 365.328 67.3638L366.717 67.3951C367.5 67.4368 368.158 67.4577 368.694 67.4577C369.167 67.4577 369.795 67.4368 370.577 67.3951L372.029 67.3638C372.07 67.3638 372.09 67.4264 372.09 67.5515C372.09 67.6766 372.07 67.7391 372.029 67.7391C371.37 67.7391 370.886 67.8017 370.577 67.9268C370.268 68.031 370.052 68.2291 369.929 68.521C369.826 68.8129 369.774 69.2715 369.774 69.897V79.4668C369.774 80.0923 369.826 80.5614 369.929 80.8741C370.052 81.166 370.268 81.3641 370.577 81.4683C370.886 81.5726 371.37 81.6247 372.029 81.6247Z" fill="white"/>
<path d="M22.234 40.5309C17.7049 40.5309 13.7522 39.6552 10.3759 37.9039C6.99961 36.1526 4.42622 33.7757 2.65573 30.7735C0.885244 27.7295 0 24.3519 0 20.6407C0 16.6377 1.00877 13.0725 3.0263 9.94508C5.08501 6.776 7.88485 4.33664 11.4258 2.627C15.008 0.875667 19.0019 0 23.4075 0C25.3427 0 27.2985 0.166794 29.2748 0.500382C31.2512 0.79227 32.8364 1.18841 34.0304 1.68879C34.401 1.81388 34.6275 1.98068 34.7098 2.18917C34.8333 2.35596 34.9157 2.6687 34.9569 3.12738L35.7598 11.8215C35.7598 11.9466 35.6568 12.03 35.4509 12.0717C35.2451 12.1134 35.101 12.0509 35.0186 11.8841C33.5775 8.67328 31.5806 6.17137 29.0278 4.37834C26.5162 2.5853 23.634 1.68879 20.3812 1.68879C16.1814 1.68879 12.9699 3.16908 10.7465 6.12967C8.56422 9.09026 7.47311 13.135 7.47311 18.2639C7.47311 22.3921 8.17307 26.0824 9.57299 29.3349C10.9729 32.5456 12.9081 35.0475 15.3785 36.8406C17.8902 38.5919 20.69 39.4676 23.7781 39.4676C25.4662 39.4676 26.7632 39.2799 27.669 38.9047C28.5749 38.5294 29.2336 37.7996 29.6454 36.7155C30.0571 35.6313 30.263 34.0259 30.263 31.8993C30.263 29.731 30.1395 28.2298 29.8924 27.3959C29.6454 26.5202 29.1101 25.9364 28.2866 25.6445C27.5043 25.3527 26.125 25.2067 24.1486 25.2067C23.9016 25.2067 23.7781 25.0399 23.7781 24.7063C23.7781 24.5812 23.7987 24.477 23.8398 24.3936C23.9222 24.2685 24.0045 24.2059 24.0869 24.2059C27.5867 24.4144 30.4071 24.5187 32.5482 24.5187C34.648 24.5187 36.8303 24.4561 39.0949 24.331C39.1772 24.331 39.239 24.3936 39.2801 24.5187C39.3625 24.6021 39.4037 24.6855 39.4037 24.7689C39.4037 25.0608 39.3007 25.2067 39.0949 25.2067C38.3537 25.165 37.839 25.311 37.5508 25.6445C37.2626 25.9364 37.0773 26.5619 36.995 27.521C36.9126 28.4383 36.8715 30.1063 36.8715 32.5248C36.8715 34.4012 36.9332 35.7356 37.0567 36.5278C37.2214 37.3201 37.3038 37.8205 37.3038 38.029C37.3038 38.2792 37.242 38.446 37.1185 38.5294C37.0362 38.6128 36.8509 38.6962 36.5626 38.7796C31.2512 39.9471 26.475 40.5309 22.234 40.5309Z" fill="white"/>
<path d="M76.3214 39.0297C76.445 39.0297 76.5067 39.1548 76.5067 39.405C76.5067 39.6552 76.445 39.7803 76.3214 39.7803H66.1926C65.575 39.7803 64.4633 38.5294 62.8575 36.0275C61.2929 33.5256 59.4194 30.0854 57.2372 25.7071C56.3726 25.8322 55.5079 25.8947 54.6432 25.8947H53.5933V34.714C53.5933 36.0066 53.6757 36.9448 53.8403 37.5286C54.0462 38.1124 54.3962 38.5085 54.8903 38.717C55.4256 38.9255 56.2696 39.0297 57.4225 39.0297C57.5049 39.0297 57.546 39.1548 57.546 39.405C57.546 39.6552 57.5049 39.7803 57.4225 39.7803C56.1873 39.7803 55.2197 39.7595 54.5197 39.7178L50.32 39.6552L46.3055 39.7178C45.5643 39.7595 44.535 39.7803 43.2174 39.7803C43.1351 39.7803 43.0939 39.6552 43.0939 39.405C43.0939 39.1548 43.1351 39.0297 43.2174 39.0297C44.3703 39.0297 45.2144 38.9255 45.7496 38.717C46.2849 38.5085 46.6555 38.1124 46.8613 37.5286C47.0672 36.9031 47.1701 35.9649 47.1701 34.714V15.5744C47.1701 14.3234 47.0672 13.4061 46.8613 12.8223C46.6966 12.2385 46.3467 11.8424 45.8114 11.6339C45.2761 11.3837 44.4526 11.2586 43.3409 11.2586C43.2174 11.2586 43.1557 11.1335 43.1557 10.8833C43.1557 10.6331 43.2174 10.508 43.3409 10.508L46.3672 10.5706C48.0142 10.654 49.3318 10.6957 50.32 10.6957C51.1023 10.6957 51.8228 10.6748 52.4816 10.6331C53.1404 10.5914 53.7168 10.5497 54.2109 10.508C55.5697 10.3829 56.8461 10.3204 58.0401 10.3204C61.2517 10.3204 63.7016 10.8416 65.3897 11.8841C67.0778 12.9265 67.9219 14.4277 67.9219 16.3875C67.9219 18.0137 67.4072 19.5149 66.3779 20.8909C65.3485 22.267 63.928 23.3928 62.1164 24.2685C64.3398 28.0631 66.2544 31.0236 67.8601 33.1503C69.4659 35.2769 70.9276 36.7989 72.2452 37.7162C73.5628 38.5919 74.9215 39.0297 76.3214 39.0297ZM53.5933 24.6438C53.8815 24.6855 54.3756 24.7063 55.0756 24.7063C57.4225 24.7063 59.0489 24.1642 59.9547 23.0801C60.8605 21.9542 61.3135 20.2863 61.3135 18.0763C61.3135 13.7396 59.7488 11.5713 56.6196 11.5713C55.7549 11.5713 55.1167 11.6756 54.705 11.8841C54.2933 12.0926 54.005 12.4887 53.8403 13.0725C53.6757 13.6145 53.5933 14.4902 53.5933 15.6995V24.6438Z" fill="white"/>
<path d="M109.541 39.0297C109.747 39.0297 109.85 39.1548 109.85 39.405C109.85 39.6552 109.747 39.7803 109.541 39.7803C108.677 39.7803 107.38 39.7386 105.65 39.6552C103.839 39.5718 102.562 39.5301 101.821 39.5301C101.121 39.5301 100.03 39.5718 98.5478 39.6552C97.1478 39.7386 96.1597 39.7803 95.5832 39.7803C95.4185 39.7803 95.3362 39.6552 95.3362 39.405C95.3362 39.1548 95.4185 39.0297 95.5832 39.0297C96.5302 39.0297 97.189 38.9255 97.5596 38.717C97.9713 38.4668 98.1772 38.1124 98.1772 37.6537C98.1772 37.0699 97.8272 36.0275 97.1273 34.5263L93.4216 26.4577H86.2573L83.9103 32.087C83.1692 33.8383 82.7986 35.2143 82.7986 36.2151C82.7986 37.2159 83.1486 37.9456 83.8486 38.4043C84.5485 38.8213 85.6397 39.0297 87.1219 39.0297C87.3278 39.0297 87.4307 39.1548 87.4307 39.405C87.4307 39.6552 87.3278 39.7803 87.1219 39.7803C86.5455 39.7803 85.722 39.7386 84.6515 39.6552C83.4986 39.5718 82.4281 39.5301 81.4399 39.5301C80.4105 39.5301 79.1959 39.5718 77.796 39.6552C76.5608 39.7386 75.552 39.7803 74.7697 39.7803C74.5638 39.7803 74.4609 39.6552 74.4609 39.405C74.4609 39.1548 74.5638 39.0297 74.7697 39.0297C76.0461 39.0297 77.0754 38.8421 77.8577 38.4668C78.6401 38.0915 79.3606 37.3827 80.0194 36.3402C80.7194 35.2977 81.5222 33.6923 82.4281 31.524L91.6923 9.56979C91.7746 9.403 91.8981 9.3196 92.0628 9.3196C92.2275 9.3196 92.3511 9.403 92.4334 9.56979L102.315 31.2113C103.345 33.463 104.189 35.1309 104.847 36.2151C105.547 37.2993 106.247 38.0498 106.947 38.4668C107.647 38.8421 108.512 39.0297 109.541 39.0297ZM86.9366 24.8314H92.6804L89.6541 18.2639L86.9366 24.8314Z" fill="white"/>
<path d="M143.674 10.508C143.798 10.508 143.86 10.6331 143.86 10.8833C143.86 11.1335 143.798 11.2586 143.674 11.2586C142.027 11.2586 140.813 11.8424 140.031 13.0099C139.248 14.1775 138.857 16.0122 138.857 18.5141V40.4683C138.857 40.5517 138.754 40.6143 138.548 40.656C138.342 40.6977 138.198 40.6768 138.116 40.5934L116.438 15.8246V31.8368C116.438 34.297 116.808 36.1109 117.549 37.2784C118.332 38.446 119.526 39.0297 121.132 39.0297C121.255 39.0297 121.317 39.1548 121.317 39.405C121.317 39.6552 121.255 39.7803 121.132 39.7803C120.143 39.7803 119.382 39.7595 118.846 39.7178L115.882 39.6552L112.917 39.7178C112.341 39.7595 111.517 39.7803 110.447 39.7803C110.365 39.7803 110.323 39.6552 110.323 39.405C110.323 39.1548 110.365 39.0297 110.447 39.0297C112.094 39.0297 113.309 38.446 114.091 37.2784C114.873 36.1109 115.264 34.297 115.264 31.8368V14.5736C114.153 13.4061 113.164 12.5721 112.3 12.0717C111.476 11.5296 110.673 11.2586 109.891 11.2586C109.809 11.2586 109.768 11.1335 109.768 10.8833C109.768 10.6331 109.809 10.508 109.891 10.508L113.35 10.5706C113.679 10.5706 114.132 10.5706 114.708 10.5706C115.285 10.5289 116.747 10.508 119.093 10.508C119.423 10.508 119.691 10.6123 119.896 10.8207C120.143 11.0292 120.514 11.4254 121.008 12.0092C121.337 12.5095 121.79 13.0933 122.367 13.7605L137.622 31.0236V18.5141C137.622 16.0122 137.251 14.1775 136.51 13.0099C135.769 11.8424 134.575 11.2586 132.928 11.2586C132.846 11.2586 132.804 11.1335 132.804 10.8833C132.804 10.6331 132.846 10.508 132.928 10.508L135.275 10.5706C136.51 10.654 137.478 10.6957 138.178 10.6957C138.878 10.6957 139.886 10.654 141.204 10.5706L143.674 10.508Z" fill="white"/>
<path d="M161.49 40.0305C160.337 40.0305 159.06 39.968 157.66 39.8429C157.166 39.8012 156.549 39.7595 155.808 39.7178C155.067 39.6761 154.222 39.6552 153.275 39.6552L149.261 39.7178C148.52 39.7595 147.49 39.7803 146.173 39.7803C146.091 39.7803 146.049 39.6552 146.049 39.405C146.049 39.1548 146.091 39.0297 146.173 39.0297C147.408 39.0297 148.293 38.9255 148.829 38.717C149.405 38.5085 149.776 38.1124 149.94 37.5286C150.146 36.9031 150.249 35.9649 150.249 34.714V15.5744C150.249 14.3234 150.146 13.4061 149.94 12.8223C149.776 12.2385 149.405 11.8424 148.829 11.6339C148.293 11.3837 147.449 11.2586 146.296 11.2586C146.173 11.2586 146.111 11.1335 146.111 10.8833C146.111 10.6331 146.173 10.508 146.296 10.508L149.261 10.5706C150.908 10.654 152.246 10.6957 153.275 10.6957C154.552 10.6957 155.828 10.6331 157.105 10.508C158.752 10.4246 159.987 10.3829 160.81 10.3829C164.269 10.3829 167.254 11.0084 169.766 12.2593C172.277 13.5103 174.192 15.2408 175.509 17.4508C176.827 19.6608 177.486 22.1627 177.486 24.9565C177.486 27.8337 176.806 30.419 175.448 32.7124C174.089 35.0058 172.195 36.7989 169.766 38.0915C167.336 39.3842 164.578 40.0305 161.49 40.0305ZM160.81 38.6545C163.816 38.6545 166.163 37.5286 167.851 35.2769C169.539 33.0252 170.383 29.8144 170.383 25.6445C170.383 21.5998 169.539 18.2639 167.851 15.6369C166.163 12.9682 163.631 11.6339 160.254 11.6339C158.855 11.6339 157.846 11.9258 157.228 12.5095C156.652 13.0933 156.364 14.1566 156.364 15.6995V34.0259C156.364 35.7356 156.652 36.9448 157.228 37.6537C157.846 38.3209 159.04 38.6545 160.81 38.6545Z" fill="white"/>
<path d="M245.285 39.0297C245.367 39.0297 245.408 39.1548 245.408 39.405C245.408 39.6552 245.367 39.7803 245.285 39.7803C243.885 39.7803 242.773 39.7595 241.95 39.7178L237.379 39.6552L232.747 39.7178C231.965 39.7595 230.894 39.7803 229.536 39.7803C229.412 39.7803 229.35 39.6552 229.35 39.405C229.35 39.1548 229.412 39.0297 229.536 39.0297C231.265 39.0297 232.438 38.8213 233.056 38.4043C233.674 37.9873 233.982 37.1116 233.982 35.7773L233.921 34.714L232.624 9.13196L219.901 39.3425C219.818 39.5093 219.654 39.5927 219.407 39.5927C219.16 39.5927 218.995 39.5093 218.913 39.3425L203.287 9.25706L202.793 31.8368C202.752 34.0885 203.184 35.8607 204.09 37.1533C205.037 38.4043 206.355 39.0297 208.043 39.0297C208.166 39.0297 208.228 39.1548 208.228 39.405C208.228 39.6552 208.166 39.7803 208.043 39.7803C206.931 39.7803 206.066 39.7595 205.449 39.7178L202.052 39.6552L198.161 39.7178C197.502 39.7595 196.617 39.7803 195.505 39.7803C195.382 39.7803 195.32 39.6552 195.32 39.405C195.32 39.1548 195.382 39.0297 195.505 39.0297C197.193 39.0297 198.531 38.3834 199.52 37.0908C200.508 35.7981 201.023 34.0468 201.064 31.8368L201.62 5.94203L201.558 5.87948C200.734 4.33664 199.87 3.21078 198.964 2.50191C198.099 1.79303 197.09 1.4386 195.938 1.4386C195.814 1.4386 195.752 1.3135 195.752 1.06331C195.752 0.813122 195.814 0.688027 195.938 0.688027L198.84 0.750574C199.417 0.792271 200.158 0.81312 201.064 0.81312L204.337 0.750574C204.708 0.708876 205.181 0.688027 205.758 0.688027C206.293 0.688027 206.705 0.875669 206.993 1.25095C207.281 1.62624 207.816 2.52276 208.599 3.9405L222.062 29.5225L233.797 2.25172C234.044 1.66794 234.291 1.2718 234.538 1.06331C234.826 0.813122 235.197 0.688027 235.65 0.688027C236.021 0.688027 236.432 0.708876 236.885 0.750574C237.379 0.792271 237.935 0.81312 238.553 0.81312L242.197 0.750574C242.773 0.708876 243.597 0.688027 244.667 0.688027C244.791 0.688027 244.852 0.813122 244.852 1.06331C244.852 1.3135 244.791 1.4386 244.667 1.4386C242.732 1.4386 241.332 1.83473 240.467 2.627C239.603 3.41927 239.212 4.64938 239.294 6.31732L240.776 34.714C240.858 36.0066 241.003 36.9448 241.208 37.5286C241.456 38.1124 241.867 38.5085 242.444 38.717C243.061 38.9255 244.008 39.0297 245.285 39.0297Z" fill="white"/>
<path d="M281.194 39.0297C281.4 39.0297 281.503 39.1548 281.503 39.405C281.503 39.6552 281.4 39.7803 281.194 39.7803C280.329 39.7803 279.032 39.7386 277.303 39.6552C275.491 39.5718 274.215 39.5301 273.474 39.5301C272.774 39.5301 271.683 39.5718 270.201 39.6552C268.801 39.7386 267.812 39.7803 267.236 39.7803C267.071 39.7803 266.989 39.6552 266.989 39.405C266.989 39.1548 267.071 39.0297 267.236 39.0297C268.183 39.0297 268.842 38.9255 269.212 38.717C269.624 38.4668 269.83 38.1124 269.83 37.6537C269.83 37.0699 269.48 36.0275 268.78 34.5263L265.074 26.4577H257.91L255.563 32.087C254.822 33.8383 254.451 35.2143 254.451 36.2151C254.451 37.2159 254.801 37.9456 255.501 38.4043C256.201 38.8213 257.292 39.0297 258.775 39.0297C258.981 39.0297 259.084 39.1548 259.084 39.405C259.084 39.6552 258.981 39.7803 258.775 39.7803C258.198 39.7803 257.375 39.7386 256.304 39.6552C255.151 39.5718 254.081 39.5301 253.093 39.5301C252.063 39.5301 250.849 39.5718 249.449 39.6552C248.214 39.7386 247.205 39.7803 246.422 39.7803C246.217 39.7803 246.114 39.6552 246.114 39.405C246.114 39.1548 246.217 39.0297 246.422 39.0297C247.699 39.0297 248.728 38.8421 249.511 38.4668C250.293 38.0915 251.013 37.3827 251.672 36.3402C252.372 35.2977 253.175 33.6923 254.081 31.524L263.345 9.56979C263.427 9.403 263.551 9.3196 263.716 9.3196C263.88 9.3196 264.004 9.403 264.086 9.56979L273.968 31.2113C274.997 33.463 275.841 35.1309 276.5 36.2151C277.2 37.2993 277.9 38.0498 278.6 38.4668C279.3 38.8421 280.165 39.0297 281.194 39.0297ZM258.589 24.8314H264.333L261.307 18.2639L258.589 24.8314Z" fill="white"/>
<path d="M289.943 15.1365C289.943 16.3041 290.252 17.3257 290.87 18.2014C291.529 19.0353 292.311 19.7651 293.217 20.3905C294.164 20.9743 295.44 21.6832 297.046 22.5172C298.899 23.5179 300.34 24.3727 301.369 25.0816C302.44 25.7488 303.346 26.6245 304.087 27.7086C304.869 28.7928 305.26 30.0854 305.26 31.5866C305.26 33.2545 304.766 34.7765 303.778 36.1526C302.831 37.4869 301.513 38.5502 299.825 39.3425C298.137 40.1348 296.243 40.5309 294.143 40.5309C292.249 40.5309 290.396 40.2807 288.585 39.7803C286.814 39.3216 285.579 38.8004 284.879 38.2166C284.55 38.0081 284.385 37.5703 284.385 36.9031L284.076 29.8352C284.076 29.6684 284.179 29.5642 284.385 29.5225C284.591 29.4808 284.735 29.5433 284.817 29.7101C286.382 32.4622 287.967 34.714 289.573 36.4653C291.179 38.2166 293.011 39.0923 295.07 39.0923C296.305 39.0923 297.334 38.717 298.158 37.9664C298.981 37.2159 299.393 36.09 299.393 34.5889C299.393 33.2545 299.043 32.087 298.343 31.0862C297.684 30.0854 296.861 29.2515 295.872 28.5843C294.884 27.8754 293.567 27.0623 291.92 26.1449C289.49 24.8106 287.638 23.5596 286.361 22.3921C285.085 21.1828 284.447 19.6191 284.447 17.701C284.447 15.2825 285.497 13.3644 287.596 11.9466C289.696 10.4872 292.229 9.75744 295.193 9.75744C296.511 9.75744 297.89 9.90338 299.331 10.1953C300.772 10.4872 301.925 10.8207 302.79 11.196C303.16 11.3211 303.407 11.4879 303.531 11.6964C303.654 11.8632 303.716 12.1134 303.716 12.447V18.389C303.716 18.5141 303.613 18.6184 303.407 18.7018C303.201 18.7435 303.057 18.7018 302.975 18.5767C302.193 16.9087 301.102 15.2616 299.702 13.6354C298.302 12.0092 296.449 11.196 294.143 11.196C292.743 11.196 291.693 11.5713 290.993 12.3219C290.293 13.0308 289.943 13.969 289.943 15.1365Z" fill="white"/>
<path d="M317.234 11.759C315.67 11.759 314.167 12.4261 312.726 13.7605C311.326 15.0948 310.214 16.9087 309.39 19.2021C309.349 19.3272 309.226 19.3898 309.02 19.3898C308.814 19.3898 308.711 19.3272 308.711 19.2021C308.876 17.8678 309.061 16.1373 309.267 14.0107C309.473 11.8424 309.576 10.2161 309.576 9.13196C309.576 8.92347 309.679 8.81922 309.885 8.81922C310.132 8.81922 310.255 8.92347 310.255 9.13196C310.255 9.67404 310.564 10.0285 311.182 10.1953C311.799 10.3204 312.581 10.3829 313.528 10.3829C317.069 10.4663 320.178 10.508 322.854 10.508L328.228 10.4455C328.928 10.4038 329.875 10.3829 331.069 10.3829C332.674 10.3829 333.868 10.2995 334.651 10.1327C335.474 9.92423 335.989 9.50725 336.195 8.88177C336.236 8.75667 336.36 8.69413 336.565 8.69413C336.812 8.69413 336.936 8.75667 336.936 8.88177L336.751 12.0092C336.504 15.6786 336.38 18.0763 336.38 19.2021C336.38 19.3272 336.257 19.3898 336.01 19.3898C335.763 19.3898 335.639 19.3272 335.639 19.2021C335.433 17.9095 334.96 16.7002 334.218 15.5744C333.477 14.4068 332.592 13.4894 331.563 12.8223C330.575 12.1134 329.566 11.759 328.536 11.759C327.548 11.759 326.889 12.03 326.56 12.5721C326.231 13.0725 326.066 14.0732 326.066 15.5744V34.714C326.066 35.9649 326.169 36.9031 326.375 37.5286C326.622 38.1124 327.054 38.5085 327.672 38.717C328.289 38.9255 329.278 39.0297 330.636 39.0297C330.76 39.0297 330.822 39.1548 330.822 39.405C330.822 39.6552 330.76 39.7803 330.636 39.7803C329.278 39.7803 328.207 39.7595 327.425 39.7178L322.793 39.6552L318.284 39.7178C317.502 39.7595 316.39 39.7803 314.949 39.7803C314.867 39.7803 314.825 39.6552 314.825 39.405C314.825 39.1548 314.867 39.0297 314.949 39.0297C316.349 39.0297 317.358 38.9255 317.975 38.717C318.634 38.5085 319.066 38.1124 319.272 37.5286C319.519 36.9031 319.643 35.9649 319.643 34.714V15.4493C319.643 13.9064 319.499 12.9057 319.21 12.447C318.922 11.9883 318.263 11.759 317.234 11.759Z" fill="white"/>
<path d="M363.861 31.4615C363.943 31.3364 364.087 31.2738 364.293 31.2738C364.499 31.2738 364.602 31.3364 364.602 31.4615C364.314 34.4638 364.17 36.924 364.17 38.8421C364.17 39.1757 364.108 39.4259 363.984 39.5927C363.861 39.7178 363.614 39.7803 363.243 39.7803H340.021C339.939 39.7803 339.898 39.6552 339.898 39.405C339.898 39.1548 339.939 39.0297 340.021 39.0297C341.215 39.0297 342.08 38.9255 342.615 38.717C343.15 38.5085 343.521 38.1124 343.727 37.5286C343.933 36.9031 344.036 35.9649 344.036 34.714V15.5744C344.036 14.3234 343.933 13.4061 343.727 12.8223C343.521 12.2385 343.13 11.8424 342.553 11.6339C342.018 11.3837 341.174 11.2586 340.021 11.2586C339.939 11.2586 339.898 11.1335 339.898 10.8833C339.898 10.6331 339.939 10.508 340.021 10.508H362.132C362.543 10.508 362.749 10.6748 362.749 11.0084L362.811 14.8863C362.852 15.6786 362.873 16.6794 362.873 17.8886C362.873 18.0137 362.749 18.0763 362.502 18.0763C362.296 18.0763 362.173 18.0137 362.132 17.8886C361.349 16.0539 360.155 14.5111 358.549 13.2601C356.944 11.9675 355.317 11.3211 353.67 11.3211H353.238C352.332 11.3211 351.653 11.4462 351.2 11.6964C350.788 11.9049 350.5 12.301 350.335 12.8848C350.212 13.4686 350.15 14.386 350.15 15.6369V24.0809C353.279 24.0392 355.585 23.9141 357.067 23.7056C358.549 23.4971 359.394 23.3928 359.599 23.3928C359.888 23.3928 360.032 23.8515 360.032 24.7689C360.032 25.1859 359.991 25.5611 359.908 25.8947C359.826 26.2283 359.723 26.3951 359.599 26.3951C359.352 26.3951 358.488 26.2909 357.005 26.0824C355.523 25.8739 353.238 25.7279 350.15 25.6445V34.4638C350.15 35.7147 350.212 36.6321 350.335 37.2159C350.5 37.7996 350.788 38.2166 351.2 38.4668C351.653 38.6753 352.332 38.7796 353.238 38.7796H353.917C355.853 38.7796 357.767 38.0915 359.661 36.7155C361.555 35.2977 362.955 33.5464 363.861 31.4615Z" fill="white"/>
<path d="M401.774 39.0297C401.898 39.0297 401.959 39.1548 401.959 39.405C401.959 39.6552 401.898 39.7803 401.774 39.7803H391.645C391.028 39.7803 389.916 38.5294 388.31 36.0275C386.746 33.5256 384.872 30.0854 382.69 25.7071C381.825 25.8322 380.961 25.8947 380.096 25.8947H379.046V34.714C379.046 36.0066 379.128 36.9448 379.293 37.5286C379.499 38.1124 379.849 38.5085 380.343 38.717C380.878 38.9255 381.722 39.0297 382.875 39.0297C382.958 39.0297 382.999 39.1548 382.999 39.405C382.999 39.6552 382.958 39.7803 382.875 39.7803C381.64 39.7803 380.672 39.7595 379.972 39.7178L375.773 39.6552L371.758 39.7178C371.017 39.7595 369.988 39.7803 368.67 39.7803C368.588 39.7803 368.547 39.6552 368.547 39.405C368.547 39.1548 368.588 39.0297 368.67 39.0297C369.823 39.0297 370.667 38.9255 371.202 38.717C371.738 38.5085 372.108 38.1124 372.314 37.5286C372.52 36.9031 372.623 35.9649 372.623 34.714V15.5744C372.623 14.3234 372.52 13.4061 372.314 12.8223C372.149 12.2385 371.799 11.8424 371.264 11.6339C370.729 11.3837 369.905 11.2586 368.794 11.2586C368.67 11.2586 368.608 11.1335 368.608 10.8833C368.608 10.6331 368.67 10.508 368.794 10.508L371.82 10.5706C373.467 10.654 374.784 10.6957 375.773 10.6957C376.555 10.6957 377.276 10.6748 377.934 10.6331C378.593 10.5914 379.17 10.5497 379.664 10.508C381.022 10.3829 382.299 10.3204 383.493 10.3204C386.704 10.3204 389.154 10.8416 390.842 11.8841C392.531 12.9265 393.375 14.4277 393.375 16.3875C393.375 18.0137 392.86 19.5149 391.831 20.8909C390.801 22.267 389.381 23.3928 387.569 24.2685C389.792 28.0631 391.707 31.0236 393.313 33.1503C394.919 35.2769 396.38 36.7989 397.698 37.7162C399.016 38.5919 400.374 39.0297 401.774 39.0297ZM379.046 24.6438C379.334 24.6855 379.828 24.7063 380.528 24.7063C382.875 24.7063 384.502 24.1642 385.407 23.0801C386.313 21.9542 386.766 20.2863 386.766 18.0763C386.766 13.7396 385.202 11.5713 382.072 11.5713C381.208 11.5713 380.569 11.6756 380.158 11.8841C379.746 12.0926 379.458 12.4887 379.293 13.0725C379.128 13.6145 379.046 14.4902 379.046 15.6995V24.6438Z" fill="white"/>
<path d="M413.069 34.714C413.069 35.9649 413.172 36.9031 413.378 37.5286C413.583 38.1124 413.954 38.5085 414.489 38.717C415.025 38.9255 415.889 39.0297 417.083 39.0297C417.166 39.0297 417.207 39.1548 417.207 39.405C417.207 39.6552 417.166 39.7803 417.083 39.7803C415.807 39.7803 414.819 39.7595 414.119 39.7178L409.919 39.6552L405.904 39.7178C405.163 39.7595 404.134 39.7803 402.816 39.7803C402.734 39.7803 402.693 39.6552 402.693 39.405C402.693 39.1548 402.734 39.0297 402.816 39.0297C404.01 39.0297 404.875 38.9255 405.41 38.717C405.987 38.5085 406.378 38.1124 406.584 37.5286C406.79 36.9031 406.893 35.9649 406.893 34.714V15.5744C406.893 14.3234 406.79 13.4061 406.584 12.8223C406.378 12.2385 405.987 11.8424 405.41 11.6339C404.875 11.3837 404.01 11.2586 402.816 11.2586C402.734 11.2586 402.693 11.1335 402.693 10.8833C402.693 10.6331 402.734 10.508 402.816 10.508L405.904 10.5706C407.551 10.654 408.89 10.6957 409.919 10.6957C411.031 10.6957 412.451 10.654 414.18 10.5706L417.083 10.508C417.166 10.508 417.207 10.6331 417.207 10.8833C417.207 11.1335 417.166 11.2586 417.083 11.2586C415.93 11.2586 415.066 11.3837 414.489 11.6339C413.954 11.8841 413.583 12.3219 413.378 12.9474C413.172 13.5311 413.069 14.4485 413.069 15.6995V34.714Z" fill="white"/>
<path d="M453.691 39.0297C453.897 39.0297 454 39.1548 454 39.405C454 39.6552 453.897 39.7803 453.691 39.7803C452.827 39.7803 451.53 39.7386 449.8 39.6552C447.989 39.5718 446.712 39.5301 445.971 39.5301C445.271 39.5301 444.18 39.5718 442.698 39.6552C441.298 39.7386 440.31 39.7803 439.733 39.7803C439.568 39.7803 439.486 39.6552 439.486 39.405C439.486 39.1548 439.568 39.0297 439.733 39.0297C440.68 39.0297 441.339 38.9255 441.71 38.717C442.121 38.4668 442.327 38.1124 442.327 37.6537C442.327 37.0699 441.977 36.0275 441.277 34.5263L437.572 26.4577H430.407L428.06 32.087C427.319 33.8383 426.949 35.2143 426.949 36.2151C426.949 37.2159 427.299 37.9456 427.999 38.4043C428.698 38.8213 429.79 39.0297 431.272 39.0297C431.478 39.0297 431.581 39.1548 431.581 39.405C431.581 39.6552 431.478 39.7803 431.272 39.7803C430.695 39.7803 429.872 39.7386 428.801 39.6552C427.649 39.5718 426.578 39.5301 425.59 39.5301C424.56 39.5301 423.346 39.5718 421.946 39.6552C420.711 39.7386 419.702 39.7803 418.92 39.7803C418.714 39.7803 418.611 39.6552 418.611 39.405C418.611 39.1548 418.714 39.0297 418.92 39.0297C420.196 39.0297 421.225 38.8421 422.008 38.4668C422.79 38.0915 423.511 37.3827 424.169 36.3402C424.869 35.2977 425.672 33.6923 426.578 31.524L435.842 9.56979C435.925 9.403 436.048 9.3196 436.213 9.3196C436.378 9.3196 436.501 9.403 436.583 9.56979L446.465 31.2113C447.495 33.463 448.339 35.1309 448.997 36.2151C449.697 37.2993 450.397 38.0498 451.097 38.4668C451.797 38.8421 452.662 39.0297 453.691 39.0297ZM431.087 24.8314H436.83L433.804 18.2639L431.087 24.8314Z" fill="white"/>
</svg>
