<svg width="271" height="48" viewBox="0 0 271 48" fill="none" xmlns="http://www.w3.org/2000/svg">
<path d="M47.9223 48C47.8977 48 47.8854 47.9634 47.8854 47.8902C47.8854 47.8169 47.8977 47.7803 47.9223 47.7803C48.377 47.7803 48.7088 47.7498 48.9177 47.6888C49.1389 47.6278 49.2863 47.5118 49.3601 47.341C49.4338 47.1579 49.4707 46.8833 49.4707 46.5172V38.0412C49.4707 37.6751 49.4338 37.4066 49.3601 37.2357C49.2863 37.0648 49.145 36.9489 48.9361 36.8879C48.7395 36.8146 48.4261 36.778 47.996 36.778C47.9592 36.778 47.9407 36.7414 47.9407 36.6682C47.9407 36.595 47.9592 36.5584 47.996 36.5584H55.8485C55.9714 36.5584 56.0329 36.6133 56.0329 36.7231L56.0697 39.3226C56.0697 39.3593 56.0329 39.3837 55.9591 39.3959C55.8977 39.3959 55.8608 39.3776 55.8485 39.341C55.7625 38.5721 55.5106 37.9924 55.0928 37.6018C54.6872 37.1991 54.1465 36.9977 53.4707 36.9977H52.3094C51.781 36.9977 51.4184 37.0709 51.2218 37.2174C51.0375 37.3638 50.9453 37.6445 50.9453 38.0595V46.4439C50.9453 46.8345 50.9945 47.1213 51.0928 47.3043C51.2034 47.4752 51.4061 47.5972 51.7011 47.6705C51.996 47.7437 52.463 47.7803 53.102 47.7803C53.1266 47.7803 53.1389 47.8169 53.1389 47.8902C53.1389 47.9634 53.1266 48 53.102 48C52.5982 48 52.2049 47.9939 51.9223 47.9817L50.1896 47.9634L48.8992 47.9817C48.6658 47.9939 48.3401 48 47.9223 48Z" fill="white"/>
<path d="M59.359 46.4439C59.359 46.8223 59.402 47.103 59.4881 47.286C59.5741 47.4691 59.7338 47.5972 59.9673 47.6705C60.2131 47.7437 60.5941 47.7803 61.1102 47.7803C61.1471 47.7803 61.1655 47.8169 61.1655 47.8902C61.1655 47.9634 61.1471 48 61.1102 48C60.6678 48 60.3176 47.9939 60.0595 47.9817L58.6954 47.9634L57.5526 47.9817C57.3437 47.9939 57.0549 48 56.6862 48C56.6617 48 56.6494 47.9634 56.6494 47.8902C56.6494 47.8169 56.6617 47.7803 56.6862 47.7803C57.0672 47.7803 57.3498 47.7498 57.5342 47.6888C57.7185 47.6278 57.8414 47.5118 57.9028 47.341C57.9766 47.1579 58.0134 46.8833 58.0134 46.5172V40.9153C58.0134 40.5492 57.9766 40.2807 57.9028 40.1098C57.8414 39.939 57.7185 39.823 57.5342 39.762C57.3498 39.6888 57.0672 39.6522 56.6862 39.6522C56.6617 39.6522 56.6494 39.6156 56.6494 39.5423C56.6494 39.4691 56.6617 39.4325 56.6862 39.4325L57.5342 39.4508C58.0257 39.4752 58.4067 39.4874 58.677 39.4874C58.9842 39.4874 59.3345 39.4691 59.7277 39.4325C59.8629 39.4203 60.0226 39.4081 60.207 39.3959C60.4036 39.3837 60.6186 39.3776 60.8521 39.3776C62.9166 39.3776 63.9489 40.1037 63.9489 41.5561C63.9489 42.1419 63.7953 42.6423 63.4881 43.0572C63.1931 43.4599 62.8122 43.7651 62.3452 43.9725C61.8782 44.1678 61.3928 44.2654 60.889 44.2654C60.5941 44.2654 60.3667 44.2471 60.207 44.2105C60.1701 44.1861 60.1517 44.1434 60.1517 44.0824C60.1517 44.0092 60.1824 43.9725 60.2438 43.9725C60.3176 43.9725 60.3913 43.9786 60.465 43.9908C60.5511 44.003 60.6432 44.0092 60.7415 44.0092C61.2331 44.0092 61.6386 43.8322 61.9581 43.4783C62.2776 43.1243 62.4374 42.6117 62.4374 41.9405C62.4374 41.1716 62.2592 40.598 61.9028 40.2197C61.5464 39.8413 61.0487 39.6522 60.4097 39.6522C60.1394 39.6522 59.9305 39.6827 59.783 39.7437C59.6478 39.7925 59.5434 39.9085 59.4696 40.0915C59.3959 40.2746 59.359 40.5614 59.359 40.9519V46.4439Z" fill="white"/>
<path d="M74.1393 47.7803C74.2007 47.7803 74.2314 47.8169 74.2314 47.8902C74.2314 47.9634 74.2007 48 74.1393 48C73.9058 48 73.5432 47.9878 73.0517 47.9634C72.5356 47.939 72.1669 47.9268 71.9457 47.9268C71.7614 47.9268 71.4849 47.939 71.1162 47.9634C70.7721 47.9878 70.5079 48 70.3236 48C70.2744 48 70.2499 47.9634 70.2499 47.8902C70.2499 47.8169 70.2744 47.7803 70.3236 47.7803C70.6308 47.7803 70.852 47.7437 70.9872 47.6705C71.1346 47.585 71.2084 47.4569 71.2084 47.286C71.2084 47.0664 71.1285 46.7918 70.9688 46.4622L69.7706 43.8993H67.319L66.5632 45.7483C66.3543 46.2609 66.2499 46.6514 66.2499 46.9199C66.2499 47.225 66.3543 47.4447 66.5632 47.5789C66.7844 47.7132 67.1224 47.7803 67.577 47.7803C67.6385 47.7803 67.6692 47.8169 67.6692 47.8902C67.6692 47.9634 67.6385 48 67.577 48C67.3927 48 67.1408 47.9878 66.8213 47.9634C66.4772 47.939 66.1577 47.9268 65.8628 47.9268C65.5555 47.9268 65.193 47.939 64.7752 47.9634C64.4065 47.9878 64.1116 48 63.8904 48C63.829 48 63.7983 47.9634 63.7983 47.8902C63.7983 47.8169 63.829 47.7803 63.8904 47.7803C64.2714 47.7803 64.5724 47.7254 64.7936 47.6156C65.0271 47.5057 65.236 47.3043 65.4204 47.0114C65.617 46.7063 65.8505 46.2304 66.1208 45.5835L68.8121 39.1579C68.8366 39.1091 68.8735 39.0847 68.9227 39.0847C68.9718 39.0847 69.0087 39.1091 69.0333 39.1579L71.9826 45.492C72.3021 46.1632 72.5602 46.6575 72.7568 46.9748C72.9534 47.2799 73.15 47.4935 73.3466 47.6156C73.5555 47.7254 73.8197 47.7803 74.1393 47.7803ZM67.4849 43.5149H69.5863L68.4618 41.1167L67.4849 43.5149Z" fill="white"/>
<path d="M85.0815 47.7803C85.1061 47.7803 85.1183 47.8169 85.1183 47.8902C85.1183 47.9634 85.1061 48 85.0815 48C84.7128 48 84.424 47.9939 84.2151 47.9817L83.0907 47.9634L81.911 47.9817C81.7144 47.9939 81.4379 48 81.0815 48C81.0446 48 81.0262 47.9634 81.0262 47.8902C81.0262 47.8169 81.0446 47.7803 81.0815 47.7803C81.4747 47.7803 81.7574 47.7498 81.9294 47.6888C82.1137 47.6278 82.2366 47.5118 82.2981 47.341C82.3595 47.1579 82.3902 46.8833 82.3902 46.5172V43.8627H77.4686V46.5172C77.4686 46.8833 77.4993 47.1579 77.5608 47.341C77.6222 47.5118 77.7389 47.6278 77.911 47.6888C78.0953 47.7498 78.3841 47.7803 78.7773 47.7803C78.8142 47.7803 78.8326 47.8169 78.8326 47.8902C78.8326 47.9634 78.8142 48 78.7773 48C78.421 48 78.1445 47.9939 77.9479 47.9817L76.7866 47.9634L75.6437 47.9817C75.4348 47.9939 75.146 48 74.7774 48C74.7528 48 74.7405 47.9634 74.7405 47.8902C74.7405 47.8169 74.7528 47.7803 74.7774 47.7803C75.1706 47.7803 75.4594 47.7498 75.6437 47.6888C75.828 47.6278 75.9509 47.5118 76.0124 47.341C76.0861 47.1579 76.123 46.8833 76.123 46.5172V40.9153C76.123 40.5492 76.0861 40.2807 76.0124 40.1098C75.9509 39.939 75.828 39.823 75.6437 39.762C75.4717 39.6888 75.1952 39.6522 74.8142 39.6522C74.7774 39.6522 74.7589 39.6156 74.7589 39.5423C74.7589 39.4691 74.7774 39.4325 74.8142 39.4325L75.6437 39.4508C76.1107 39.4752 76.4916 39.4874 76.7866 39.4874C77.0815 39.4874 77.4747 39.4752 77.9663 39.4508L78.7773 39.4325C78.8142 39.4325 78.8326 39.4691 78.8326 39.5423C78.8326 39.6156 78.8142 39.6522 78.7773 39.6522C78.3964 39.6522 78.1138 39.6888 77.9294 39.762C77.7574 39.8352 77.6345 39.9634 77.5608 40.1465C77.4993 40.3173 77.4686 40.5858 77.4686 40.9519V43.4966H82.3902V40.9519C82.3902 40.5858 82.3595 40.3173 82.2981 40.1465C82.2366 39.9634 82.1137 39.8352 81.9294 39.762C81.7451 39.6888 81.4624 39.6522 81.0815 39.6522C81.0446 39.6522 81.0262 39.6156 81.0262 39.5423C81.0262 39.4691 81.0446 39.4325 81.0815 39.4325L81.911 39.4508C82.378 39.4752 82.7712 39.4874 83.0907 39.4874C83.3733 39.4874 83.7482 39.4752 84.2151 39.4508L85.0815 39.4325C85.1061 39.4325 85.1183 39.4691 85.1183 39.5423C85.1183 39.6156 85.1061 39.6522 85.0815 39.6522C84.6882 39.6522 84.3995 39.6888 84.2151 39.762C84.0308 39.823 83.9018 39.939 83.828 40.1098C83.7666 40.2807 83.7359 40.5492 83.7359 40.9153V46.5172C83.7359 46.8833 83.7666 47.1579 83.828 47.341C83.9018 47.5118 84.0308 47.6278 84.2151 47.6888C84.3995 47.7498 84.6882 47.7803 85.0815 47.7803Z" fill="white"/>
<path d="M89.1183 46.5172C89.1183 46.8833 89.1491 47.1579 89.2105 47.341C89.2719 47.5118 89.3887 47.6278 89.5607 47.6888C89.7451 47.7498 90.0339 47.7803 90.4271 47.7803C90.464 47.7803 90.4824 47.8169 90.4824 47.8902C90.4824 47.9634 90.464 48 90.4271 48C90.0707 48 89.7942 47.9939 89.5976 47.9817L88.4179 47.9634L87.275 47.9817C87.0661 47.9939 86.7773 48 86.4087 48C86.3841 48 86.3718 47.9634 86.3718 47.8902C86.3718 47.8169 86.3841 47.7803 86.4087 47.7803C86.8019 47.7803 87.0907 47.7498 87.275 47.6888C87.4594 47.6278 87.5822 47.5118 87.6437 47.341C87.7174 47.1579 87.7543 46.8833 87.7543 46.5172V40.9153C87.7543 40.5492 87.7174 40.2807 87.6437 40.1098C87.5822 39.939 87.4594 39.823 87.275 39.762C87.0907 39.6888 86.8019 39.6522 86.4087 39.6522C86.3841 39.6522 86.3718 39.6156 86.3718 39.5423C86.3718 39.4691 86.3841 39.4325 86.4087 39.4325L87.275 39.4508C87.742 39.4752 88.1229 39.4874 88.4179 39.4874C88.7251 39.4874 89.1245 39.4752 89.616 39.4508L90.4271 39.4325C90.464 39.4325 90.4824 39.4691 90.4824 39.5423C90.4824 39.6156 90.464 39.6522 90.4271 39.6522C90.0461 39.6522 89.7635 39.6888 89.5792 39.762C89.4071 39.8352 89.2842 39.9634 89.2105 40.1465C89.1491 40.3173 89.1183 40.5858 89.1183 40.9519V46.5172Z" fill="white"/>
<path d="M93.9828 39.7071C93.3684 39.7071 92.8953 39.878 92.5635 40.2197C92.2317 40.5492 91.9798 41.0984 91.8077 41.8673C91.8077 41.8917 91.7708 41.9039 91.6971 41.9039C91.6357 41.9039 91.6049 41.8917 91.6049 41.8673C91.6541 41.4889 91.7032 41.0008 91.7524 40.4027C91.8016 39.8047 91.8261 39.3471 91.8261 39.0297C91.8261 38.9687 91.8569 38.9382 91.9183 38.9382C91.992 38.9382 92.0289 38.9687 92.0289 39.0297C92.0289 39.1884 92.1211 39.2921 92.3054 39.341C92.4897 39.3776 92.7232 39.3959 93.0059 39.3959C94.0627 39.4203 94.9905 39.4325 95.7893 39.4325L97.3929 39.4142C97.6019 39.402 97.8845 39.3959 98.2409 39.3959C98.7078 39.3959 99.0458 39.3715 99.2547 39.3226C99.4759 39.2616 99.6172 39.1396 99.6787 38.9565C99.7032 38.9199 99.7462 38.9016 99.8077 38.9016C99.8691 38.9016 99.8998 38.9199 99.8998 38.9565C99.8138 40.5309 99.7708 41.5011 99.7708 41.8673C99.7708 41.8917 99.734 41.9039 99.6602 41.9039C99.5988 41.9039 99.5681 41.8917 99.5681 41.8673C99.5189 41.1228 99.3346 40.5797 99.0151 40.238C98.6956 39.8841 98.2224 39.7071 97.5957 39.7071C97.141 39.7071 96.84 39.7925 96.6925 39.9634C96.545 40.122 96.4713 40.4394 96.4713 40.9153V46.5172C96.4713 46.8955 96.502 47.1701 96.5635 47.341C96.6372 47.5118 96.7785 47.6278 96.9874 47.6888C97.1963 47.7498 97.5281 47.7803 97.9828 47.7803C98.0074 47.7803 98.0197 47.8169 98.0197 47.8902C98.0197 47.9634 98.0074 48 97.9828 48C97.5773 48 97.2639 47.9939 97.0427 47.9817L95.7524 47.9634L94.4805 47.9817C94.247 47.9939 93.9275 48 93.522 48C93.4974 48 93.4851 47.9634 93.4851 47.8902C93.4851 47.8169 93.4974 47.7803 93.522 47.7803C93.9767 47.7803 94.3085 47.7498 94.5174 47.6888C94.7263 47.6278 94.8676 47.5118 94.9413 47.341C95.0274 47.1579 95.0704 46.8833 95.0704 46.5172V40.8787C95.0704 40.537 95.0458 40.2868 94.9966 40.1281C94.9475 39.9695 94.8492 39.8596 94.7017 39.7986C94.5542 39.7376 94.3146 39.7071 93.9828 39.7071Z" fill="white"/>
<path d="M111.237 47.7803C111.262 47.7803 111.274 47.8169 111.274 47.8902C111.274 47.9634 111.262 48 111.237 48C110.868 48 110.58 47.9939 110.371 47.9817L109.246 47.9634L108.067 47.9817C107.87 47.9939 107.593 48 107.237 48C107.2 48 107.182 47.9634 107.182 47.8902C107.182 47.8169 107.2 47.7803 107.237 47.7803C107.63 47.7803 107.913 47.7498 108.085 47.6888C108.269 47.6278 108.392 47.5118 108.454 47.341C108.515 47.1579 108.546 46.8833 108.546 46.5172V43.8627H103.624V46.5172C103.624 46.8833 103.655 47.1579 103.716 47.341C103.778 47.5118 103.895 47.6278 104.067 47.6888C104.251 47.7498 104.54 47.7803 104.933 47.7803C104.97 47.7803 104.988 47.8169 104.988 47.8902C104.988 47.9634 104.97 48 104.933 48C104.577 48 104.3 47.9939 104.103 47.9817L102.942 47.9634L101.799 47.9817C101.59 47.9939 101.302 48 100.933 48C100.908 48 100.896 47.9634 100.896 47.8902C100.896 47.8169 100.908 47.7803 100.933 47.7803C101.326 47.7803 101.615 47.7498 101.799 47.6888C101.984 47.6278 102.107 47.5118 102.168 47.341C102.242 47.1579 102.279 46.8833 102.279 46.5172V40.9153C102.279 40.5492 102.242 40.2807 102.168 40.1098C102.107 39.939 101.984 39.823 101.799 39.762C101.627 39.6888 101.351 39.6522 100.97 39.6522C100.933 39.6522 100.915 39.6156 100.915 39.5423C100.915 39.4691 100.933 39.4325 100.97 39.4325L101.799 39.4508C102.266 39.4752 102.647 39.4874 102.942 39.4874C103.237 39.4874 103.63 39.4752 104.122 39.4508L104.933 39.4325C104.97 39.4325 104.988 39.4691 104.988 39.5423C104.988 39.6156 104.97 39.6522 104.933 39.6522C104.552 39.6522 104.269 39.6888 104.085 39.762C103.913 39.8352 103.79 39.9634 103.716 40.1465C103.655 40.3173 103.624 40.5858 103.624 40.9519V43.4966H108.546V40.9519C108.546 40.5858 108.515 40.3173 108.454 40.1465C108.392 39.9634 108.269 39.8352 108.085 39.762C107.901 39.6888 107.618 39.6522 107.237 39.6522C107.2 39.6522 107.182 39.6156 107.182 39.5423C107.182 39.4691 107.2 39.4325 107.237 39.4325L108.067 39.4508C108.534 39.4752 108.927 39.4874 109.246 39.4874C109.529 39.4874 109.904 39.4752 110.371 39.4508L111.237 39.4325C111.262 39.4325 111.274 39.4691 111.274 39.5423C111.274 39.6156 111.262 39.6522 111.237 39.6522C110.844 39.6522 110.555 39.6888 110.371 39.762C110.186 39.823 110.057 39.939 109.984 40.1098C109.922 40.2807 109.891 40.5492 109.891 40.9153V46.5172C109.891 46.8833 109.922 47.1579 109.984 47.341C110.057 47.5118 110.186 47.6278 110.371 47.6888C110.555 47.7498 110.844 47.7803 111.237 47.7803Z" fill="white"/>
<path d="M115.274 46.5172C115.274 46.8833 115.305 47.1579 115.366 47.341C115.428 47.5118 115.544 47.6278 115.716 47.6888C115.901 47.7498 116.189 47.7803 116.583 47.7803C116.62 47.7803 116.638 47.8169 116.638 47.8902C116.638 47.9634 116.62 48 116.583 48C116.226 48 115.95 47.9939 115.753 47.9817L114.573 47.9634L113.431 47.9817C113.222 47.9939 112.933 48 112.564 48C112.54 48 112.527 47.9634 112.527 47.8902C112.527 47.8169 112.54 47.7803 112.564 47.7803C112.958 47.7803 113.246 47.7498 113.431 47.6888C113.615 47.6278 113.738 47.5118 113.799 47.341C113.873 47.1579 113.91 46.8833 113.91 46.5172V40.9153C113.91 40.5492 113.873 40.2807 113.799 40.1098C113.738 39.939 113.615 39.823 113.431 39.762C113.246 39.6888 112.958 39.6522 112.564 39.6522C112.54 39.6522 112.527 39.6156 112.527 39.5423C112.527 39.4691 112.54 39.4325 112.564 39.4325L113.431 39.4508C113.898 39.4752 114.279 39.4874 114.573 39.4874C114.881 39.4874 115.28 39.4752 115.772 39.4508L116.583 39.4325C116.62 39.4325 116.638 39.4691 116.638 39.5423C116.638 39.6156 116.62 39.6522 116.583 39.6522C116.202 39.6522 115.919 39.6888 115.735 39.762C115.563 39.8352 115.44 39.9634 115.366 40.1465C115.305 40.3173 115.274 40.5858 115.274 40.9519V46.5172Z" fill="white"/>
<path d="M122.228 48C122.204 48 122.191 47.9634 122.191 47.8902C122.191 47.8169 122.204 47.7803 122.228 47.7803C122.622 47.7803 122.91 47.7498 123.095 47.6888C123.279 47.6278 123.402 47.5118 123.463 47.341C123.537 47.1579 123.574 46.8833 123.574 46.5172V40.9153C123.574 40.5492 123.537 40.2807 123.463 40.1098C123.402 39.939 123.279 39.823 123.095 39.762C122.923 39.6888 122.646 39.6522 122.265 39.6522C122.228 39.6522 122.21 39.6156 122.21 39.5423C122.21 39.4691 122.228 39.4325 122.265 39.4325H132.477C132.502 39.4325 132.514 39.4691 132.514 39.5423C132.514 39.6156 132.502 39.6522 132.477 39.6522C132.084 39.6522 131.795 39.6888 131.611 39.762C131.426 39.823 131.297 39.939 131.224 40.1098C131.162 40.2807 131.132 40.5492 131.132 40.9153V46.5172C131.132 46.8833 131.162 47.1579 131.224 47.341C131.297 47.5118 131.426 47.6278 131.611 47.6888C131.795 47.7498 132.084 47.7803 132.477 47.7803C132.502 47.7803 132.514 47.8169 132.514 47.8902C132.514 47.9634 132.502 48 132.477 48C132.121 48 131.838 47.9939 131.629 47.9817L130.486 47.9634L129.307 47.9817C129.11 47.9939 128.84 48 128.496 48C128.459 48 128.44 47.9634 128.44 47.8902C128.44 47.8169 128.459 47.7803 128.496 47.7803C128.877 47.7803 129.153 47.7498 129.325 47.6888C129.509 47.6278 129.632 47.5118 129.694 47.341C129.767 47.1579 129.804 46.8833 129.804 46.5172V40.9519C129.804 40.6346 129.767 40.3966 129.694 40.238C129.632 40.0793 129.509 39.9695 129.325 39.9085C129.153 39.8474 128.877 39.8169 128.496 39.8169H126.228C125.847 39.8169 125.565 39.8474 125.38 39.9085C125.208 39.9695 125.085 40.0793 125.012 40.238C124.95 40.3966 124.92 40.6346 124.92 40.9519V46.5172C124.92 46.8833 124.95 47.1579 125.012 47.341C125.073 47.5118 125.19 47.6278 125.362 47.6888C125.546 47.7498 125.835 47.7803 126.228 47.7803C126.265 47.7803 126.284 47.8169 126.284 47.8902C126.284 47.9634 126.265 48 126.228 48C125.872 48 125.595 47.9939 125.399 47.9817L124.238 47.9634L123.095 47.9817C122.886 47.9939 122.597 48 122.228 48Z" fill="white"/>
<path d="M143.354 47.7803C143.415 47.7803 143.446 47.8169 143.446 47.8902C143.446 47.9634 143.415 48 143.354 48C143.12 48 142.758 47.9878 142.266 47.9634C141.75 47.939 141.381 47.9268 141.16 47.9268C140.976 47.9268 140.699 47.939 140.331 47.9634C139.986 47.9878 139.722 48 139.538 48C139.489 48 139.464 47.9634 139.464 47.8902C139.464 47.8169 139.489 47.7803 139.538 47.7803C139.845 47.7803 140.066 47.7437 140.201 47.6705C140.349 47.585 140.423 47.4569 140.423 47.286C140.423 47.0664 140.343 46.7918 140.183 46.4622L138.985 43.8993H136.533L135.778 45.7483C135.569 46.2609 135.464 46.6514 135.464 46.9199C135.464 47.225 135.569 47.4447 135.778 47.5789C135.999 47.7132 136.337 47.7803 136.791 47.7803C136.853 47.7803 136.883 47.8169 136.883 47.8902C136.883 47.9634 136.853 48 136.791 48C136.607 48 136.355 47.9878 136.036 47.9634C135.691 47.939 135.372 47.9268 135.077 47.9268C134.77 47.9268 134.407 47.939 133.99 47.9634C133.621 47.9878 133.326 48 133.105 48C133.043 48 133.013 47.9634 133.013 47.8902C133.013 47.8169 133.043 47.7803 133.105 47.7803C133.486 47.7803 133.787 47.7254 134.008 47.6156C134.241 47.5057 134.45 47.3043 134.635 47.0114C134.831 46.7063 135.065 46.2304 135.335 45.5835L138.026 39.1579C138.051 39.1091 138.088 39.0847 138.137 39.0847C138.186 39.0847 138.223 39.1091 138.248 39.1579L141.197 45.492C141.516 46.1632 141.774 46.6575 141.971 46.9748C142.168 47.2799 142.364 47.4935 142.561 47.6156C142.77 47.7254 143.034 47.7803 143.354 47.7803ZM136.699 43.5149H138.801L137.676 41.1167L136.699 43.5149Z" fill="white"/>
<path d="M155.512 47.7803C155.537 47.7803 155.549 47.8169 155.549 47.8902C155.549 47.9634 155.537 48 155.512 48C155.168 48 154.898 47.9939 154.701 47.9817L153.614 47.9634L152.36 47.9817C152.151 47.9939 151.863 48 151.494 48C151.469 48 151.457 47.9634 151.457 47.8902C151.457 47.8169 151.469 47.7803 151.494 47.7803C151.912 47.7803 152.219 47.7498 152.416 47.6888C152.624 47.6156 152.76 47.4935 152.821 47.3227C152.895 47.1518 152.919 46.8833 152.895 46.5172L152.655 40.4943L149.577 47.8719C149.552 47.9207 149.509 47.9451 149.448 47.9451C149.374 47.9451 149.325 47.9207 149.3 47.8719L145.761 41.0069L145.632 45.8947C145.62 46.566 145.706 47.048 145.89 47.341C146.087 47.6339 146.419 47.7803 146.886 47.7803C146.923 47.7803 146.941 47.8169 146.941 47.8902C146.941 47.9634 146.923 48 146.886 48C146.615 48 146.406 47.9939 146.259 47.9817L145.429 47.9634L144.618 47.9817C144.459 47.9939 144.231 48 143.936 48C143.912 48 143.899 47.9634 143.899 47.8902C143.899 47.8169 143.912 47.7803 143.936 47.7803C144.391 47.7803 144.717 47.64 144.913 47.3593C145.122 47.0664 145.239 46.5782 145.264 45.8947L145.411 40.4027C145.042 39.9024 144.588 39.6522 144.047 39.6522C144.01 39.6522 143.992 39.6156 143.992 39.5423C143.992 39.4691 144.01 39.4325 144.047 39.4325L145.227 39.4508L146.185 39.4325C146.345 39.4325 146.474 39.4935 146.572 39.6156C146.683 39.7254 146.843 39.9817 147.052 40.3844L149.964 46.0961L152.545 39.8902C152.594 39.7559 152.668 39.6461 152.766 39.5606C152.876 39.4752 152.987 39.4325 153.098 39.4325L154.13 39.4508L155.42 39.4325C155.445 39.4325 155.457 39.4691 155.457 39.5423C155.457 39.6156 155.445 39.6522 155.42 39.6522C154.904 39.6522 154.535 39.7376 154.314 39.9085C154.093 40.0671 154.001 40.3905 154.038 40.8787L154.296 46.5172C154.32 46.8955 154.357 47.1701 154.406 47.341C154.468 47.5118 154.578 47.6278 154.738 47.6888C154.898 47.7498 155.156 47.7803 155.512 47.7803Z" fill="white"/>
<path d="M157.365 36.4668C157.746 36.4668 158.047 36.6133 158.269 36.9062C158.49 37.1991 158.6 37.614 158.6 38.151C158.6 38.6636 158.484 39.1396 158.25 39.5789C158.029 40.0061 157.691 40.4394 157.236 40.8787C157.224 40.8909 157.206 40.897 157.181 40.897C157.144 40.897 157.113 40.8787 157.089 40.8421C157.064 40.8055 157.064 40.775 157.089 40.7506C157.691 40.1403 157.992 39.4203 157.992 38.5904C157.992 38.2487 157.931 37.9985 157.808 37.8398C157.697 38.0229 157.494 38.1144 157.199 38.1144C156.954 38.1144 156.757 38.0412 156.61 37.8947C156.474 37.7361 156.407 37.5347 156.407 37.2906C156.407 37.0221 156.487 36.8207 156.646 36.6865C156.818 36.54 157.058 36.4668 157.365 36.4668Z" fill="white"/>
<path d="M168.226 47.7803C168.25 47.7803 168.263 47.8169 168.263 47.8902C168.263 47.9634 168.25 48 168.226 48C167.857 48 167.568 47.9939 167.359 47.9817L166.235 47.9634L165.055 47.9817C164.859 47.9939 164.582 48 164.226 48C164.201 48 164.189 47.9634 164.189 47.8902C164.189 47.8169 164.201 47.7803 164.226 47.7803C164.619 47.7803 164.902 47.7498 165.074 47.6888C165.258 47.6278 165.381 47.5118 165.442 47.341C165.504 47.1579 165.535 46.8833 165.535 46.5172V43.9176C164.994 43.9298 164.551 44.003 164.207 44.1373C163.863 44.2715 163.55 44.5095 163.267 44.8513C162.997 45.1808 162.72 45.6567 162.438 46.2792C162.192 46.804 162.001 47.1884 161.866 47.4325C161.731 47.6644 161.621 47.8169 161.535 47.8902C161.461 47.9634 161.375 48 161.276 48H159.175C159.15 48 159.138 47.9634 159.138 47.8902C159.138 47.8169 159.15 47.7803 159.175 47.7803C159.654 47.7803 160.035 47.6339 160.318 47.341C160.613 47.0358 160.902 46.5904 161.184 46.0046C161.504 45.3089 161.891 44.7963 162.346 44.4668C162.8 44.1373 163.372 43.942 164.06 43.881C163.04 43.8078 162.309 43.582 161.866 43.2037C161.436 42.8131 161.221 42.2944 161.221 41.6476C161.221 40.9641 161.504 40.4149 162.069 40C162.647 39.585 163.415 39.3776 164.373 39.3776C164.594 39.3776 164.865 39.3959 165.184 39.4325C165.307 39.4447 165.455 39.4569 165.627 39.4691C165.811 39.4813 166.014 39.4874 166.235 39.4874C166.518 39.4874 166.892 39.4752 167.359 39.4508L168.226 39.4325C168.25 39.4325 168.263 39.4691 168.263 39.5423C168.263 39.6156 168.25 39.6522 168.226 39.6522C167.833 39.6522 167.544 39.6888 167.359 39.762C167.175 39.823 167.046 39.939 166.972 40.1098C166.911 40.2807 166.88 40.5492 166.88 40.9153V46.5172C166.88 46.8833 166.911 47.1579 166.972 47.341C167.046 47.5118 167.175 47.6278 167.359 47.6888C167.544 47.7498 167.833 47.7803 168.226 47.7803ZM164.779 43.643C165.049 43.643 165.301 43.6247 165.535 43.5881V40.9519C165.535 40.4516 165.442 40.1037 165.258 39.9085C165.074 39.7132 164.773 39.6156 164.355 39.6156C163.138 39.6156 162.53 40.1587 162.53 41.2449C162.53 41.9649 162.727 42.5446 163.12 42.984C163.513 43.4233 164.066 43.643 164.779 43.643Z" fill="white"/>
<path d="M171.676 39.7071C171.061 39.7071 170.588 39.878 170.256 40.2197C169.924 40.5492 169.673 41.0984 169.501 41.8673C169.501 41.8917 169.464 41.9039 169.39 41.9039C169.328 41.9039 169.298 41.8917 169.298 41.8673C169.347 41.4889 169.396 41.0008 169.445 40.4027C169.494 39.8047 169.519 39.3471 169.519 39.0297C169.519 38.9687 169.55 38.9382 169.611 38.9382C169.685 38.9382 169.722 38.9687 169.722 39.0297C169.722 39.1884 169.814 39.2921 169.998 39.341C170.183 39.3776 170.416 39.3959 170.699 39.3959C171.755 39.4203 172.683 39.4325 173.482 39.4325L175.086 39.4142C175.295 39.402 175.577 39.3959 175.934 39.3959C176.401 39.3959 176.739 39.3715 176.948 39.3226C177.169 39.2616 177.31 39.1396 177.371 38.9565C177.396 38.9199 177.439 38.9016 177.501 38.9016C177.562 38.9016 177.593 38.9199 177.593 38.9565C177.507 40.5309 177.464 41.5011 177.464 41.8673C177.464 41.8917 177.427 41.9039 177.353 41.9039C177.292 41.9039 177.261 41.8917 177.261 41.8673C177.212 41.1228 177.027 40.5797 176.708 40.238C176.388 39.8841 175.915 39.7071 175.289 39.7071C174.834 39.7071 174.533 39.7925 174.385 39.9634C174.238 40.122 174.164 40.4394 174.164 40.9153V46.5172C174.164 46.8955 174.195 47.1701 174.256 47.341C174.33 47.5118 174.471 47.6278 174.68 47.6888C174.889 47.7498 175.221 47.7803 175.676 47.7803C175.7 47.7803 175.712 47.8169 175.712 47.8902C175.712 47.9634 175.7 48 175.676 48C175.27 48 174.957 47.9939 174.736 47.9817L173.445 47.9634L172.173 47.9817C171.94 47.9939 171.62 48 171.215 48C171.19 48 171.178 47.9634 171.178 47.8902C171.178 47.8169 171.19 47.7803 171.215 47.7803C171.669 47.7803 172.001 47.7498 172.21 47.6888C172.419 47.6278 172.56 47.5118 172.634 47.341C172.72 47.1579 172.763 46.8833 172.763 46.5172V40.8787C172.763 40.537 172.739 40.2868 172.689 40.1281C172.64 39.9695 172.542 39.8596 172.395 39.7986C172.247 39.7376 172.007 39.7071 171.676 39.7071Z" fill="white"/>
<path d="M188.93 47.7803C188.954 47.7803 188.967 47.8169 188.967 47.8902C188.967 47.9634 188.954 48 188.93 48C188.561 48 188.272 47.9939 188.064 47.9817L186.939 47.9634L185.759 47.9817C185.563 47.9939 185.286 48 184.93 48C184.893 48 184.875 47.9634 184.875 47.8902C184.875 47.8169 184.893 47.7803 184.93 47.7803C185.323 47.7803 185.606 47.7498 185.778 47.6888C185.962 47.6278 186.085 47.5118 186.147 47.341C186.208 47.1579 186.239 46.8833 186.239 46.5172V43.8627H181.317V46.5172C181.317 46.8833 181.348 47.1579 181.409 47.341C181.471 47.5118 181.587 47.6278 181.759 47.6888C181.944 47.7498 182.233 47.7803 182.626 47.7803C182.663 47.7803 182.681 47.8169 182.681 47.8902C182.681 47.9634 182.663 48 182.626 48C182.269 48 181.993 47.9939 181.796 47.9817L180.635 47.9634L179.492 47.9817C179.283 47.9939 178.994 48 178.626 48C178.601 48 178.589 47.9634 178.589 47.8902C178.589 47.8169 178.601 47.7803 178.626 47.7803C179.019 47.7803 179.308 47.7498 179.492 47.6888C179.676 47.6278 179.799 47.5118 179.861 47.341C179.935 47.1579 179.971 46.8833 179.971 46.5172V40.9153C179.971 40.5492 179.935 40.2807 179.861 40.1098C179.799 39.939 179.676 39.823 179.492 39.762C179.32 39.6888 179.044 39.6522 178.663 39.6522C178.626 39.6522 178.607 39.6156 178.607 39.5423C178.607 39.4691 178.626 39.4325 178.663 39.4325L179.492 39.4508C179.959 39.4752 180.34 39.4874 180.635 39.4874C180.93 39.4874 181.323 39.4752 181.815 39.4508L182.626 39.4325C182.663 39.4325 182.681 39.4691 182.681 39.5423C182.681 39.6156 182.663 39.6522 182.626 39.6522C182.245 39.6522 181.962 39.6888 181.778 39.762C181.606 39.8352 181.483 39.9634 181.409 40.1465C181.348 40.3173 181.317 40.5858 181.317 40.9519V43.4966H186.239V40.9519C186.239 40.5858 186.208 40.3173 186.147 40.1465C186.085 39.9634 185.962 39.8352 185.778 39.762C185.594 39.6888 185.311 39.6522 184.93 39.6522C184.893 39.6522 184.875 39.6156 184.875 39.5423C184.875 39.4691 184.893 39.4325 184.93 39.4325L185.759 39.4508C186.226 39.4752 186.62 39.4874 186.939 39.4874C187.222 39.4874 187.597 39.4752 188.064 39.4508L188.93 39.4325C188.954 39.4325 188.967 39.4691 188.967 39.5423C188.967 39.6156 188.954 39.6522 188.93 39.6522C188.537 39.6522 188.248 39.6888 188.064 39.762C187.879 39.823 187.75 39.939 187.676 40.1098C187.615 40.2807 187.584 40.5492 187.584 40.9153V46.5172C187.584 46.8833 187.615 47.1579 187.676 47.341C187.75 47.5118 187.879 47.6278 188.064 47.6888C188.248 47.7498 188.537 47.7803 188.93 47.7803Z" fill="white"/>
<path d="M200.451 47.7803C200.475 47.7803 200.487 47.8169 200.487 47.8902C200.487 47.9634 200.475 48 200.451 48C200.082 48 199.793 47.9939 199.584 47.9817L198.46 47.9634L197.28 47.9817C197.084 47.9939 196.807 48 196.451 48C196.414 48 196.395 47.9634 196.395 47.8902C196.395 47.8169 196.414 47.7803 196.451 47.7803C196.844 47.7803 197.127 47.7498 197.299 47.6888C197.483 47.6278 197.606 47.5118 197.667 47.341C197.729 47.1579 197.759 46.8833 197.759 46.5172V41.5744L192.838 46.4439V46.5172C192.838 46.8833 192.868 47.1579 192.93 47.341C192.991 47.5118 193.108 47.6278 193.28 47.6888C193.464 47.7498 193.753 47.7803 194.146 47.7803C194.183 47.7803 194.202 47.8169 194.202 47.8902C194.202 47.9634 194.183 48 194.146 48C193.79 48 193.514 47.9939 193.317 47.9817L192.156 47.9634L191.013 47.9817C190.804 47.9939 190.515 48 190.146 48C190.122 48 190.11 47.9634 190.11 47.8902C190.11 47.8169 190.122 47.7803 190.146 47.7803C190.54 47.7803 190.829 47.7498 191.013 47.6888C191.197 47.6278 191.32 47.5118 191.382 47.341C191.455 47.1579 191.492 46.8833 191.492 46.5172V40.9153C191.492 40.5492 191.455 40.2807 191.382 40.1098C191.32 39.939 191.197 39.823 191.013 39.762C190.841 39.6888 190.564 39.6522 190.183 39.6522C190.146 39.6522 190.128 39.6156 190.128 39.5423C190.128 39.4691 190.146 39.4325 190.183 39.4325L191.013 39.4508C191.48 39.4752 191.861 39.4874 192.156 39.4874C192.451 39.4874 192.844 39.4752 193.335 39.4508L194.146 39.4325C194.183 39.4325 194.202 39.4691 194.202 39.5423C194.202 39.6156 194.183 39.6522 194.146 39.6522C193.766 39.6522 193.483 39.6888 193.299 39.762C193.127 39.8352 193.004 39.9634 192.93 40.1465C192.868 40.3173 192.838 40.5858 192.838 40.9519V45.8764L197.759 40.9886V40.9519C197.759 40.5858 197.729 40.3173 197.667 40.1465C197.606 39.9634 197.483 39.8352 197.299 39.762C197.114 39.6888 196.832 39.6522 196.451 39.6522C196.414 39.6522 196.395 39.6156 196.395 39.5423C196.395 39.4691 196.414 39.4325 196.451 39.4325L197.28 39.4508C197.747 39.4752 198.14 39.4874 198.46 39.4874C198.742 39.4874 199.117 39.4752 199.584 39.4508L200.451 39.4325C200.475 39.4325 200.487 39.4691 200.487 39.5423C200.487 39.6156 200.475 39.6522 200.451 39.6522C200.057 39.6522 199.769 39.6888 199.584 39.762C199.4 39.823 199.271 39.939 199.197 40.1098C199.136 40.2807 199.105 40.5492 199.105 40.9153V46.5172C199.105 46.8833 199.136 47.1579 199.197 47.341C199.271 47.5118 199.4 47.6278 199.584 47.6888C199.769 47.7498 200.057 47.7803 200.451 47.7803Z" fill="white"/>
<path d="M211.142 47.7803C211.166 47.7803 211.179 47.8169 211.179 47.8902C211.179 47.9634 211.166 48 211.142 48H209.04C208.844 48 208.69 47.9695 208.58 47.9085C208.481 47.8474 208.358 47.7132 208.211 47.5057C208.076 47.286 207.805 46.8406 207.4 46.1693L207.16 45.7849C206.755 45.0892 206.46 44.6133 206.275 44.357C206.103 44.1007 205.907 43.9237 205.686 43.8261C205.477 43.7162 205.182 43.6613 204.801 43.6613L204.358 43.6796V46.5172C204.358 46.8833 204.389 47.1579 204.451 47.341C204.512 47.5118 204.629 47.6278 204.801 47.6888C204.985 47.7498 205.274 47.7803 205.667 47.7803C205.704 47.7803 205.723 47.8169 205.723 47.8902C205.723 47.9634 205.704 48 205.667 48C205.311 48 205.034 47.9939 204.838 47.9817L203.676 47.9634L202.534 47.9817C202.325 47.9939 202.036 48 201.667 48C201.643 48 201.63 47.9634 201.63 47.8902C201.63 47.8169 201.643 47.7803 201.667 47.7803C202.06 47.7803 202.349 47.7498 202.534 47.6888C202.718 47.6278 202.841 47.5118 202.902 47.341C202.976 47.1579 203.013 46.8833 203.013 46.5172V40.9153C203.013 40.5492 202.976 40.2807 202.902 40.1098C202.841 39.939 202.718 39.823 202.534 39.762C202.362 39.6888 202.085 39.6522 201.704 39.6522C201.667 39.6522 201.649 39.6156 201.649 39.5423C201.649 39.4691 201.667 39.4325 201.704 39.4325L202.534 39.4508C203.001 39.4752 203.382 39.4874 203.676 39.4874C203.971 39.4874 204.365 39.4752 204.856 39.4508L205.667 39.4325C205.704 39.4325 205.723 39.4691 205.723 39.5423C205.723 39.6156 205.704 39.6522 205.667 39.6522C205.286 39.6522 205.004 39.6888 204.819 39.762C204.647 39.8352 204.524 39.9634 204.451 40.1465C204.389 40.3173 204.358 40.5858 204.358 40.9519V43.3318L205.022 43.2952C205.464 43.2586 205.802 43.2464 206.036 43.2586L207.216 41.5744C207.658 40.9153 207.879 40.4394 207.879 40.1465C207.879 39.8169 207.609 39.6522 207.068 39.6522C207.031 39.6522 207.013 39.6156 207.013 39.5423C207.013 39.4691 207.031 39.4325 207.068 39.4325L207.824 39.4508C208.266 39.4752 208.696 39.4874 209.114 39.4874C209.421 39.4874 209.759 39.4752 210.128 39.4508L210.699 39.4325C210.736 39.4325 210.755 39.4691 210.755 39.5423C210.755 39.6156 210.736 39.6522 210.699 39.6522C210.159 39.6522 209.643 39.8169 209.151 40.1465C208.66 40.476 208.174 40.9641 207.695 41.611L206.46 43.2952C206.816 43.3562 207.111 43.5271 207.345 43.8078C207.59 44.0763 207.959 44.6194 208.451 45.4371C209.004 46.328 209.464 46.9382 209.833 47.2677C210.214 47.585 210.65 47.7559 211.142 47.7803Z" fill="white"/>
<path d="M222.07 47.7803C222.095 47.7803 222.107 47.8169 222.107 47.8902C222.107 47.9634 222.095 48 222.07 48C221.701 48 221.413 47.9939 221.204 47.9817L220.079 47.9634L218.899 47.9817C218.703 47.9939 218.426 48 218.07 48C218.033 48 218.015 47.9634 218.015 47.8902C218.015 47.8169 218.033 47.7803 218.07 47.7803C218.463 47.7803 218.746 47.7498 218.918 47.6888C219.102 47.6278 219.225 47.5118 219.287 47.341C219.348 47.1579 219.379 46.8833 219.379 46.5172V41.5744L214.457 46.4439V46.5172C214.457 46.8833 214.488 47.1579 214.549 47.341C214.611 47.5118 214.727 47.6278 214.899 47.6888C215.084 47.7498 215.373 47.7803 215.766 47.7803C215.803 47.7803 215.821 47.8169 215.821 47.8902C215.821 47.9634 215.803 48 215.766 48C215.409 48 215.133 47.9939 214.936 47.9817L213.775 47.9634L212.632 47.9817C212.423 47.9939 212.134 48 211.766 48C211.741 48 211.729 47.9634 211.729 47.8902C211.729 47.8169 211.741 47.7803 211.766 47.7803C212.159 47.7803 212.448 47.7498 212.632 47.6888C212.817 47.6278 212.939 47.5118 213.001 47.341C213.075 47.1579 213.111 46.8833 213.111 46.5172V40.9153C213.111 40.5492 213.075 40.2807 213.001 40.1098C212.939 39.939 212.817 39.823 212.632 39.762C212.46 39.6888 212.184 39.6522 211.803 39.6522C211.766 39.6522 211.747 39.6156 211.747 39.5423C211.747 39.4691 211.766 39.4325 211.803 39.4325L212.632 39.4508C213.099 39.4752 213.48 39.4874 213.775 39.4874C214.07 39.4874 214.463 39.4752 214.955 39.4508L215.766 39.4325C215.803 39.4325 215.821 39.4691 215.821 39.5423C215.821 39.6156 215.803 39.6522 215.766 39.6522C215.385 39.6522 215.102 39.6888 214.918 39.762C214.746 39.8352 214.623 39.9634 214.549 40.1465C214.488 40.3173 214.457 40.5858 214.457 40.9519V45.8764L219.379 40.9886V40.9519C219.379 40.5858 219.348 40.3173 219.287 40.1465C219.225 39.9634 219.102 39.8352 218.918 39.762C218.734 39.6888 218.451 39.6522 218.07 39.6522C218.033 39.6522 218.015 39.6156 218.015 39.5423C218.015 39.4691 218.033 39.4325 218.07 39.4325L218.899 39.4508C219.366 39.4752 219.76 39.4874 220.079 39.4874C220.362 39.4874 220.737 39.4752 221.204 39.4508L222.07 39.4325C222.095 39.4325 222.107 39.4691 222.107 39.5423C222.107 39.6156 222.095 39.6522 222.07 39.6522C221.677 39.6522 221.388 39.6888 221.204 39.762C221.019 39.823 220.89 39.939 220.817 40.1098C220.755 40.2807 220.724 40.5492 220.724 40.9153V46.5172C220.724 46.8833 220.755 47.1579 220.817 47.341C220.89 47.5118 221.019 47.6278 221.204 47.6888C221.388 47.7498 221.677 47.7803 222.07 47.7803Z" fill="white"/>
<path d="M13.2719 23.7254C10.5683 23.7254 8.20889 23.2128 6.19354 22.1876C4.17818 21.1625 2.64208 19.7712 1.58525 18.0137C0.528417 16.2319 0 14.2548 0 12.0824C0 9.73913 0.602149 7.65217 1.80645 5.82151C3.03532 3.96644 4.7066 2.53852 6.82026 1.53776C8.95851 0.512586 11.3425 0 13.9723 0C15.1275 0 16.2949 0.0976356 17.4746 0.292907C18.6543 0.463768 19.6006 0.695652 20.3133 0.988559C20.5345 1.06179 20.6697 1.15942 20.7189 1.28147C20.7926 1.3791 20.8417 1.56217 20.8663 1.83066L21.3456 6.91991C21.3456 6.99313 21.2841 7.04195 21.1612 7.06636C21.0384 7.09077 20.9523 7.05416 20.9032 6.95652C20.043 5.07704 18.851 3.61251 17.3272 2.56293C15.8279 1.51335 14.1075 0.988559 12.1659 0.988559C9.65897 0.988559 7.74192 1.85507 6.41473 3.5881C5.11212 5.32113 4.46082 7.68879 4.46082 10.6911C4.46082 13.1076 4.87864 15.2677 5.71427 17.1716C6.54991 19.0511 7.70505 20.5156 9.1797 21.5652C10.6789 22.5904 12.3502 23.103 14.1935 23.103C15.2012 23.103 15.9754 22.9931 16.5161 22.7735C17.0568 22.5538 17.45 22.1266 17.6958 21.492C17.9416 20.8574 18.0645 19.9176 18.0645 18.6728C18.0645 17.4035 17.9907 16.5248 17.8433 16.0366C17.6958 15.524 17.3763 15.1823 16.8848 15.0114C16.4178 14.8406 15.5944 14.7551 14.4147 14.7551C14.2673 14.7551 14.1935 14.6575 14.1935 14.4622C14.1935 14.389 14.2058 14.328 14.2304 14.2792C14.2795 14.2059 14.3287 14.1693 14.3779 14.1693C16.4669 14.2914 18.1505 14.3524 19.4285 14.3524C20.682 14.3524 21.9846 14.3158 23.3364 14.2426C23.3855 14.2426 23.4224 14.2792 23.447 14.3524C23.4961 14.4012 23.5207 14.45 23.5207 14.4989C23.5207 14.6697 23.4592 14.7551 23.3364 14.7551C22.894 14.7307 22.5867 14.8162 22.4147 15.0114C22.2427 15.1823 22.1321 15.5484 22.0829 16.1098C22.0337 16.6468 22.0092 17.6232 22.0092 19.0389C22.0092 20.1373 22.046 20.9184 22.1198 21.3821C22.2181 21.8459 22.2672 22.1388 22.2672 22.2609C22.2672 22.4073 22.2304 22.505 22.1566 22.5538C22.1075 22.6026 21.9969 22.6514 21.8248 22.7002C18.6543 23.3837 15.8033 23.7254 13.2719 23.7254Z" fill="white"/>
<path d="M45.5575 22.8467C45.6312 22.8467 45.6681 22.9199 45.6681 23.0664C45.6681 23.2128 45.6312 23.286 45.5575 23.286H39.5114C39.1428 23.286 38.4792 22.5538 37.5207 21.0892C36.5867 19.6247 35.4684 17.611 34.1658 15.0481C33.6497 15.1213 33.1336 15.1579 32.6174 15.1579H31.9907V20.3204C31.9907 21.077 32.0399 21.6262 32.1382 21.968C32.2611 22.3097 32.47 22.5416 32.7649 22.6636C33.0844 22.7857 33.5883 22.8467 34.2764 22.8467C34.3256 22.8467 34.3502 22.9199 34.3502 23.0664C34.3502 23.2128 34.3256 23.286 34.2764 23.286C33.5391 23.286 32.9615 23.2738 32.5437 23.2494L30.0368 23.2128L27.6405 23.2494C27.1981 23.2738 26.5837 23.286 25.7972 23.286C25.748 23.286 25.7234 23.2128 25.7234 23.0664C25.7234 22.9199 25.748 22.8467 25.7972 22.8467C26.4854 22.8467 26.9892 22.7857 27.3087 22.6636C27.6282 22.5416 27.8494 22.3097 27.9723 21.968C28.0952 21.6018 28.1566 21.0526 28.1566 20.3204V9.1167C28.1566 8.38444 28.0952 7.84744 27.9723 7.50572C27.874 7.164 27.6651 6.93211 27.3456 6.81007C27.0261 6.66362 26.5345 6.59039 25.8709 6.59039C25.7972 6.59039 25.7603 6.51716 25.7603 6.37071C25.7603 6.22426 25.7972 6.15103 25.8709 6.15103L27.6774 6.18764C28.6605 6.23646 29.4469 6.26087 30.0368 6.26087C30.5038 6.26087 30.9339 6.24866 31.3271 6.22426C31.7204 6.19985 32.0645 6.17544 32.3594 6.15103C33.1704 6.0778 33.9323 6.04119 34.6451 6.04119C36.5621 6.04119 38.0245 6.3463 39.0322 6.95652C40.0399 7.56674 40.5437 8.44546 40.5437 9.59268C40.5437 10.5446 40.2365 11.4233 39.622 12.2288C39.0076 13.0343 38.1597 13.6934 37.0783 14.2059C38.4054 16.4272 39.5483 18.1602 40.5068 19.405C41.4654 20.6499 42.3379 21.5408 43.1243 22.0778C43.9108 22.5904 44.7219 22.8467 45.5575 22.8467ZM31.9907 14.4256C32.1628 14.45 32.4577 14.4622 32.8755 14.4622C34.2764 14.4622 35.2472 14.1449 35.7879 13.5103C36.3287 12.8513 36.599 11.8749 36.599 10.5812C36.599 8.04272 35.6651 6.77345 33.7972 6.77345C33.281 6.77345 32.9001 6.83448 32.6543 6.95652C32.4085 7.07857 32.2365 7.31045 32.1382 7.65217C32.0399 7.96949 31.9907 8.48207 31.9907 9.18993V14.4256Z" fill="white"/>
<path d="M65.387 22.8467C65.5098 22.8467 65.5713 22.9199 65.5713 23.0664C65.5713 23.2128 65.5098 23.286 65.387 23.286C64.8708 23.286 64.0966 23.2616 63.0644 23.2128C61.983 23.164 61.2211 23.1396 60.7787 23.1396C60.3609 23.1396 59.7096 23.164 58.8248 23.2128C57.9891 23.2616 57.3993 23.286 57.0552 23.286C56.9569 23.286 56.9077 23.2128 56.9077 23.0664C56.9077 22.9199 56.9569 22.8467 57.0552 22.8467C57.6205 22.8467 58.0137 22.7857 58.2349 22.6636C58.4807 22.5172 58.6036 22.3097 58.6036 22.0412C58.6036 21.6995 58.3947 21.0892 57.9768 20.2105L55.7649 15.4874H51.4884L50.0875 18.7826C49.6451 19.8078 49.4239 20.6133 49.4239 21.1991C49.4239 21.7849 49.6328 22.212 50.0506 22.4805C50.4684 22.7246 51.1197 22.8467 52.0045 22.8467C52.1274 22.8467 52.1888 22.9199 52.1888 23.0664C52.1888 23.2128 52.1274 23.286 52.0045 23.286C51.6604 23.286 51.1689 23.2616 50.5299 23.2128C49.8417 23.164 49.2027 23.1396 48.6128 23.1396C47.9984 23.1396 47.2733 23.164 46.4377 23.2128C45.7004 23.2616 45.0982 23.286 44.6312 23.286C44.5084 23.286 44.4469 23.2128 44.4469 23.0664C44.4469 22.9199 44.5084 22.8467 44.6312 22.8467C45.3931 22.8467 46.0076 22.7368 46.4746 22.5172C46.9415 22.2975 47.3716 21.8825 47.7649 21.2723C48.1827 20.6621 48.662 19.7223 49.2027 18.4531L54.7326 5.60183C54.7818 5.5042 54.8555 5.45538 54.9538 5.45538C55.0521 5.45538 55.1258 5.5042 55.175 5.60183L61.0736 18.27C61.688 19.5881 62.1919 20.5645 62.5851 21.1991C63.0029 21.8337 63.4208 22.2731 63.8386 22.5172C64.2564 22.7368 64.7725 22.8467 65.387 22.8467ZM51.8939 14.5355H55.3225L53.516 10.6911L51.8939 14.5355Z" fill="white"/>
<path d="M85.7616 6.15103C85.8354 6.15103 85.8722 6.22426 85.8722 6.37071C85.8722 6.51716 85.8354 6.59039 85.7616 6.59039C84.7785 6.59039 84.0535 6.93211 83.5865 7.61556C83.1196 8.29901 82.8861 9.373 82.8861 10.8375V23.6888C82.8861 23.7376 82.8246 23.7742 82.7017 23.7986C82.5788 23.823 82.4928 23.8108 82.4437 23.762L69.5036 9.26316V18.6362C69.5036 20.0763 69.7248 21.1381 70.1672 21.8215C70.6342 22.505 71.3469 22.8467 72.3054 22.8467C72.3792 22.8467 72.416 22.9199 72.416 23.0664C72.416 23.2128 72.3792 23.286 72.3054 23.286C71.7156 23.286 71.2609 23.2738 70.9414 23.2494L69.1718 23.2128L67.4022 23.2494C67.0581 23.2738 66.5666 23.286 65.9276 23.286C65.8784 23.286 65.8538 23.2128 65.8538 23.0664C65.8538 22.9199 65.8784 22.8467 65.9276 22.8467C66.9107 22.8467 67.6357 22.505 68.1027 21.8215C68.5697 21.1381 68.8031 20.0763 68.8031 18.6362V8.53089C68.1395 7.84745 67.5497 7.35927 67.0336 7.06636C66.542 6.74905 66.0628 6.59039 65.5958 6.59039C65.5466 6.59039 65.522 6.51716 65.522 6.37071C65.522 6.22426 65.5466 6.15103 65.5958 6.15103L67.6603 6.18764C67.8569 6.18764 68.1273 6.18764 68.4714 6.18764C68.8154 6.16323 69.6879 6.15103 71.0889 6.15103C71.2855 6.15103 71.4452 6.21205 71.5681 6.3341C71.7156 6.45614 71.9368 6.68802 72.2317 7.02975C72.4283 7.32265 72.6987 7.66438 73.0428 8.05492L82.1487 18.1602V10.8375C82.1487 9.373 81.9275 8.29901 81.4851 7.61556C81.0427 6.93211 80.33 6.59039 79.3469 6.59039C79.2977 6.59039 79.2732 6.51716 79.2732 6.37071C79.2732 6.22426 79.2977 6.15103 79.3469 6.15103L80.7478 6.18764C81.4852 6.23646 82.0627 6.26087 82.4805 6.26087C82.8984 6.26087 83.5005 6.23646 84.287 6.18764L85.7616 6.15103Z" fill="white"/>
<path d="M96.3958 23.4325C95.7077 23.4325 94.9458 23.3959 94.1101 23.3227C93.8152 23.2982 93.4465 23.2738 93.0041 23.2494C92.5617 23.225 92.0579 23.2128 91.4926 23.2128L89.0963 23.2494C88.6539 23.2738 88.0395 23.286 87.253 23.286C87.2038 23.286 87.1793 23.2128 87.1793 23.0664C87.1793 22.9199 87.2038 22.8467 87.253 22.8467C87.9903 22.8467 88.5187 22.7857 88.8382 22.6636C89.1823 22.5416 89.4035 22.3097 89.5018 21.968C89.6247 21.6018 89.6862 21.0526 89.6862 20.3204V9.1167C89.6862 8.38444 89.6247 7.84744 89.5018 7.50572C89.4035 7.164 89.1823 6.93211 88.8382 6.81007C88.5187 6.66362 88.0149 6.59039 87.3267 6.59039C87.253 6.59039 87.2161 6.51716 87.2161 6.37071C87.2161 6.22426 87.253 6.15103 87.3267 6.15103L89.0963 6.18764C90.0794 6.23646 90.8782 6.26087 91.4926 6.26087C92.2545 6.26087 93.0164 6.22426 93.7783 6.15103C94.7614 6.10221 95.4987 6.0778 95.9903 6.0778C98.0548 6.0778 99.8367 6.44394 101.336 7.1762C102.835 7.90847 103.978 8.92143 104.764 10.2151C105.551 11.5088 105.944 12.9733 105.944 14.6087C105.944 16.2929 105.539 17.8063 104.728 19.1487C103.917 20.4912 102.786 21.5408 101.336 22.2975C99.8858 23.0542 98.2391 23.4325 96.3958 23.4325ZM95.9903 22.627C97.7845 22.627 99.1854 21.968 100.193 20.6499C101.201 19.3318 101.705 17.4523 101.705 15.0114C101.705 12.6438 101.201 10.6911 100.193 9.15332C99.1854 7.59115 97.6739 6.81007 95.6585 6.81007C94.8229 6.81007 94.2207 6.98093 93.8521 7.32265C93.508 7.66438 93.3359 8.2868 93.3359 9.18993V19.9176C93.3359 20.9184 93.508 21.6262 93.8521 22.0412C94.2207 22.4317 94.9335 22.627 95.9903 22.627Z" fill="white"/>
<path d="M146.414 22.8467C146.464 22.8467 146.488 22.9199 146.488 23.0664C146.488 23.2128 146.464 23.286 146.414 23.286C145.579 23.286 144.915 23.2738 144.424 23.2494L141.696 23.2128L138.931 23.2494C138.464 23.2738 137.825 23.286 137.014 23.286C136.94 23.286 136.903 23.2128 136.903 23.0664C136.903 22.9199 136.94 22.8467 137.014 22.8467C138.046 22.8467 138.746 22.7246 139.115 22.4805C139.484 22.2365 139.668 21.7239 139.668 20.9428L139.631 20.3204L138.857 5.34554L131.262 23.0297C131.213 23.1274 131.115 23.1762 130.967 23.1762C130.82 23.1762 130.722 23.1274 130.673 23.0297L121.345 5.41876L121.05 18.6362C121.026 19.9542 121.284 20.9916 121.825 21.7483C122.39 22.4805 123.176 22.8467 124.184 22.8467C124.258 22.8467 124.295 22.9199 124.295 23.0664C124.295 23.2128 124.258 23.286 124.184 23.286C123.52 23.286 123.004 23.2738 122.636 23.2494L120.608 23.2128L118.285 23.2494C117.892 23.2738 117.364 23.286 116.7 23.286C116.626 23.286 116.59 23.2128 116.59 23.0664C116.59 22.9199 116.626 22.8467 116.7 22.8467C117.708 22.8467 118.507 22.4683 119.097 21.7117C119.686 20.955 119.994 19.9298 120.018 18.6362L120.35 3.47826L120.313 3.44165C119.822 2.53852 119.305 1.87948 118.765 1.46453C118.249 1.04958 117.646 0.842105 116.958 0.842105C116.885 0.842105 116.848 0.768879 116.848 0.622426C116.848 0.475974 116.885 0.402747 116.958 0.402747L118.691 0.43936C119.035 0.463769 119.477 0.475973 120.018 0.475973L121.972 0.43936C122.193 0.414952 122.476 0.402747 122.82 0.402747C123.14 0.402747 123.385 0.512586 123.557 0.732265C123.729 0.951944 124.049 1.47673 124.516 2.30664L132.553 17.2815L139.557 1.31808C139.705 0.976354 139.852 0.74447 140 0.622426C140.172 0.475974 140.393 0.402747 140.663 0.402747C140.884 0.402747 141.13 0.414952 141.401 0.43936C141.696 0.463769 142.027 0.475973 142.396 0.475973L144.571 0.43936C144.915 0.414952 145.407 0.402747 146.046 0.402747C146.12 0.402747 146.156 0.475974 146.156 0.622426C146.156 0.768879 146.12 0.842105 146.046 0.842105C144.891 0.842105 144.055 1.07399 143.539 1.53776C143.023 2.00152 142.789 2.72159 142.838 3.69794L143.723 20.3204C143.772 21.077 143.858 21.6262 143.981 21.968C144.129 22.3097 144.375 22.5416 144.719 22.6636C145.087 22.7857 145.653 22.8467 146.414 22.8467Z" fill="white"/>
<path d="M167.849 22.8467C167.972 22.8467 168.034 22.9199 168.034 23.0664C168.034 23.2128 167.972 23.286 167.849 23.286C167.333 23.286 166.559 23.2616 165.527 23.2128C164.445 23.164 163.683 23.1396 163.241 23.1396C162.823 23.1396 162.172 23.164 161.287 23.2128C160.451 23.2616 159.862 23.286 159.518 23.286C159.419 23.286 159.37 23.2128 159.37 23.0664C159.37 22.9199 159.419 22.8467 159.518 22.8467C160.083 22.8467 160.476 22.7857 160.697 22.6636C160.943 22.5172 161.066 22.3097 161.066 22.0412C161.066 21.6995 160.857 21.0892 160.439 20.2105L158.227 15.4874H153.951L152.55 18.7826C152.107 19.8078 151.886 20.6133 151.886 21.1991C151.886 21.7849 152.095 22.212 152.513 22.4805C152.931 22.7246 153.582 22.8467 154.467 22.8467C154.59 22.8467 154.651 22.9199 154.651 23.0664C154.651 23.2128 154.59 23.286 154.467 23.286C154.123 23.286 153.631 23.2616 152.992 23.2128C152.304 23.164 151.665 23.1396 151.075 23.1396C150.461 23.1396 149.736 23.164 148.9 23.2128C148.163 23.2616 147.561 23.286 147.094 23.286C146.971 23.286 146.909 23.2128 146.909 23.0664C146.909 22.9199 146.971 22.8467 147.094 22.8467C147.855 22.8467 148.47 22.7368 148.937 22.5172C149.404 22.2975 149.834 21.8825 150.227 21.2723C150.645 20.6621 151.124 19.7223 151.665 18.4531L157.195 5.60183C157.244 5.5042 157.318 5.45538 157.416 5.45538C157.514 5.45538 157.588 5.5042 157.637 5.60183L163.536 18.27C164.15 19.5881 164.654 20.5645 165.047 21.1991C165.465 21.8337 165.883 22.2731 166.301 22.5172C166.719 22.7368 167.235 22.8467 167.849 22.8467ZM154.356 14.5355H157.785L155.978 10.6911L154.356 14.5355Z" fill="white"/>
<path d="M173.072 8.86041C173.072 9.54386 173.256 10.1419 173.625 10.6545C174.018 11.1426 174.485 11.5698 175.026 11.9359C175.591 12.2776 176.353 12.6926 177.312 13.1808C178.418 13.7666 179.278 14.267 179.892 14.6819C180.531 15.0725 181.072 15.585 181.514 16.2197C181.981 16.8543 182.215 17.611 182.215 18.4897C182.215 19.4661 181.92 20.357 181.33 21.1625C180.765 21.9436 179.978 22.566 178.971 23.0297C177.963 23.4935 176.832 23.7254 175.579 23.7254C174.448 23.7254 173.342 23.5789 172.261 23.286C171.204 23.0175 170.467 22.7124 170.049 22.3707C169.852 22.2487 169.754 21.9924 169.754 21.6018L169.57 17.4645C169.57 17.3669 169.631 17.3059 169.754 17.2815C169.877 17.2571 169.963 17.2937 170.012 17.3913C170.946 19.0023 171.892 20.3204 172.851 21.3455C173.809 22.3707 174.903 22.8833 176.132 22.8833C176.869 22.8833 177.484 22.6636 177.975 22.2243C178.467 21.7849 178.712 21.1259 178.712 20.2471C178.712 19.4661 178.504 18.7826 178.086 18.1968C177.693 17.611 177.201 17.1228 176.611 16.7323C176.021 16.3173 175.235 15.8413 174.252 15.3043C172.802 14.5233 171.696 13.791 170.934 13.1076C170.172 12.3997 169.791 11.4844 169.791 10.3616C169.791 8.94584 170.418 7.82304 171.671 6.99313C172.924 6.13883 174.436 5.71167 176.206 5.71167C176.992 5.71167 177.815 5.7971 178.676 5.96796C179.536 6.13882 180.224 6.3341 180.74 6.55378C180.961 6.627 181.109 6.72464 181.183 6.84668C181.256 6.94432 181.293 7.09077 181.293 7.28604V10.7643C181.293 10.8375 181.232 10.8986 181.109 10.9474C180.986 10.9718 180.9 10.9474 180.851 10.8741C180.384 9.89779 179.732 8.93364 178.897 7.98169C178.061 7.02975 176.955 6.55378 175.579 6.55378C174.743 6.55378 174.116 6.77346 173.699 7.21281C173.281 7.62777 173.072 8.17696 173.072 8.86041Z" fill="white"/>
<path d="M189.362 6.8833C188.428 6.8833 187.531 7.27384 186.671 8.05492C185.835 8.836 185.172 9.89779 184.68 11.2403C184.656 11.3135 184.582 11.3501 184.459 11.3501C184.336 11.3501 184.275 11.3135 184.275 11.2403C184.373 10.4592 184.484 9.44622 184.606 8.20137C184.729 6.93211 184.791 5.98017 184.791 5.34554C184.791 5.22349 184.852 5.16247 184.975 5.16247C185.123 5.16247 185.196 5.22349 185.196 5.34554C185.196 5.66285 185.381 5.87033 185.749 5.96796C186.118 6.04119 186.585 6.0778 187.15 6.0778C189.264 6.12662 191.12 6.15103 192.717 6.15103L195.924 6.11442C196.342 6.09001 196.908 6.0778 197.62 6.0778C198.579 6.0778 199.292 6.02899 199.759 5.93135C200.25 5.80931 200.557 5.56522 200.68 5.19908C200.705 5.12586 200.778 5.08925 200.901 5.08925C201.049 5.08925 201.123 5.12586 201.123 5.19908L201.012 7.02975C200.865 9.17773 200.791 10.5812 200.791 11.2403C200.791 11.3135 200.717 11.3501 200.57 11.3501C200.422 11.3501 200.348 11.3135 200.348 11.2403C200.225 10.4836 199.943 9.77574 199.5 9.1167C199.058 8.43326 198.53 7.89626 197.915 7.50572C197.325 7.09077 196.723 6.8833 196.109 6.8833C195.519 6.8833 195.126 7.04195 194.929 7.35927C194.732 7.65217 194.634 8.23799 194.634 9.1167V20.3204C194.634 21.0526 194.696 21.6018 194.818 21.968C194.966 22.3097 195.224 22.5416 195.593 22.6636C195.961 22.7857 196.551 22.8467 197.362 22.8467C197.436 22.8467 197.473 22.9199 197.473 23.0664C197.473 23.2128 197.436 23.286 197.362 23.286C196.551 23.286 195.912 23.2738 195.445 23.2494L192.68 23.2128L189.989 23.2494C189.522 23.2738 188.858 23.286 187.998 23.286C187.949 23.286 187.924 23.2128 187.924 23.0664C187.924 22.9199 187.949 22.8467 187.998 22.8467C188.834 22.8467 189.436 22.7857 189.805 22.6636C190.198 22.5416 190.456 22.3097 190.579 21.968C190.726 21.6018 190.8 21.0526 190.8 20.3204V9.04348C190.8 8.14035 190.714 7.55454 190.542 7.28604C190.37 7.01754 189.977 6.8833 189.362 6.8833Z" fill="white"/>
<path d="M217.195 18.4165C217.244 18.3432 217.33 18.3066 217.453 18.3066C217.576 18.3066 217.637 18.3432 217.637 18.4165C217.465 20.1739 217.379 21.614 217.379 22.7368C217.379 22.9321 217.342 23.0786 217.268 23.1762C217.195 23.2494 217.047 23.286 216.826 23.286H202.964C202.915 23.286 202.89 23.2128 202.89 23.0664C202.89 22.9199 202.915 22.8467 202.964 22.8467C203.677 22.8467 204.193 22.7857 204.513 22.6636C204.832 22.5416 205.053 22.3097 205.176 21.968C205.299 21.6018 205.36 21.0526 205.36 20.3204V9.1167C205.36 8.38444 205.299 7.84744 205.176 7.50572C205.053 7.164 204.82 6.93211 204.476 6.81007C204.156 6.66362 203.652 6.59039 202.964 6.59039C202.915 6.59039 202.89 6.51716 202.89 6.37071C202.89 6.22426 202.915 6.15103 202.964 6.15103H216.162C216.408 6.15103 216.531 6.24866 216.531 6.44394L216.568 8.71396C216.592 9.17773 216.605 9.76354 216.605 10.4714C216.605 10.5446 216.531 10.5812 216.383 10.5812C216.261 10.5812 216.187 10.5446 216.162 10.4714C215.695 9.39741 214.983 8.49428 214.024 7.76201C213.066 7.00534 212.095 6.627 211.112 6.627H210.854C210.313 6.627 209.907 6.70023 209.637 6.84668C209.391 6.96873 209.219 7.20061 209.121 7.54234C209.047 7.88406 209.01 8.42105 209.01 9.15332V14.0961C210.878 14.0717 212.254 13.9985 213.139 13.8764C214.024 13.7544 214.528 13.6934 214.651 13.6934C214.823 13.6934 214.909 13.9619 214.909 14.4989C214.909 14.7429 214.884 14.9626 214.835 15.1579C214.786 15.3532 214.725 15.4508 214.651 15.4508C214.503 15.4508 213.987 15.3898 213.102 15.2677C212.218 15.1457 210.854 15.0603 209.01 15.0114V20.1739C209.01 20.9062 209.047 21.4432 209.121 21.7849C209.219 22.1266 209.391 22.3707 209.637 22.5172C209.907 22.6392 210.313 22.7002 210.854 22.7002H211.259C212.414 22.7002 213.557 22.2975 214.688 21.492C215.818 20.6621 216.654 19.6369 217.195 18.4165Z" fill="white"/>
<path d="M239.826 22.8467C239.899 22.8467 239.936 22.9199 239.936 23.0664C239.936 23.2128 239.899 23.286 239.826 23.286H233.779C233.411 23.286 232.747 22.5538 231.789 21.0892C230.855 19.6247 229.736 17.611 228.434 15.0481C227.918 15.1213 227.402 15.1579 226.885 15.1579H226.259V20.3204C226.259 21.077 226.308 21.6262 226.406 21.968C226.529 22.3097 226.738 22.5416 227.033 22.6636C227.352 22.7857 227.856 22.8467 228.544 22.8467C228.594 22.8467 228.618 22.9199 228.618 23.0664C228.618 23.2128 228.594 23.286 228.544 23.286C227.807 23.286 227.23 23.2738 226.812 23.2494L224.305 23.2128L221.909 23.2494C221.466 23.2738 220.852 23.286 220.065 23.286C220.016 23.286 219.991 23.2128 219.991 23.0664C219.991 22.9199 220.016 22.8467 220.065 22.8467C220.753 22.8467 221.257 22.7857 221.577 22.6636C221.896 22.5416 222.117 22.3097 222.24 21.968C222.363 21.6018 222.425 21.0526 222.425 20.3204V9.1167C222.425 8.38444 222.363 7.84744 222.24 7.50572C222.142 7.164 221.933 6.93211 221.614 6.81007C221.294 6.66362 220.803 6.59039 220.139 6.59039C220.065 6.59039 220.028 6.51716 220.028 6.37071C220.028 6.22426 220.065 6.15103 220.139 6.15103L221.945 6.18764C222.928 6.23646 223.715 6.26087 224.305 6.26087C224.772 6.26087 225.202 6.24866 225.595 6.22426C225.988 6.19985 226.332 6.17544 226.627 6.15103C227.438 6.0778 228.2 6.04119 228.913 6.04119C230.83 6.04119 232.293 6.3463 233.3 6.95652C234.308 7.56674 234.812 8.44546 234.812 9.59268C234.812 10.5446 234.505 11.4233 233.89 12.2288C233.276 13.0343 232.428 13.6934 231.346 14.2059C232.673 16.4272 233.816 18.1602 234.775 19.405C235.733 20.6499 236.606 21.5408 237.392 22.0778C238.179 22.5904 238.99 22.8467 239.826 22.8467ZM226.259 14.4256C226.431 14.45 226.726 14.4622 227.144 14.4622C228.544 14.4622 229.515 14.1449 230.056 13.5103C230.597 12.8513 230.867 11.8749 230.867 10.5812C230.867 8.04272 229.933 6.77345 228.065 6.77345C227.549 6.77345 227.168 6.83448 226.922 6.95652C226.677 7.07857 226.505 7.31045 226.406 7.65217C226.308 7.96949 226.259 8.48207 226.259 9.18993V14.4256Z" fill="white"/>
<path d="M246.567 20.3204C246.567 21.0526 246.629 21.6018 246.752 21.968C246.875 22.3097 247.096 22.5416 247.415 22.6636C247.735 22.7857 248.251 22.8467 248.964 22.8467C249.013 22.8467 249.038 22.9199 249.038 23.0664C249.038 23.2128 249.013 23.286 248.964 23.286C248.202 23.286 247.612 23.2738 247.194 23.2494L244.687 23.2128L242.291 23.2494C241.849 23.2738 241.234 23.286 240.448 23.286C240.399 23.286 240.374 23.2128 240.374 23.0664C240.374 22.9199 240.399 22.8467 240.448 22.8467C241.16 22.8467 241.677 22.7857 241.996 22.6636C242.34 22.5416 242.574 22.3097 242.697 21.968C242.819 21.6018 242.881 21.0526 242.881 20.3204V9.1167C242.881 8.38444 242.819 7.84744 242.697 7.50572C242.574 7.164 242.34 6.93211 241.996 6.81007C241.677 6.66362 241.16 6.59039 240.448 6.59039C240.399 6.59039 240.374 6.51716 240.374 6.37071C240.374 6.22426 240.399 6.15103 240.448 6.15103L242.291 6.18764C243.274 6.23646 244.073 6.26087 244.687 6.26087C245.351 6.26087 246.199 6.23646 247.231 6.18764L248.964 6.15103C249.013 6.15103 249.038 6.22426 249.038 6.37071C249.038 6.51716 249.013 6.59039 248.964 6.59039C248.276 6.59039 247.759 6.66362 247.415 6.81007C247.096 6.95652 246.875 7.21281 246.752 7.57895C246.629 7.92067 246.567 8.45767 246.567 9.18993V20.3204Z" fill="white"/>
<path d="M270.816 22.8467C270.939 22.8467 271 22.9199 271 23.0664C271 23.2128 270.939 23.286 270.816 23.286C270.3 23.286 269.525 23.2616 268.493 23.2128C267.412 23.164 266.65 23.1396 266.207 23.1396C265.79 23.1396 265.138 23.164 264.254 23.2128C263.418 23.2616 262.828 23.286 262.484 23.286C262.386 23.286 262.336 23.2128 262.336 23.0664C262.336 22.9199 262.386 22.8467 262.484 22.8467C263.049 22.8467 263.442 22.7857 263.664 22.6636C263.909 22.5172 264.032 22.3097 264.032 22.0412C264.032 21.6995 263.823 21.0892 263.406 20.2105L261.194 15.4874H256.917L255.516 18.7826C255.074 19.8078 254.853 20.6133 254.853 21.1991C254.853 21.7849 255.061 22.212 255.479 22.4805C255.897 22.7246 256.548 22.8467 257.433 22.8467C257.556 22.8467 257.618 22.9199 257.618 23.0664C257.618 23.2128 257.556 23.286 257.433 23.286C257.089 23.286 256.598 23.2616 255.959 23.2128C255.27 23.164 254.631 23.1396 254.042 23.1396C253.427 23.1396 252.702 23.164 251.866 23.2128C251.129 23.2616 250.527 23.286 250.06 23.286C249.937 23.286 249.876 23.2128 249.876 23.0664C249.876 22.9199 249.937 22.8467 250.06 22.8467C250.822 22.8467 251.436 22.7368 251.903 22.5172C252.37 22.2975 252.8 21.8825 253.194 21.2723C253.611 20.6621 254.091 19.7223 254.631 18.4531L260.161 5.60183C260.21 5.5042 260.284 5.45538 260.383 5.45538C260.481 5.45538 260.555 5.5042 260.604 5.60183L266.502 18.27C267.117 19.5881 267.621 20.5645 268.014 21.1991C268.432 21.8337 268.849 22.2731 269.267 22.5172C269.685 22.7368 270.201 22.8467 270.816 22.8467ZM257.323 14.5355H260.751L258.945 10.6911L257.323 14.5355Z" fill="white"/>
</svg>
