<svg width="54" height="54" viewBox="0 0 54 54" fill="none" xmlns="http://www.w3.org/2000/svg">
<path d="M27 0C21.6599 0 16.4397 1.58352 11.9996 4.55032C7.55949 7.51712 4.09883 11.7339 2.05526 16.6675C0.0116986 21.6011 -0.522991 27.0299 0.518809 32.2674C1.56061 37.5049 4.13211 42.3159 7.90813 46.0919C11.6841 49.8679 16.4951 52.4394 21.7326 53.4812C26.9701 54.523 32.3989 53.9883 37.3325 51.9447C42.2661 49.9012 46.4829 46.4405 49.4497 42.0004C52.4165 37.5603 54 32.3401 54 27C54 23.4543 53.3016 19.9433 51.9447 16.6675C50.5879 13.3918 48.5991 10.4153 46.0919 7.90811C43.5847 5.40093 40.6082 3.41213 37.3325 2.05525C34.0567 0.698376 30.5457 0 27 0ZM39.717 20.817L26.217 34.317C25.966 34.5701 25.6674 34.7709 25.3384 34.908C25.0093 35.0451 24.6564 35.1156 24.3 35.1156C23.9436 35.1156 23.5907 35.0451 23.2617 34.908C22.9326 34.7709 22.634 34.5701 22.383 34.317L16.983 28.917C16.4746 28.4086 16.189 27.719 16.189 27C16.189 26.281 16.4746 25.5914 16.983 25.083C17.4914 24.5746 18.181 24.2889 18.9 24.2889C19.619 24.2889 20.3086 24.5746 20.817 25.083L24.3 28.593L35.883 16.983C36.3914 16.4746 37.081 16.1889 37.8 16.1889C38.519 16.1889 39.2086 16.4746 39.717 16.983C40.2254 17.4914 40.5111 18.181 40.5111 18.9C40.5111 19.619 40.2254 20.3086 39.717 20.817Z" fill="#FDC324"/>
</svg>
