<svg width="454" height="82" viewBox="0 0 454 22" fill="none" xmlns="http://www.w3.org/2000/svg">
<path d="M22.234 40.5309C17.7049 40.5309 13.7522 39.6552 10.3759 37.9039C6.99961 36.1526 4.42622 33.7757 2.65573 30.7735C0.885244 27.7295 0 24.3519 0 20.6407C0 16.6377 1.00877 13.0725 3.0263 9.94508C5.08501 6.776 7.88485 4.33664 11.4258 2.627C15.008 0.875667 19.0019 0 23.4075 0C25.3427 0 27.2985 0.166794 29.2748 0.500382C31.2512 0.79227 32.8364 1.18841 34.0304 1.68879C34.401 1.81388 34.6275 1.98068 34.7098 2.18917C34.8333 2.35596 34.9157 2.6687 34.9569 3.12738L35.7598 11.8215C35.7598 11.9466 35.6568 12.03 35.4509 12.0717C35.2451 12.1134 35.101 12.0509 35.0186 11.8841C33.5775 8.67328 31.5806 6.17137 29.0278 4.37834C26.5162 2.5853 23.634 1.68879 20.3812 1.68879C16.1814 1.68879 12.9699 3.16908 10.7465 6.12967C8.56422 9.09026 7.47311 13.135 7.47311 18.2639C7.47311 22.3921 8.17307 26.0824 9.57299 29.3349C10.9729 32.5456 12.9081 35.0475 15.3785 36.8406C17.8902 38.5919 20.69 39.4676 23.7781 39.4676C25.4662 39.4676 26.7632 39.2799 27.669 38.9047C28.5749 38.5294 29.2336 37.7996 29.6454 36.7155C30.0571 35.6313 30.263 34.0259 30.263 31.8993C30.263 29.731 30.1395 28.2298 29.8924 27.3959C29.6454 26.5202 29.1101 25.9364 28.2866 25.6445C27.5043 25.3527 26.125 25.2067 24.1486 25.2067C23.9016 25.2067 23.7781 25.0399 23.7781 24.7063C23.7781 24.5812 23.7987 24.477 23.8398 24.3936C23.9222 24.2685 24.0045 24.2059 24.0869 24.2059C27.5867 24.4144 30.4071 24.5187 32.5482 24.5187C34.648 24.5187 36.8303 24.4561 39.0949 24.331C39.1772 24.331 39.239 24.3936 39.2801 24.5187C39.3625 24.6021 39.4037 24.6855 39.4037 24.7689C39.4037 25.0608 39.3007 25.2067 39.0949 25.2067C38.3537 25.165 37.839 25.311 37.5508 25.6445C37.2626 25.9364 37.0773 26.5619 36.995 27.521C36.9126 28.4383 36.8715 30.1063 36.8715 32.5248C36.8715 34.4012 36.9332 35.7356 37.0567 36.5278C37.2214 37.3201 37.3038 37.8205 37.3038 38.029C37.3038 38.2792 37.242 38.446 37.1185 38.5294C37.0362 38.6128 36.8509 38.6962 36.5626 38.7796C31.2512 39.9471 26.475 40.5309 22.234 40.5309Z" fill="white"/>
<path d="M76.3214 39.0297C76.445 39.0297 76.5067 39.1548 76.5067 39.405C76.5067 39.6552 76.445 39.7803 76.3214 39.7803H66.1926C65.575 39.7803 64.4633 38.5294 62.8575 36.0275C61.2929 33.5256 59.4194 30.0854 57.2372 25.7071C56.3726 25.8322 55.5079 25.8947 54.6432 25.8947H53.5933V34.714C53.5933 36.0066 53.6757 36.9448 53.8403 37.5286C54.0462 38.1124 54.3962 38.5085 54.8903 38.717C55.4256 38.9255 56.2696 39.0297 57.4225 39.0297C57.5049 39.0297 57.546 39.1548 57.546 39.405C57.546 39.6552 57.5049 39.7803 57.4225 39.7803C56.1873 39.7803 55.2197 39.7595 54.5197 39.7178L50.32 39.6552L46.3055 39.7178C45.5643 39.7595 44.535 39.7803 43.2174 39.7803C43.1351 39.7803 43.0939 39.6552 43.0939 39.405C43.0939 39.1548 43.1351 39.0297 43.2174 39.0297C44.3703 39.0297 45.2144 38.9255 45.7496 38.717C46.2849 38.5085 46.6555 38.1124 46.8613 37.5286C47.0672 36.9031 47.1701 35.9649 47.1701 34.714V15.5744C47.1701 14.3234 47.0672 13.4061 46.8613 12.8223C46.6966 12.2385 46.3467 11.8424 45.8114 11.6339C45.2761 11.3837 44.4526 11.2586 43.3409 11.2586C43.2174 11.2586 43.1557 11.1335 43.1557 10.8833C43.1557 10.6331 43.2174 10.508 43.3409 10.508L46.3672 10.5706C48.0142 10.654 49.3318 10.6957 50.32 10.6957C51.1023 10.6957 51.8228 10.6748 52.4816 10.6331C53.1404 10.5914 53.7168 10.5497 54.2109 10.508C55.5697 10.3829 56.8461 10.3204 58.0401 10.3204C61.2517 10.3204 63.7016 10.8416 65.3897 11.8841C67.0778 12.9265 67.9219 14.4277 67.9219 16.3875C67.9219 18.0137 67.4072 19.5149 66.3779 20.8909C65.3485 22.267 63.928 23.3928 62.1164 24.2685C64.3398 28.0631 66.2544 31.0236 67.8601 33.1503C69.4659 35.2769 70.9276 36.7989 72.2452 37.7162C73.5628 38.5919 74.9215 39.0297 76.3214 39.0297ZM53.5933 24.6438C53.8815 24.6855 54.3756 24.7063 55.0756 24.7063C57.4225 24.7063 59.0489 24.1642 59.9547 23.0801C60.8605 21.9542 61.3135 20.2863 61.3135 18.0763C61.3135 13.7396 59.7488 11.5713 56.6196 11.5713C55.7549 11.5713 55.1167 11.6756 54.705 11.8841C54.2933 12.0926 54.005 12.4887 53.8403 13.0725C53.6757 13.6145 53.5933 14.4902 53.5933 15.6995V24.6438Z" fill="white"/>
<path d="M109.541 39.0297C109.747 39.0297 109.85 39.1548 109.85 39.405C109.85 39.6552 109.747 39.7803 109.541 39.7803C108.677 39.7803 107.38 39.7386 105.65 39.6552C103.839 39.5718 102.562 39.5301 101.821 39.5301C101.121 39.5301 100.03 39.5718 98.5478 39.6552C97.1478 39.7386 96.1597 39.7803 95.5832 39.7803C95.4185 39.7803 95.3362 39.6552 95.3362 39.405C95.3362 39.1548 95.4185 39.0297 95.5832 39.0297C96.5302 39.0297 97.189 38.9255 97.5596 38.717C97.9713 38.4668 98.1772 38.1124 98.1772 37.6537C98.1772 37.0699 97.8272 36.0275 97.1273 34.5263L93.4216 26.4577H86.2573L83.9103 32.087C83.1692 33.8383 82.7986 35.2143 82.7986 36.2151C82.7986 37.2159 83.1486 37.9456 83.8486 38.4043C84.5485 38.8213 85.6397 39.0297 87.1219 39.0297C87.3278 39.0297 87.4307 39.1548 87.4307 39.405C87.4307 39.6552 87.3278 39.7803 87.1219 39.7803C86.5455 39.7803 85.722 39.7386 84.6515 39.6552C83.4986 39.5718 82.4281 39.5301 81.4399 39.5301C80.4105 39.5301 79.1959 39.5718 77.796 39.6552C76.5608 39.7386 75.552 39.7803 74.7697 39.7803C74.5638 39.7803 74.4609 39.6552 74.4609 39.405C74.4609 39.1548 74.5638 39.0297 74.7697 39.0297C76.0461 39.0297 77.0754 38.8421 77.8577 38.4668C78.6401 38.0915 79.3606 37.3827 80.0194 36.3402C80.7194 35.2977 81.5222 33.6923 82.4281 31.524L91.6923 9.56979C91.7746 9.403 91.8981 9.3196 92.0628 9.3196C92.2275 9.3196 92.3511 9.403 92.4334 9.56979L102.315 31.2113C103.345 33.463 104.189 35.1309 104.847 36.2151C105.547 37.2993 106.247 38.0498 106.947 38.4668C107.647 38.8421 108.512 39.0297 109.541 39.0297ZM86.9366 24.8314H92.6804L89.6541 18.2639L86.9366 24.8314Z" fill="white"/>
<path d="M143.674 10.508C143.798 10.508 143.86 10.6331 143.86 10.8833C143.86 11.1335 143.798 11.2586 143.674 11.2586C142.027 11.2586 140.813 11.8424 140.031 13.0099C139.248 14.1775 138.857 16.0122 138.857 18.5141V40.4683C138.857 40.5517 138.754 40.6143 138.548 40.656C138.342 40.6977 138.198 40.6768 138.116 40.5934L116.438 15.8246V31.8368C116.438 34.297 116.808 36.1109 117.549 37.2784C118.332 38.446 119.526 39.0297 121.132 39.0297C121.255 39.0297 121.317 39.1548 121.317 39.405C121.317 39.6552 121.255 39.7803 121.132 39.7803C120.143 39.7803 119.382 39.7595 118.846 39.7178L115.882 39.6552L112.917 39.7178C112.341 39.7595 111.517 39.7803 110.447 39.7803C110.365 39.7803 110.323 39.6552 110.323 39.405C110.323 39.1548 110.365 39.0297 110.447 39.0297C112.094 39.0297 113.309 38.446 114.091 37.2784C114.873 36.1109 115.264 34.297 115.264 31.8368V14.5736C114.153 13.4061 113.164 12.5721 112.3 12.0717C111.476 11.5296 110.673 11.2586 109.891 11.2586C109.809 11.2586 109.768 11.1335 109.768 10.8833C109.768 10.6331 109.809 10.508 109.891 10.508L113.35 10.5706C113.679 10.5706 114.132 10.5706 114.708 10.5706C115.285 10.5289 116.747 10.508 119.093 10.508C119.423 10.508 119.691 10.6123 119.896 10.8207C120.143 11.0292 120.514 11.4254 121.008 12.0092C121.337 12.5095 121.79 13.0933 122.367 13.7605L137.622 31.0236V18.5141C137.622 16.0122 137.251 14.1775 136.51 13.0099C135.769 11.8424 134.575 11.2586 132.928 11.2586C132.846 11.2586 132.804 11.1335 132.804 10.8833C132.804 10.6331 132.846 10.508 132.928 10.508L135.275 10.5706C136.51 10.654 137.478 10.6957 138.178 10.6957C138.878 10.6957 139.886 10.654 141.204 10.5706L143.674 10.508Z" fill="white"/>
<path d="M161.49 40.0305C160.337 40.0305 159.06 39.968 157.66 39.8429C157.166 39.8012 156.549 39.7595 155.808 39.7178C155.067 39.6761 154.222 39.6552 153.275 39.6552L149.261 39.7178C148.52 39.7595 147.49 39.7803 146.173 39.7803C146.091 39.7803 146.049 39.6552 146.049 39.405C146.049 39.1548 146.091 39.0297 146.173 39.0297C147.408 39.0297 148.293 38.9255 148.829 38.717C149.405 38.5085 149.776 38.1124 149.94 37.5286C150.146 36.9031 150.249 35.9649 150.249 34.714V15.5744C150.249 14.3234 150.146 13.4061 149.94 12.8223C149.776 12.2385 149.405 11.8424 148.829 11.6339C148.293 11.3837 147.449 11.2586 146.296 11.2586C146.173 11.2586 146.111 11.1335 146.111 10.8833C146.111 10.6331 146.173 10.508 146.296 10.508L149.261 10.5706C150.908 10.654 152.246 10.6957 153.275 10.6957C154.552 10.6957 155.828 10.6331 157.105 10.508C158.752 10.4246 159.987 10.3829 160.81 10.3829C164.269 10.3829 167.254 11.0084 169.766 12.2593C172.277 13.5103 174.192 15.2408 175.509 17.4508C176.827 19.6608 177.486 22.1627 177.486 24.9565C177.486 27.8337 176.806 30.419 175.448 32.7124C174.089 35.0058 172.195 36.7989 169.766 38.0915C167.336 39.3842 164.578 40.0305 161.49 40.0305ZM160.81 38.6545C163.816 38.6545 166.163 37.5286 167.851 35.2769C169.539 33.0252 170.383 29.8144 170.383 25.6445C170.383 21.5998 169.539 18.2639 167.851 15.6369C166.163 12.9682 163.631 11.6339 160.254 11.6339C158.855 11.6339 157.846 11.9258 157.228 12.5095C156.652 13.0933 156.364 14.1566 156.364 15.6995V34.0259C156.364 35.7356 156.652 36.9448 157.228 37.6537C157.846 38.3209 159.04 38.6545 160.81 38.6545Z" fill="white"/>
<path d="M245.285 39.0297C245.367 39.0297 245.408 39.1548 245.408 39.405C245.408 39.6552 245.367 39.7803 245.285 39.7803C243.885 39.7803 242.773 39.7595 241.95 39.7178L237.379 39.6552L232.747 39.7178C231.965 39.7595 230.894 39.7803 229.536 39.7803C229.412 39.7803 229.35 39.6552 229.35 39.405C229.35 39.1548 229.412 39.0297 229.536 39.0297C231.265 39.0297 232.438 38.8213 233.056 38.4043C233.674 37.9873 233.982 37.1116 233.982 35.7773L233.921 34.714L232.624 9.13196L219.901 39.3425C219.818 39.5093 219.654 39.5927 219.407 39.5927C219.16 39.5927 218.995 39.5093 218.913 39.3425L203.287 9.25706L202.793 31.8368C202.752 34.0885 203.184 35.8607 204.09 37.1533C205.037 38.4043 206.355 39.0297 208.043 39.0297C208.166 39.0297 208.228 39.1548 208.228 39.405C208.228 39.6552 208.166 39.7803 208.043 39.7803C206.931 39.7803 206.066 39.7595 205.449 39.7178L202.052 39.6552L198.161 39.7178C197.502 39.7595 196.617 39.7803 195.505 39.7803C195.382 39.7803 195.32 39.6552 195.32 39.405C195.32 39.1548 195.382 39.0297 195.505 39.0297C197.193 39.0297 198.531 38.3834 199.52 37.0908C200.508 35.7981 201.023 34.0468 201.064 31.8368L201.62 5.94203L201.558 5.87948C200.734 4.33664 199.87 3.21078 198.964 2.50191C198.099 1.79303 197.09 1.4386 195.938 1.4386C195.814 1.4386 195.752 1.3135 195.752 1.06331C195.752 0.813122 195.814 0.688027 195.938 0.688027L198.84 0.750574C199.417 0.792271 200.158 0.81312 201.064 0.81312L204.337 0.750574C204.708 0.708876 205.181 0.688027 205.758 0.688027C206.293 0.688027 206.705 0.875669 206.993 1.25095C207.281 1.62624 207.816 2.52276 208.599 3.9405L222.062 29.5225L233.797 2.25172C234.044 1.66794 234.291 1.2718 234.538 1.06331C234.826 0.813122 235.197 0.688027 235.65 0.688027C236.021 0.688027 236.432 0.708876 236.885 0.750574C237.379 0.792271 237.935 0.81312 238.553 0.81312L242.197 0.750574C242.773 0.708876 243.597 0.688027 244.667 0.688027C244.791 0.688027 244.852 0.813122 244.852 1.06331C244.852 1.3135 244.791 1.4386 244.667 1.4386C242.732 1.4386 241.332 1.83473 240.467 2.627C239.603 3.41927 239.212 4.64938 239.294 6.31732L240.776 34.714C240.858 36.0066 241.003 36.9448 241.208 37.5286C241.456 38.1124 241.867 38.5085 242.444 38.717C243.061 38.9255 244.008 39.0297 245.285 39.0297Z" fill="white"/>
<path d="M281.194 39.0297C281.4 39.0297 281.503 39.1548 281.503 39.405C281.503 39.6552 281.4 39.7803 281.194 39.7803C280.329 39.7803 279.032 39.7386 277.303 39.6552C275.491 39.5718 274.215 39.5301 273.474 39.5301C272.774 39.5301 271.683 39.5718 270.201 39.6552C268.801 39.7386 267.812 39.7803 267.236 39.7803C267.071 39.7803 266.989 39.6552 266.989 39.405C266.989 39.1548 267.071 39.0297 267.236 39.0297C268.183 39.0297 268.842 38.9255 269.212 38.717C269.624 38.4668 269.83 38.1124 269.83 37.6537C269.83 37.0699 269.48 36.0275 268.78 34.5263L265.074 26.4577H257.91L255.563 32.087C254.822 33.8383 254.451 35.2143 254.451 36.2151C254.451 37.2159 254.801 37.9456 255.501 38.4043C256.201 38.8213 257.292 39.0297 258.775 39.0297C258.981 39.0297 259.084 39.1548 259.084 39.405C259.084 39.6552 258.981 39.7803 258.775 39.7803C258.198 39.7803 257.375 39.7386 256.304 39.6552C255.151 39.5718 254.081 39.5301 253.093 39.5301C252.063 39.5301 250.849 39.5718 249.449 39.6552C248.214 39.7386 247.205 39.7803 246.422 39.7803C246.217 39.7803 246.114 39.6552 246.114 39.405C246.114 39.1548 246.217 39.0297 246.422 39.0297C247.699 39.0297 248.728 38.8421 249.511 38.4668C250.293 38.0915 251.013 37.3827 251.672 36.3402C252.372 35.2977 253.175 33.6923 254.081 31.524L263.345 9.56979C263.427 9.403 263.551 9.3196 263.716 9.3196C263.88 9.3196 264.004 9.403 264.086 9.56979L273.968 31.2113C274.997 33.463 275.841 35.1309 276.5 36.2151C277.2 37.2993 277.9 38.0498 278.6 38.4668C279.3 38.8421 280.165 39.0297 281.194 39.0297ZM258.589 24.8314H264.333L261.307 18.2639L258.589 24.8314Z" fill="white"/>
<path d="M289.943 15.1365C289.943 16.3041 290.252 17.3257 290.87 18.2014C291.529 19.0353 292.311 19.7651 293.217 20.3905C294.164 20.9743 295.44 21.6832 297.046 22.5172C298.899 23.5179 300.34 24.3727 301.369 25.0816C302.44 25.7488 303.346 26.6245 304.087 27.7086C304.869 28.7928 305.26 30.0854 305.26 31.5866C305.26 33.2545 304.766 34.7765 303.778 36.1526C302.831 37.4869 301.513 38.5502 299.825 39.3425C298.137 40.1348 296.243 40.5309 294.143 40.5309C292.249 40.5309 290.396 40.2807 288.585 39.7803C286.814 39.3216 285.579 38.8004 284.879 38.2166C284.55 38.0081 284.385 37.5703 284.385 36.9031L284.076 29.8352C284.076 29.6684 284.179 29.5642 284.385 29.5225C284.591 29.4808 284.735 29.5433 284.817 29.7101C286.382 32.4622 287.967 34.714 289.573 36.4653C291.179 38.2166 293.011 39.0923 295.07 39.0923C296.305 39.0923 297.334 38.717 298.158 37.9664C298.981 37.2159 299.393 36.09 299.393 34.5889C299.393 33.2545 299.043 32.087 298.343 31.0862C297.684 30.0854 296.861 29.2515 295.872 28.5843C294.884 27.8754 293.567 27.0623 291.92 26.1449C289.49 24.8106 287.638 23.5596 286.361 22.3921C285.085 21.1828 284.447 19.6191 284.447 17.701C284.447 15.2825 285.497 13.3644 287.596 11.9466C289.696 10.4872 292.229 9.75744 295.193 9.75744C296.511 9.75744 297.89 9.90338 299.331 10.1953C300.772 10.4872 301.925 10.8207 302.79 11.196C303.16 11.3211 303.407 11.4879 303.531 11.6964C303.654 11.8632 303.716 12.1134 303.716 12.447V18.389C303.716 18.5141 303.613 18.6184 303.407 18.7018C303.201 18.7435 303.057 18.7018 302.975 18.5767C302.193 16.9087 301.102 15.2616 299.702 13.6354C298.302 12.0092 296.449 11.196 294.143 11.196C292.743 11.196 291.693 11.5713 290.993 12.3219C290.293 13.0308 289.943 13.969 289.943 15.1365Z" fill="white"/>
<path d="M317.234 11.759C315.67 11.759 314.167 12.4261 312.726 13.7605C311.326 15.0948 310.214 16.9087 309.39 19.2021C309.349 19.3272 309.226 19.3898 309.02 19.3898C308.814 19.3898 308.711 19.3272 308.711 19.2021C308.876 17.8678 309.061 16.1373 309.267 14.0107C309.473 11.8424 309.576 10.2161 309.576 9.13196C309.576 8.92347 309.679 8.81922 309.885 8.81922C310.132 8.81922 310.255 8.92347 310.255 9.13196C310.255 9.67404 310.564 10.0285 311.182 10.1953C311.799 10.3204 312.581 10.3829 313.528 10.3829C317.069 10.4663 320.178 10.508 322.854 10.508L328.228 10.4455C328.928 10.4038 329.875 10.3829 331.069 10.3829C332.674 10.3829 333.868 10.2995 334.651 10.1327C335.474 9.92423 335.989 9.50725 336.195 8.88177C336.236 8.75667 336.36 8.69413 336.565 8.69413C336.812 8.69413 336.936 8.75667 336.936 8.88177L336.751 12.0092C336.504 15.6786 336.38 18.0763 336.38 19.2021C336.38 19.3272 336.257 19.3898 336.01 19.3898C335.763 19.3898 335.639 19.3272 335.639 19.2021C335.433 17.9095 334.96 16.7002 334.218 15.5744C333.477 14.4068 332.592 13.4894 331.563 12.8223C330.575 12.1134 329.566 11.759 328.536 11.759C327.548 11.759 326.889 12.03 326.56 12.5721C326.231 13.0725 326.066 14.0732 326.066 15.5744V34.714C326.066 35.9649 326.169 36.9031 326.375 37.5286C326.622 38.1124 327.054 38.5085 327.672 38.717C328.289 38.9255 329.278 39.0297 330.636 39.0297C330.76 39.0297 330.822 39.1548 330.822 39.405C330.822 39.6552 330.76 39.7803 330.636 39.7803C329.278 39.7803 328.207 39.7595 327.425 39.7178L322.793 39.6552L318.284 39.7178C317.502 39.7595 316.39 39.7803 314.949 39.7803C314.867 39.7803 314.825 39.6552 314.825 39.405C314.825 39.1548 314.867 39.0297 314.949 39.0297C316.349 39.0297 317.358 38.9255 317.975 38.717C318.634 38.5085 319.066 38.1124 319.272 37.5286C319.519 36.9031 319.643 35.9649 319.643 34.714V15.4493C319.643 13.9064 319.499 12.9057 319.21 12.447C318.922 11.9883 318.263 11.759 317.234 11.759Z" fill="white"/>
<path d="M363.861 31.4615C363.943 31.3364 364.087 31.2738 364.293 31.2738C364.499 31.2738 364.602 31.3364 364.602 31.4615C364.314 34.4638 364.17 36.924 364.17 38.8421C364.17 39.1757 364.108 39.4259 363.984 39.5927C363.861 39.7178 363.614 39.7803 363.243 39.7803H340.021C339.939 39.7803 339.898 39.6552 339.898 39.405C339.898 39.1548 339.939 39.0297 340.021 39.0297C341.215 39.0297 342.08 38.9255 342.615 38.717C343.15 38.5085 343.521 38.1124 343.727 37.5286C343.933 36.9031 344.036 35.9649 344.036 34.714V15.5744C344.036 14.3234 343.933 13.4061 343.727 12.8223C343.521 12.2385 343.13 11.8424 342.553 11.6339C342.018 11.3837 341.174 11.2586 340.021 11.2586C339.939 11.2586 339.898 11.1335 339.898 10.8833C339.898 10.6331 339.939 10.508 340.021 10.508H362.132C362.543 10.508 362.749 10.6748 362.749 11.0084L362.811 14.8863C362.852 15.6786 362.873 16.6794 362.873 17.8886C362.873 18.0137 362.749 18.0763 362.502 18.0763C362.296 18.0763 362.173 18.0137 362.132 17.8886C361.349 16.0539 360.155 14.5111 358.549 13.2601C356.944 11.9675 355.317 11.3211 353.67 11.3211H353.238C352.332 11.3211 351.653 11.4462 351.2 11.6964C350.788 11.9049 350.5 12.301 350.335 12.8848C350.212 13.4686 350.15 14.386 350.15 15.6369V24.0809C353.279 24.0392 355.585 23.9141 357.067 23.7056C358.549 23.4971 359.394 23.3928 359.599 23.3928C359.888 23.3928 360.032 23.8515 360.032 24.7689C360.032 25.1859 359.991 25.5611 359.908 25.8947C359.826 26.2283 359.723 26.3951 359.599 26.3951C359.352 26.3951 358.488 26.2909 357.005 26.0824C355.523 25.8739 353.238 25.7279 350.15 25.6445V34.4638C350.15 35.7147 350.212 36.6321 350.335 37.2159C350.5 37.7996 350.788 38.2166 351.2 38.4668C351.653 38.6753 352.332 38.7796 353.238 38.7796H353.917C355.853 38.7796 357.767 38.0915 359.661 36.7155C361.555 35.2977 362.955 33.5464 363.861 31.4615Z" fill="white"/>
<path d="M401.774 39.0297C401.898 39.0297 401.959 39.1548 401.959 39.405C401.959 39.6552 401.898 39.7803 401.774 39.7803H391.645C391.028 39.7803 389.916 38.5294 388.31 36.0275C386.746 33.5256 384.872 30.0854 382.69 25.7071C381.825 25.8322 380.961 25.8947 380.096 25.8947H379.046V34.714C379.046 36.0066 379.128 36.9448 379.293 37.5286C379.499 38.1124 379.849 38.5085 380.343 38.717C380.878 38.9255 381.722 39.0297 382.875 39.0297C382.958 39.0297 382.999 39.1548 382.999 39.405C382.999 39.6552 382.958 39.7803 382.875 39.7803C381.64 39.7803 380.672 39.7595 379.972 39.7178L375.773 39.6552L371.758 39.7178C371.017 39.7595 369.988 39.7803 368.67 39.7803C368.588 39.7803 368.547 39.6552 368.547 39.405C368.547 39.1548 368.588 39.0297 368.67 39.0297C369.823 39.0297 370.667 38.9255 371.202 38.717C371.738 38.5085 372.108 38.1124 372.314 37.5286C372.52 36.9031 372.623 35.9649 372.623 34.714V15.5744C372.623 14.3234 372.52 13.4061 372.314 12.8223C372.149 12.2385 371.799 11.8424 371.264 11.6339C370.729 11.3837 369.905 11.2586 368.794 11.2586C368.67 11.2586 368.608 11.1335 368.608 10.8833C368.608 10.6331 368.67 10.508 368.794 10.508L371.82 10.5706C373.467 10.654 374.784 10.6957 375.773 10.6957C376.555 10.6957 377.276 10.6748 377.934 10.6331C378.593 10.5914 379.17 10.5497 379.664 10.508C381.022 10.3829 382.299 10.3204 383.493 10.3204C386.704 10.3204 389.154 10.8416 390.842 11.8841C392.531 12.9265 393.375 14.4277 393.375 16.3875C393.375 18.0137 392.86 19.5149 391.831 20.8909C390.801 22.267 389.381 23.3928 387.569 24.2685C389.792 28.0631 391.707 31.0236 393.313 33.1503C394.919 35.2769 396.38 36.7989 397.698 37.7162C399.016 38.5919 400.374 39.0297 401.774 39.0297ZM379.046 24.6438C379.334 24.6855 379.828 24.7063 380.528 24.7063C382.875 24.7063 384.502 24.1642 385.407 23.0801C386.313 21.9542 386.766 20.2863 386.766 18.0763C386.766 13.7396 385.202 11.5713 382.072 11.5713C381.208 11.5713 380.569 11.6756 380.158 11.8841C379.746 12.0926 379.458 12.4887 379.293 13.0725C379.128 13.6145 379.046 14.4902 379.046 15.6995V24.6438Z" fill="white"/>
<path d="M413.069 34.714C413.069 35.9649 413.172 36.9031 413.378 37.5286C413.583 38.1124 413.954 38.5085 414.489 38.717C415.025 38.9255 415.889 39.0297 417.083 39.0297C417.166 39.0297 417.207 39.1548 417.207 39.405C417.207 39.6552 417.166 39.7803 417.083 39.7803C415.807 39.7803 414.819 39.7595 414.119 39.7178L409.919 39.6552L405.904 39.7178C405.163 39.7595 404.134 39.7803 402.816 39.7803C402.734 39.7803 402.693 39.6552 402.693 39.405C402.693 39.1548 402.734 39.0297 402.816 39.0297C404.01 39.0297 404.875 38.9255 405.41 38.717C405.987 38.5085 406.378 38.1124 406.584 37.5286C406.79 36.9031 406.893 35.9649 406.893 34.714V15.5744C406.893 14.3234 406.79 13.4061 406.584 12.8223C406.378 12.2385 405.987 11.8424 405.41 11.6339C404.875 11.3837 404.01 11.2586 402.816 11.2586C402.734 11.2586 402.693 11.1335 402.693 10.8833C402.693 10.6331 402.734 10.508 402.816 10.508L405.904 10.5706C407.551 10.654 408.89 10.6957 409.919 10.6957C411.031 10.6957 412.451 10.654 414.18 10.5706L417.083 10.508C417.166 10.508 417.207 10.6331 417.207 10.8833C417.207 11.1335 417.166 11.2586 417.083 11.2586C415.93 11.2586 415.066 11.3837 414.489 11.6339C413.954 11.8841 413.583 12.3219 413.378 12.9474C413.172 13.5311 413.069 14.4485 413.069 15.6995V34.714Z" fill="white"/>
<path d="M453.691 39.0297C453.897 39.0297 454 39.1548 454 39.405C454 39.6552 453.897 39.7803 453.691 39.7803C452.827 39.7803 451.53 39.7386 449.8 39.6552C447.989 39.5718 446.712 39.5301 445.971 39.5301C445.271 39.5301 444.18 39.5718 442.698 39.6552C441.298 39.7386 440.31 39.7803 439.733 39.7803C439.568 39.7803 439.486 39.6552 439.486 39.405C439.486 39.1548 439.568 39.0297 439.733 39.0297C440.68 39.0297 441.339 38.9255 441.71 38.717C442.121 38.4668 442.327 38.1124 442.327 37.6537C442.327 37.0699 441.977 36.0275 441.277 34.5263L437.572 26.4577H430.407L428.06 32.087C427.319 33.8383 426.949 35.2143 426.949 36.2151C426.949 37.2159 427.299 37.9456 427.999 38.4043C428.698 38.8213 429.79 39.0297 431.272 39.0297C431.478 39.0297 431.581 39.1548 431.581 39.405C431.581 39.6552 431.478 39.7803 431.272 39.7803C430.695 39.7803 429.872 39.7386 428.801 39.6552C427.649 39.5718 426.578 39.5301 425.59 39.5301C424.56 39.5301 423.346 39.5718 421.946 39.6552C420.711 39.7386 419.702 39.7803 418.92 39.7803C418.714 39.7803 418.611 39.6552 418.611 39.405C418.611 39.1548 418.714 39.0297 418.92 39.0297C420.196 39.0297 421.225 38.8421 422.008 38.4668C422.79 38.0915 423.511 37.3827 424.169 36.3402C424.869 35.2977 425.672 33.6923 426.578 31.524L435.842 9.56979C435.925 9.403 436.048 9.3196 436.213 9.3196C436.378 9.3196 436.501 9.403 436.583 9.56979L446.465 31.2113C447.495 33.463 448.339 35.1309 448.997 36.2151C449.697 37.2993 450.397 38.0498 451.097 38.4668C451.797 38.8421 452.662 39.0297 453.691 39.0297ZM431.087 24.8314H436.83L433.804 18.2639L431.087 24.8314Z" fill="white"/>
</svg>
